{"glyphs":{"0":{"ha":726,"x_min":-21,"x_max":747,"o":"m 265 0 l 0 0 q -15 6 -10 0 q -21 21 -21 13 q 0 42 -21 42 l 181 42 q 168 52 174 47 q 157 64 163 57 q 104 144 124 97 q 75 239 86 188 q 63 340 65 286 q 60 390 61 365 q 60 438 60 414 q 60 486 60 461 q 63 536 61 511 q 75 638 64 588 q 104 732 86 688 q 157 814 122 778 q 243 869 189 847 q 364 890 293 890 q 485 869 432 890 q 569 814 538 847 q 624 732 603 779 q 640 686 633 710 q 651 638 646 663 q 664 536 663 588 q 666 485 665 510 q 667 438 667 461 q 666 390 667 414 q 664 340 665 365 q 651 239 661 286 q 624 144 642 192 q 569 64 601 96 q 558 52 564 57 q 546 42 553 47 l 726 42 q 747 21 747 42 q 742 6 747 13 q 726 0 736 0 l 461 0 q 442 18 444 0 q 456 42 438 36 q 463 44 458 43 q 469 46 467 44 q 540 92 511 63 q 565 124 554 107 q 585 161 576 142 q 599 202 593 181 q 611 247 606 224 q 618 294 615 271 q 622 342 621 318 q 624 390 624 367 q 625 438 625 414 q 624 485 625 461 q 622 533 624 508 q 618 582 621 558 q 611 629 615 606 q 599 674 606 653 q 585 715 593 696 q 540 785 568 754 q 468 832 511 813 q 364 849 426 849 q 258 832 301 849 q 188 785 214 813 q 142 715 158 756 q 127 674 133 696 q 115 629 121 653 q 108 582 111 606 q 104 533 106 558 q 102 485 103 510 q 101 438 101 461 q 102 390 101 414 q 104 342 103 367 q 108 294 106 318 q 115 247 111 271 q 127 202 121 224 q 142 161 133 181 q 188 92 158 121 q 219 66 201 78 q 258 46 236 54 q 272 42 267 43 q 286 18 289 38 q 265 0 283 0 z "},"1":{"ha":485,"x_min":-21,"x_max":506,"o":"m 485 0 l 403 0 q 388 6 394 0 q 382 21 382 13 l 382 849 l 343 849 q 311 779 333 807 q 249 724 288 744 q 210 707 231 714 q 168 697 190 700 q 136 693 153 694 q 103 690 119 692 l 103 650 l 301 650 q 316 644 310 650 q 322 629 322 638 l 322 21 q 316 6 322 13 q 301 0 310 0 l 0 0 q -15 6 -8 0 q -21 21 -21 13 q -15 36 -21 31 q 0 42 -8 42 l 281 42 l 281 608 l 82 608 q 67 615 72 608 q 61 629 61 621 l 61 711 q 67 726 61 719 q 82 732 72 732 q 122 733 101 732 q 163 738 143 735 q 197 747 181 740 q 229 760 214 753 q 278 803 258 778 q 306 874 297 831 q 325 890 308 890 l 403 890 q 424 869 424 890 l 424 42 l 485 42 q 499 36 493 42 q 506 21 506 31 q 499 6 506 13 q 485 0 493 0 z "},"2":{"ha":717,"x_min":-21,"x_max":738,"o":"m 717 0 l 635 0 q 620 6 626 0 q 614 21 614 13 l 614 90 l 200 90 q 183 97 190 90 q 179 115 178 106 q 214 194 188 160 q 241 225 226 210 q 274 254 256 240 q 309 281 290 268 q 349 306 328 294 q 388 329 368 317 q 426 353 407 342 q 465 378 446 365 q 501 404 483 390 q 564 463 536 431 q 588 497 578 478 q 607 535 599 515 q 619 577 615 554 q 622 626 622 600 q 604 722 622 682 q 581 760 594 743 q 553 792 568 776 q 475 833 519 818 q 428 845 451 842 q 378 849 404 849 q 267 828 314 849 q 186 771 218 807 q 139 683 153 731 q 125 590 125 642 l 186 590 q 194 650 188 621 q 226 725 204 690 q 286 779 249 757 q 372 801 324 801 q 443 789 410 801 q 501 754 478 776 q 542 699 526 731 q 557 626 557 665 q 542 542 557 581 q 497 472 528 504 q 465 442 482 457 q 426 413 447 428 q 382 383 406 399 q 331 351 358 368 l 331 350 q 247 296 286 325 q 210 265 228 281 q 178 229 193 249 q 128 143 147 194 q 103 19 107 93 q 95 6 101 13 q 82 0 89 0 l 0 0 q -15 6 -8 0 q -21 21 -21 13 q -15 36 -21 31 q 0 42 -8 42 l 63 42 q 72 104 65 75 q 89 158 79 133 q 114 210 100 186 q 146 256 128 235 q 181 295 163 276 q 222 329 200 314 q 308 386 267 361 q 359 418 336 403 q 403 447 382 433 q 438 474 422 461 q 467 501 454 488 q 503 557 490 526 q 515 626 515 586 q 504 681 515 656 q 474 722 492 707 q 428 750 457 739 q 401 757 415 754 q 372 760 388 760 q 307 743 333 760 q 282 725 293 736 q 261 701 271 714 q 235 640 243 675 q 228 571 225 604 q 222 556 228 561 q 207 549 215 549 l 106 549 q 91 554 97 549 q 85 568 85 560 q 99 696 81 639 q 154 799 118 757 q 250 867 196 843 q 378 890 308 890 q 488 874 438 890 q 579 822 540 857 q 642 740 618 789 q 664 626 664 692 q 646 518 664 564 q 596 436 626 471 q 526 371 567 400 q 488 344 507 357 q 449 318 469 331 l 449 317 q 409 294 429 306 q 369 269 389 282 q 333 247 350 258 q 300 222 315 235 q 247 168 267 196 q 226 132 233 150 l 635 132 q 650 126 644 132 q 656 111 656 119 l 656 42 l 717 42 q 731 36 725 42 q 738 21 738 31 q 731 6 738 13 q 717 0 725 0 z "},"3":{"ha":738,"x_min":-21,"x_max":758,"o":"m 738 0 l 467 0 q 446 18 449 0 q 461 42 443 36 q 466 43 464 43 q 471 44 468 43 q 517 63 496 51 q 557 89 538 74 q 614 163 593 118 q 635 265 635 206 q 601 388 635 335 q 499 451 569 435 q 482 471 482 454 l 482 474 q 494 493 482 486 q 569 553 542 515 q 599 643 599 592 q 581 736 599 699 q 533 799 565 772 q 458 836 503 822 q 361 849 413 849 q 258 831 300 849 q 185 779 214 813 q 139 700 156 746 q 122 617 126 663 l 181 617 q 185 645 182 632 q 190 672 188 658 q 224 738 201 711 q 281 783 246 767 q 361 801 315 801 q 482 763 432 801 q 533 643 533 722 q 518 575 533 606 q 476 524 501 544 q 449 506 464 514 q 418 494 435 499 q 385 487 403 489 q 351 485 368 485 l 328 485 l 328 443 q 347 444 338 444 q 368 444 357 444 q 444 433 407 444 q 510 399 485 419 q 553 340 536 375 q 569 261 569 304 q 551 183 569 215 q 507 125 535 149 q 442 89 481 103 q 364 76 404 76 q 215 135 267 76 q 164 263 169 189 l 103 263 q 119 174 106 213 q 142 130 129 150 q 171 94 154 110 q 253 46 206 63 q 260 44 257 44 q 268 42 264 43 q 283 18 286 36 q 263 0 281 0 l 0 0 q -15 6 -8 0 q -21 21 -21 13 q -15 36 -21 31 q 0 42 -8 42 l 169 42 q 156 53 163 47 q 143 64 150 58 q 81 158 101 103 q 61 283 60 217 q 67 299 61 293 q 82 304 74 304 l 183 304 q 198 299 192 304 q 204 285 204 293 q 247 163 206 210 q 364 118 286 118 q 428 128 400 118 q 479 157 460 139 q 514 201 500 172 q 528 261 528 225 q 515 322 528 294 q 482 367 503 349 q 432 393 463 385 q 368 403 404 403 q 308 399 338 403 q 293 404 299 399 q 286 419 286 410 l 286 506 q 293 522 286 515 q 311 526 301 528 l 317 526 l 351 526 q 379 528 365 526 q 406 533 393 529 q 451 557 431 542 q 481 593 471 574 q 492 643 492 618 q 456 729 492 703 q 361 760 419 760 q 300 746 324 760 q 257 713 274 733 q 231 661 239 690 q 222 596 222 629 q 216 581 222 588 q 201 575 210 575 l 100 575 q 85 582 92 575 q 79 597 78 589 q 100 714 82 663 q 153 807 119 769 q 242 868 189 847 q 361 890 292 890 q 469 876 422 890 q 558 831 521 863 q 619 753 596 803 q 640 643 640 707 q 603 528 640 578 q 551 478 583 500 q 636 410 606 456 q 676 265 676 349 q 651 144 676 196 q 583 57 628 94 q 573 49 578 53 q 564 42 568 46 l 738 42 q 752 36 746 42 q 758 21 758 31 q 752 6 758 13 q 738 0 746 0 z "},"4":{"ha":742,"x_min":-21,"x_max":763,"o":"m 742 0 l 546 0 q 531 6 538 0 q 525 21 525 13 l 525 221 q 531 235 525 229 q 546 242 538 242 l 640 242 l 640 289 l 546 289 q 531 295 538 289 q 525 310 525 301 l 525 849 l 475 849 l 99 311 l 99 242 l 450 242 q 465 235 458 242 q 471 221 471 229 l 471 21 q 465 6 471 13 q 450 0 458 0 l 0 0 q -15 6 -8 0 q -21 21 -21 13 q -15 36 -21 31 q 0 42 -8 42 l 429 42 l 429 200 l 78 200 q 63 206 69 200 q 57 221 57 211 l 57 318 q 61 331 57 324 l 447 882 q 464 890 453 890 l 546 890 q 560 885 554 890 q 567 869 567 879 l 567 331 l 661 331 q 676 324 669 331 q 682 310 682 318 l 682 221 q 676 206 682 211 q 661 200 669 200 l 567 200 l 567 42 l 742 42 q 763 21 763 42 q 757 6 763 13 q 742 0 751 0 z "},"5":{"ha":731,"x_min":-21,"x_max":751,"o":"m 258 0 l 0 0 q -15 6 -8 0 q -21 21 -21 13 q -15 36 -21 31 q 0 42 -8 42 l 167 42 q 158 48 163 44 q 150 56 154 51 q 86 139 108 90 q 61 250 64 186 q 67 265 61 260 q 82 271 75 271 l 183 271 q 198 265 192 271 q 204 251 204 260 q 209 224 206 238 q 218 199 213 211 q 251 156 231 175 q 299 128 271 139 q 363 118 326 118 q 424 129 397 118 q 474 161 453 140 q 507 218 496 185 q 521 297 521 250 q 508 368 521 335 q 474 422 496 400 q 421 457 451 444 q 350 469 389 469 q 271 450 306 469 q 208 397 236 432 q 190 389 201 389 l 104 394 q 89 403 93 394 q 85 419 82 408 l 163 860 q 183 876 167 876 l 603 876 q 617 870 611 876 q 624 856 624 864 l 624 765 q 617 751 624 757 q 603 744 611 744 l 278 744 l 244 568 q 282 585 261 578 q 375 601 328 601 q 489 582 433 601 q 583 522 542 564 q 647 425 625 481 q 669 289 669 368 q 665 233 669 261 q 650 178 661 206 q 624 126 639 150 q 590 81 610 101 q 546 42 568 58 l 731 42 q 745 36 739 42 q 751 21 751 31 q 745 6 751 13 q 731 0 739 0 l 453 0 q 432 18 435 0 q 447 42 429 36 q 474 51 464 46 q 560 108 526 72 q 611 192 596 149 q 628 289 628 239 q 608 410 628 356 q 554 493 588 460 q 475 543 521 526 q 375 560 426 560 q 335 556 356 560 q 294 546 315 553 q 233 506 257 533 q 218 499 226 499 q 203 504 208 499 l 200 507 q 194 525 192 513 l 240 769 q 260 786 243 786 l 582 786 l 582 835 l 201 835 l 129 435 l 183 432 q 250 486 213 465 q 350 511 293 511 q 436 496 394 511 q 504 450 475 479 q 547 383 532 422 q 563 297 563 342 q 546 203 563 244 q 503 132 532 164 q 438 90 476 106 q 363 76 404 76 q 285 89 319 76 q 222 125 251 101 q 181 181 199 147 q 165 229 169 206 l 104 229 q 111 191 107 210 q 124 156 115 172 q 176 88 143 115 q 256 44 208 60 q 264 42 261 42 q 279 18 282 36 q 258 0 276 0 z "},"6":{"ha":738,"x_min":-21,"x_max":758,"o":"m 738 0 l 472 0 q 451 18 457 0 q 467 42 449 36 q 499 54 485 46 q 579 117 547 79 q 622 201 611 157 q 636 292 636 244 q 619 394 636 346 q 572 475 603 440 q 499 526 544 507 q 451 542 476 538 q 397 546 425 546 q 283 522 335 546 q 203 444 238 500 q 188 435 199 438 q 171 442 176 435 l 168 443 q 163 458 163 449 q 165 510 163 483 q 172 567 168 538 q 204 676 181 625 q 272 765 226 728 q 389 801 317 801 q 501 761 457 801 q 549 674 539 724 l 610 674 q 547 799 597 754 q 393 849 490 849 q 254 814 307 849 q 165 719 200 779 q 117 581 131 657 q 106 499 110 540 q 103 415 103 458 q 105 349 103 383 q 113 279 107 315 q 151 154 121 214 q 233 64 182 97 q 282 42 251 51 q 296 18 299 38 q 275 0 293 0 l 0 0 q -15 6 -8 0 q -21 21 -21 13 q -15 36 -21 31 q 0 42 -8 42 l 192 42 q 114 135 142 83 q 71 274 81 200 q 63 345 65 310 q 61 415 61 381 q 65 503 61 460 q 76 589 68 547 q 129 740 92 672 q 232 849 168 810 q 393 890 296 890 q 575 829 508 890 q 654 656 643 769 q 649 639 654 644 q 633 632 642 632 l 531 632 q 517 638 524 632 q 511 650 511 643 q 472 731 506 700 q 389 760 440 760 q 297 732 332 760 q 242 660 263 703 q 213 561 221 614 q 210 540 211 550 q 208 518 210 529 q 265 560 232 542 q 397 588 325 588 q 515 565 465 588 q 604 501 567 543 q 658 408 639 463 q 678 292 678 353 q 674 242 678 267 q 663 189 669 217 q 611 90 649 136 q 560 42 592 65 l 738 42 q 758 21 758 42 q 753 6 758 13 q 738 0 747 0 z "},"7":{"ha":713,"x_min":-21,"x_max":733,"o":"m 713 0 l 306 0 q 290 7 297 0 q 285 22 285 13 q 319 232 292 126 q 351 337 333 285 q 392 439 369 389 q 440 537 414 489 q 493 629 465 585 q 550 708 521 671 q 611 776 579 744 l 611 835 l 103 835 l 103 781 l 528 781 q 546 768 540 781 q 542 746 553 754 q 478 673 510 711 q 419 593 447 635 q 366 509 392 553 q 318 419 340 465 q 279 324 297 372 q 247 226 261 276 q 225 124 233 176 q 213 19 217 72 q 206 6 213 13 q 192 0 200 0 l 0 0 q -15 6 -8 0 q -21 21 -21 13 q -15 36 -21 31 q 0 42 -8 42 l 172 42 q 185 140 176 92 q 207 238 194 189 q 281 436 238 343 q 330 530 304 485 q 385 617 356 575 q 432 680 408 649 q 481 739 456 711 l 82 739 q 67 745 74 739 q 61 760 61 751 l 61 856 q 67 870 61 864 q 82 876 74 876 l 632 876 q 647 870 640 876 q 653 856 653 864 l 653 768 q 646 753 653 760 q 528 606 582 692 q 476 517 500 563 q 429 422 451 471 q 391 324 408 374 q 360 221 374 274 q 340 131 347 175 q 328 42 332 86 l 713 42 q 727 36 721 42 q 733 21 733 31 q 727 6 733 13 q 713 0 721 0 z "},"8":{"ha":732,"x_min":-21,"x_max":753,"o":"m 732 0 l 468 0 q 447 18 450 0 q 463 42 444 36 q 468 43 465 43 q 474 44 471 43 q 556 90 519 60 q 610 164 592 122 q 631 265 631 207 q 597 388 631 338 q 494 457 564 436 q 479 476 482 461 q 492 496 479 492 q 568 560 542 518 q 597 653 597 603 q 594 690 597 672 q 583 725 590 708 q 543 788 571 760 q 471 832 514 817 q 360 849 426 849 q 272 836 314 849 q 234 819 253 829 q 200 797 215 810 q 150 736 168 771 q 132 653 132 697 q 161 558 132 601 q 238 497 192 515 q 251 476 251 490 q 236 458 249 463 q 138 385 171 435 q 103 265 103 336 q 122 161 103 207 q 178 88 144 115 q 263 44 215 57 q 271 42 268 42 q 286 19 289 36 q 265 0 283 0 l 0 0 q -15 6 -8 0 q -21 21 -21 13 q -15 36 -21 31 q 0 42 -8 42 l 169 42 q 160 49 164 46 q 151 56 156 53 q 85 144 110 92 q 61 265 61 199 q 103 408 61 347 q 138 448 118 431 q 182 479 158 465 q 126 536 149 503 q 90 653 90 589 q 114 756 90 711 q 174 831 133 797 q 260 875 213 861 q 360 890 304 890 q 486 871 432 890 q 574 817 542 849 q 622 740 607 783 q 639 653 639 699 q 603 538 639 590 q 578 506 592 521 q 549 481 564 492 q 631 411 601 456 q 672 265 672 350 q 647 147 672 199 q 583 60 625 97 q 561 42 574 50 l 732 42 q 753 21 753 42 q 747 6 753 13 q 732 0 742 0 z "},"9":{"ha":733,"x_min":-21,"x_max":754,"o":"m 733 0 l 451 0 q 431 18 433 0 q 444 42 428 38 q 564 138 519 64 q 614 275 597 193 q 631 464 631 357 q 608 657 631 585 q 550 774 585 732 q 467 832 515 814 q 361 849 417 849 q 256 831 301 849 q 175 778 208 811 q 122 697 142 746 q 103 593 103 650 q 119 485 103 535 q 167 403 133 438 q 243 350 196 369 q 350 331 290 331 q 454 360 406 331 q 528 438 504 390 q 543 447 532 447 q 561 442 553 449 l 564 439 q 569 424 569 431 q 515 167 565 254 q 357 76 463 76 q 239 114 289 76 q 183 206 196 147 l 124 206 q 193 79 136 121 q 267 42 224 54 q 282 18 285 36 q 261 0 276 0 l 0 0 q -15 6 -8 0 q -21 21 -21 13 q -15 36 -21 31 q 0 42 -8 42 l 172 42 l 168 46 q 79 225 90 104 q 85 240 79 235 q 100 247 92 247 l 201 247 q 222 228 219 247 q 264 147 229 172 q 357 118 303 118 q 479 188 439 118 q 508 261 497 218 q 524 363 518 304 q 475 324 506 342 q 350 289 417 289 q 285 294 315 289 q 226 311 254 300 q 135 375 171 335 q 79 472 97 417 q 61 593 61 526 q 83 713 61 660 q 144 807 104 769 q 240 869 186 846 q 361 890 296 890 q 423 886 393 890 q 481 871 453 882 q 581 801 539 849 q 649 669 622 753 q 672 464 672 586 q 600 115 672 240 q 536 42 571 69 l 733 42 q 748 36 742 42 q 754 21 754 31 q 748 6 754 13 q 733 0 742 0 z "}," ":{"ha":519,"x_min":-21,"x_max":540,"o":"m 0 0 q -15 6 -8 0 q -21 21 -21 13 q -15 36 -21 31 q 0 42 -8 42 l 519 42 q 534 36 528 42 q 540 21 540 31 q 534 6 540 13 q 519 0 528 0 l 0 0 z "},"!":{"ha":306,"x_min":-21,"x_max":326,"o":"m 179 199 l 126 199 q 112 204 118 199 q 106 218 106 210 l 75 589 l 75 592 l 75 854 q 81 869 75 863 q 96 875 88 875 l 210 875 q 224 869 218 875 q 231 854 231 863 l 231 592 l 231 589 l 200 218 q 194 204 200 210 q 179 199 188 199 m 144 240 l 161 240 l 189 592 l 189 833 l 117 833 l 117 592 l 144 240 m 203 0 q 183 13 188 0 q 188 35 179 26 q 203 71 203 50 q 188 107 203 92 q 153 122 174 122 q 117 107 132 122 q 103 71 103 92 q 118 35 103 50 q 122 13 126 26 q 103 0 118 0 l 1 0 q -16 7 -11 0 q -21 21 -21 14 q -15 35 -21 29 q 0 42 -8 42 l 65 42 q 61 71 61 56 q 88 137 61 110 q 153 164 114 164 q 218 137 192 164 q 244 71 244 110 q 240 42 244 56 l 306 42 q 319 35 315 42 q 326 21 326 31 q 322 7 326 14 q 304 0 317 0 l 203 0 z "},"\"":{"ha":521,"x_min":-21,"x_max":542,"o":"m 83 571 q 69 577 75 571 q 63 592 63 583 l 63 725 q 71 797 63 764 q 82 831 75 815 q 97 860 89 846 q 146 904 117 888 q 214 921 175 921 q 229 915 224 921 q 235 900 235 908 l 235 840 q 229 826 235 832 q 214 819 224 819 q 194 814 200 819 q 178 794 183 804 q 169 763 171 779 q 168 754 168 758 q 167 746 168 750 l 215 746 q 231 740 225 746 q 236 725 236 733 l 236 592 q 231 577 236 583 q 215 571 225 571 l 83 571 m 104 613 l 194 613 l 194 704 l 146 704 q 125 725 125 704 q 125 747 125 736 q 128 768 125 757 q 140 813 132 794 q 168 847 150 831 q 193 858 182 857 l 193 878 q 180 874 186 876 q 167 868 174 871 q 132 836 149 857 q 111 788 118 815 q 104 725 104 756 l 104 613 m 306 571 q 291 577 297 571 q 285 592 285 583 l 285 725 q 293 797 285 764 q 304 831 297 815 q 319 860 311 846 q 368 904 339 888 q 436 921 397 921 q 451 915 446 921 q 457 900 457 908 l 457 840 q 451 826 457 832 q 436 819 446 819 q 417 814 422 819 q 400 794 406 804 q 392 763 393 779 q 390 754 390 758 q 389 746 390 750 l 438 746 q 453 740 447 746 q 458 725 458 733 l 458 592 q 453 577 458 583 q 438 571 447 571 l 306 571 m 326 613 l 417 613 l 417 704 l 368 704 q 347 725 347 704 q 347 747 347 736 q 350 768 347 757 q 363 813 354 794 q 390 847 372 831 q 415 858 404 857 l 415 878 q 402 874 408 876 q 389 868 396 871 q 354 836 371 857 q 333 788 340 815 q 326 725 326 756 l 326 613 m 521 42 q 542 21 542 42 q 536 6 542 13 q 521 0 531 0 l 299 0 l 222 0 l 0 0 q -15 6 -8 0 q -21 21 -21 13 q -15 36 -21 31 q 0 42 -8 42 l 222 42 l 299 42 l 521 42 z "},"#":{"ha":747,"x_min":-21,"x_max":768,"o":"m 747 0 l 476 0 q 461 7 468 0 q 456 24 456 13 l 490 269 q 511 288 493 288 l 611 288 l 611 328 l 524 328 q 507 335 514 328 q 503 351 501 344 l 528 531 q 549 549 531 549 l 644 549 l 644 589 l 560 589 q 543 596 549 589 q 539 613 536 601 l 569 833 l 529 833 l 497 607 q 476 589 494 589 l 328 589 q 313 596 318 589 q 308 613 306 601 l 339 833 l 299 833 l 267 607 q 246 589 264 589 l 133 589 l 133 549 l 235 549 q 250 542 246 549 q 256 525 258 533 l 231 346 q 210 328 228 328 l 103 328 l 103 288 l 197 288 q 214 281 207 288 q 218 264 221 274 l 183 18 q 163 0 181 0 l 0 0 q -15 6 -8 0 q -21 21 -21 11 q -15 35 -21 29 q 0 42 -8 42 l 144 42 l 174 246 l 82 246 q 67 252 74 246 q 61 267 61 258 l 61 349 q 67 363 61 357 q 82 369 74 369 l 192 369 l 211 507 l 113 507 q 98 513 104 507 q 92 528 92 519 l 92 610 q 98 624 92 618 q 113 631 104 631 l 228 631 l 260 857 q 281 875 263 875 l 363 875 q 379 868 372 875 q 383 851 386 861 l 353 631 l 458 631 l 490 857 q 511 875 493 875 l 594 875 q 610 868 603 875 q 614 851 617 861 l 583 631 l 665 631 q 681 624 675 631 q 686 610 686 618 l 686 528 q 681 513 686 519 q 665 507 675 507 l 567 507 l 547 369 l 632 369 q 647 363 640 369 q 653 349 653 357 l 653 267 q 647 252 653 258 q 632 246 640 246 l 529 246 l 500 42 l 747 42 q 762 35 756 42 q 768 21 768 29 q 762 6 768 11 q 747 0 756 0 z "},"$":{"ha":764,"x_min":-21,"x_max":764,"o":"m 265 0 l 0 0 q -15 6 -8 0 q -21 21 -21 13 q -15 35 -21 29 q 0 42 -8 42 l 182 42 q 165 56 174 49 q 149 69 157 63 q 63 279 74 147 q 68 296 63 288 q 83 301 74 301 l 185 301 q 206 282 206 301 q 250 169 210 210 q 333 122 285 135 l 333 396 q 236 428 281 410 q 154 475 190 446 q 104 546 121 504 q 88 643 88 585 q 108 750 88 701 q 165 833 129 797 q 250 890 203 871 q 290 904 269 899 q 333 913 311 910 l 333 972 q 354 993 333 993 l 419 993 q 434 988 428 993 q 440 972 440 982 l 440 911 q 589 836 533 894 q 675 661 650 771 q 671 643 676 651 q 654 635 663 635 l 553 635 q 533 651 536 635 q 440 768 514 743 l 440 517 l 496 501 q 556 479 524 494 q 624 435 588 465 q 679 364 656 407 q 701 260 701 321 q 681 147 701 197 q 621 63 660 99 q 596 42 610 51 l 764 42 l 764 0 l 513 0 q 492 17 494 0 q 506 40 489 36 q 517 44 508 42 q 558 66 539 54 q 593 93 578 78 q 642 164 625 124 q 660 260 660 204 q 642 344 660 310 q 596 404 622 382 q 539 442 569 429 q 510 453 524 449 q 486 461 497 458 l 414 481 q 399 501 399 486 l 399 794 q 406 811 399 804 q 424 815 414 817 q 522 764 483 806 q 569 676 554 732 l 628 676 q 558 807 604 758 q 417 872 506 863 q 399 893 399 875 l 399 951 l 375 951 l 375 894 q 369 880 375 886 q 356 874 364 874 q 265 851 306 869 q 194 804 225 835 q 167 772 179 789 q 147 733 156 754 q 129 643 129 690 q 133 599 129 619 q 143 561 136 578 q 182 507 154 531 q 253 465 208 483 q 358 433 299 447 q 375 413 375 429 l 375 96 q 367 81 375 86 q 350 75 361 75 q 278 98 311 82 q 221 140 246 114 q 165 260 174 185 l 107 260 q 179 100 119 160 q 272 40 218 60 q 286 17 289 36 q 265 0 283 0 z "},"%":{"ha":1010,"x_min":-21,"x_max":1031,"o":"m 83 0 l 0 0 q -15 6 -8 0 q -21 21 -21 13 q -15 35 -21 29 q 0 42 -8 42 l 74 42 l 314 372 q 292 370 303 371 q 271 369 282 369 q 171 390 213 369 q 103 447 128 411 q 82 485 90 465 q 67 529 74 506 q 59 577 61 553 q 57 626 57 601 q 67 724 57 681 q 101 808 78 772 q 169 868 125 843 q 271 890 211 890 q 372 868 331 890 q 439 810 414 847 q 474 726 463 776 q 482 631 482 682 l 482 604 l 693 896 q 710 904 697 904 l 811 904 q 829 893 825 904 q 828 871 835 883 l 228 42 l 588 42 q 577 52 582 47 q 568 64 572 57 q 532 146 542 100 q 521 243 521 194 q 532 340 521 292 q 546 385 538 364 q 567 424 554 406 q 633 485 592 460 q 736 506 675 506 q 838 485 797 506 q 904 426 879 464 q 939 343 928 393 q 947 246 947 297 q 938 151 947 194 q 900 68 925 103 q 878 42 889 53 l 1010 42 q 1025 35 1019 42 q 1031 21 1031 29 q 1025 6 1031 13 q 1010 0 1019 0 l 810 0 q 790 17 793 0 q 803 40 786 33 q 814 46 808 42 q 867 92 846 63 q 896 161 888 121 q 906 246 906 200 q 897 335 906 293 q 869 403 889 376 q 818 447 851 431 q 736 464 786 464 q 654 447 685 464 q 601 401 619 431 q 572 331 581 369 q 565 289 568 311 q 563 243 563 267 q 565 198 563 219 q 572 156 568 176 q 603 89 583 115 q 654 44 621 63 q 665 40 657 43 q 678 17 681 33 q 657 0 674 0 l 188 0 q 181 1 183 0 q 175 4 178 1 q 169 11 171 8 q 167 19 167 17 q 168 26 167 25 q 171 33 168 31 l 771 863 l 719 863 l 463 507 q 460 504 463 504 q 453 499 458 501 q 448 498 450 499 q 443 499 446 497 q 436 500 439 499 q 431 504 433 501 q 426 513 426 508 q 425 521 425 515 q 426 525 425 524 q 429 537 428 532 q 432 544 431 542 q 440 631 440 586 q 432 718 440 676 q 422 755 428 738 q 404 786 415 772 q 354 832 385 815 q 271 849 321 849 q 189 831 222 849 q 136 785 154 814 q 107 715 115 754 q 99 626 99 674 q 107 539 99 581 q 119 503 113 519 q 138 471 126 486 q 189 428 157 443 q 271 411 222 411 q 349 428 317 411 q 356 432 353 431 q 361 436 358 433 q 365 439 364 439 q 374 440 368 440 q 383 439 381 440 q 386 437 385 438 q 389 435 388 436 q 391 432 390 433 q 393 429 392 431 q 394 419 394 426 q 393 411 394 414 q 392 409 392 410 q 390 407 392 408 l 101 8 q 83 0 94 0 z "},"&":{"ha":899,"x_min":-21,"x_max":919,"o":"m 246 0 l 0 0 q -15 6 -8 0 q -21 21 -21 13 q -15 35 -21 29 q 0 42 -8 42 l 158 42 q 134 63 144 51 q 114 85 124 74 q 72 169 83 124 q 65 207 68 190 q 63 239 63 224 q 67 291 63 267 q 81 336 72 315 q 128 410 97 376 q 158 441 142 426 q 194 468 175 456 q 223 487 208 478 q 253 504 238 496 l 232 533 q 215 556 224 544 q 200 581 207 568 q 176 635 185 608 q 168 699 168 661 q 182 772 168 739 q 224 835 196 807 q 292 879 253 864 q 381 894 331 894 q 464 883 422 894 q 538 846 507 871 q 589 785 571 822 q 608 699 608 746 q 594 621 608 654 q 577 586 588 603 q 556 554 567 569 q 529 526 543 539 q 500 501 515 513 q 481 487 490 494 q 460 472 471 479 l 574 333 q 589 425 588 382 q 595 439 589 433 q 610 444 601 444 l 706 444 q 721 438 717 444 q 726 421 728 431 q 724 385 725 401 q 719 356 722 369 q 714 327 717 340 q 707 303 711 314 q 690 256 700 276 q 683 238 688 247 q 674 217 678 228 l 824 42 l 899 42 q 913 35 907 42 q 919 21 919 29 q 913 6 919 13 q 899 0 907 0 l 815 0 q 799 7 806 0 l 633 200 q 629 222 625 208 q 642 249 636 236 q 653 272 647 261 q 661 293 657 283 q 668 314 665 303 q 673 337 671 325 q 678 361 675 349 q 681 381 679 371 q 683 403 682 392 l 629 403 q 619 343 626 372 q 601 283 613 314 q 585 271 596 271 q 565 278 574 268 l 411 465 q 407 482 406 475 q 417 496 410 490 q 447 515 432 506 q 475 535 461 524 q 522 581 500 554 q 556 636 542 604 q 567 699 567 667 q 551 765 567 739 q 511 814 539 792 q 453 843 486 832 q 381 853 419 853 q 307 840 338 853 q 277 825 290 833 q 253 806 264 817 q 221 757 231 783 q 210 699 210 726 q 217 646 210 671 q 236 601 222 624 q 250 579 243 590 q 265 557 257 568 q 283 533 274 546 q 300 510 292 521 q 304 493 304 504 q 293 479 303 483 q 255 457 274 468 q 218 435 236 446 q 185 410 200 424 q 158 382 171 397 q 119 319 135 356 q 104 239 104 285 q 113 178 104 215 q 147 110 122 142 q 221 53 172 76 q 235 47 228 50 q 251 40 243 43 q 265 18 268 36 q 246 0 263 0 z "},"'":{"ha":299,"x_min":-21,"x_max":319,"o":"m 215 571 l 83 571 q 69 577 75 571 q 63 592 63 583 l 63 725 q 71 797 63 764 q 82 831 75 815 q 97 860 89 846 q 146 904 117 888 q 215 921 175 921 q 230 915 224 921 q 236 900 236 908 l 236 840 q 230 826 236 832 q 215 819 224 819 q 194 814 200 819 q 178 794 183 804 q 169 763 171 779 q 168 754 168 758 q 167 746 168 750 l 215 746 q 231 740 225 746 q 236 725 236 733 l 236 592 q 231 577 236 583 q 215 571 225 571 m 104 613 l 194 613 l 194 704 l 146 704 q 125 725 125 704 q 125 747 125 736 q 128 768 125 757 q 142 813 132 796 q 168 847 151 833 q 194 858 182 857 l 194 878 q 180 874 186 876 q 167 868 174 871 q 132 836 149 857 q 111 788 118 815 q 104 725 104 756 l 104 613 m 299 0 l 0 0 q -15 6 -8 0 q -21 21 -21 13 q -15 36 -21 31 q 0 42 -8 42 l 299 42 q 319 21 319 42 q 314 6 319 13 q 299 0 308 0 z "},"(":{"ha":519,"x_min":-21,"x_max":540,"o":"m 438 -236 l 360 -236 q 342 -226 349 -236 l 339 -222 q 294 -151 317 -187 q 256 -81 272 -114 q 233 -31 240 -50 q 218 13 225 -11 q 217 14 218 14 q 211 33 214 24 q 206 53 208 43 q 169 343 169 190 q 178 490 169 418 q 206 631 186 561 q 247 752 221 692 q 310 875 274 813 l 281 875 q 204 753 236 817 q 149 622 172 689 q 103 343 103 482 q 115 197 103 265 q 153 60 128 126 q 158 45 156 53 q 164 28 161 38 q 163 8 169 17 q 144 0 156 0 l 0 0 q -15 6 -8 0 q -21 21 -21 13 q -15 35 -21 29 q 0 42 -8 42 l 115 42 q 114 44 114 43 q 113 46 114 44 q 75 189 88 114 q 65 264 68 225 q 61 343 61 303 q 110 635 61 486 q 169 776 133 708 q 253 908 206 844 q 269 917 261 917 l 347 917 q 365 906 361 917 q 365 883 372 894 q 246 619 282 751 q 211 343 211 490 q 219 199 211 269 q 246 63 228 129 q 251 47 249 56 q 256 29 253 38 l 257 28 q 272 -15 264 4 q 293 -62 279 -33 q 329 -128 308 -94 q 371 -194 350 -162 l 401 -194 q 307 14 339 -87 q 310 33 306 24 q 328 42 318 42 l 519 42 q 534 35 528 42 q 540 21 540 29 q 534 6 540 13 q 519 0 528 0 l 356 0 q 456 -204 393 -103 q 456 -225 463 -215 q 438 -236 451 -236 z "},")":{"ha":522,"x_min":-21,"x_max":543,"o":"m 160 -236 l 82 -236 q 64 -225 68 -236 q 64 -204 57 -215 q 121 -102 96 -153 q 164 0 146 -51 l 0 0 q -15 6 -10 0 q -21 21 -21 13 q -15 35 -21 29 q 0 42 -10 42 l 193 42 q 210 33 201 42 q 213 14 217 24 q 118 -194 181 -87 l 149 -194 q 191 -128 169 -162 q 228 -62 213 -93 q 249 -15 242 -33 q 264 28 257 4 l 265 29 q 270 47 268 38 q 275 63 272 56 q 311 343 311 199 q 275 619 311 486 q 227 751 257 685 q 156 883 197 817 q 154 906 149 896 q 172 917 161 917 l 251 917 q 268 908 260 917 q 413 635 365 781 q 461 343 461 486 q 458 264 461 303 q 447 189 454 225 q 431 117 440 153 q 408 46 421 81 q 408 44 408 44 q 407 42 407 43 l 522 42 q 537 35 531 42 q 543 21 543 29 q 537 6 543 13 q 522 0 531 0 l 376 0 q 360 8 365 0 q 357 28 353 19 q 369 60 364 44 q 407 197 394 126 q 419 343 419 265 q 408 482 419 413 q 372 622 396 551 q 240 875 328 758 l 210 875 q 273 752 246 813 q 315 631 300 692 q 353 343 353 493 q 315 53 353 188 q 310 33 313 43 q 304 14 307 24 l 303 13 q 288 -31 296 -11 q 265 -81 281 -50 q 226 -151 249 -114 q 181 -222 203 -187 l 178 -226 q 160 -236 171 -236 z "},"*":{"ha":822,"x_min":-21,"x_max":843,"o":"m 561 0 q 542 14 546 0 q 549 38 538 28 l 617 89 l 486 268 q 483 288 482 278 q 497 300 489 299 l 711 375 l 683 440 l 472 361 q 453 363 463 357 q 443 381 443 369 l 443 603 l 371 603 l 371 381 q 363 363 371 368 q 343 361 351 357 l 133 439 l 110 375 l 318 300 q 332 288 326 299 q 328 269 335 276 l 200 90 l 276 38 q 283 14 288 31 q 264 0 279 0 l 0 0 q -15 6 -10 0 q -21 21 -21 13 q -15 35 -21 29 q 0 42 -10 42 l 197 42 l 160 68 q 150 81 153 72 q 154 97 150 89 l 278 271 l 76 343 q 64 354 67 347 q 64 371 60 363 l 101 474 q 113 485 106 482 q 129 486 119 489 l 329 410 l 329 624 q 335 638 329 632 q 350 644 342 644 l 464 644 q 479 638 474 644 q 485 624 485 632 l 485 410 l 688 486 q 715 475 706 493 l 758 371 q 757 354 761 361 q 746 343 754 346 l 536 271 l 663 97 q 658 68 675 81 l 624 42 l 822 42 q 837 35 831 42 q 843 21 843 29 q 837 6 843 13 q 822 0 831 0 l 561 0 z "},"+":{"ha":768,"x_min":-21,"x_max":789,"o":"m 768 0 l 425 0 q 410 6 415 0 q 404 21 404 13 l 404 282 q 425 303 404 303 l 664 303 l 664 343 l 425 343 q 404 364 404 343 l 404 604 l 364 604 l 364 364 q 358 349 364 354 q 343 343 351 343 l 104 343 l 104 303 l 343 303 q 358 297 351 303 q 364 282 364 292 l 364 21 q 358 6 364 13 q 343 0 351 0 l 0 0 q -15 6 -10 0 q -21 21 -21 13 q -15 35 -21 29 q 0 42 -10 42 l 322 42 l 322 261 l 83 261 q 68 267 74 261 q 63 282 63 274 l 63 364 q 68 378 63 372 q 83 385 74 385 l 322 385 l 322 625 q 328 640 322 633 q 343 646 335 646 l 425 646 q 440 640 433 646 q 446 625 446 633 l 446 385 l 685 385 q 699 378 693 385 q 706 364 706 372 l 706 282 q 699 267 706 274 q 685 261 693 261 l 446 261 l 446 42 l 768 42 q 783 35 776 42 q 789 21 789 29 q 783 6 789 13 q 768 0 776 0 z "},",":{"ha":367,"x_min":-21,"x_max":388,"o":"m 367 42 q 381 35 375 42 q 388 21 388 29 q 381 6 388 13 q 367 0 375 0 l 304 0 q 271 -96 297 -57 q 158 -174 235 -153 q 153 -175 157 -175 q 140 -171 146 -175 q 132 -154 132 -165 l 132 -94 q 146 -75 132 -79 q 172 -58 161 -69 q 190 -33 183 -49 q 200 -7 197 -22 q 202 7 201 0 q 203 19 203 14 l 203 21 l 203 32 l 203 81 q 187 118 200 104 q 153 132 174 132 q 117 117 132 132 q 101 82 101 103 q 109 58 101 69 q 128 39 117 46 q 136 15 140 29 q 117 0 132 0 l 0 0 q -15 6 -8 0 q -21 21 -21 13 q -15 35 -21 29 q 0 42 -8 42 l 69 42 q 60 82 60 64 q 87 147 60 121 q 153 174 114 174 q 217 149 192 174 q 235 120 228 136 q 244 85 243 104 l 244 83 l 244 82 l 244 32 l 244 21 q 244 4 244 13 q 242 -14 243 -4 q 228 -53 238 -36 q 216 -72 222 -62 q 201 -87 210 -81 q 174 -108 192 -100 l 174 -125 q 236 -74 215 -106 q 264 22 263 -33 q 270 36 264 31 q 285 42 276 42 l 367 42 l 367 42 z "},"-":{"ha":513,"x_min":-21,"x_max":533,"o":"m 429 254 l 83 254 q 69 260 75 254 q 63 275 63 267 l 63 371 q 69 385 63 379 q 83 392 75 392 l 429 392 q 444 385 438 392 q 450 371 450 379 l 450 275 q 444 260 450 267 q 429 254 438 254 m 104 296 l 408 296 l 408 350 l 104 350 l 104 296 m 513 0 l 0 0 q -15 6 -8 0 q -21 21 -21 13 q -15 35 -21 29 q 0 42 -8 42 l 513 42 q 527 35 521 42 q 533 21 533 29 q 527 6 533 13 q 513 0 521 0 z "},".":{"ha":303,"x_min":-22,"x_max":325,"o":"m 201 0 q 182 13 189 0 q 188 36 176 28 q 201 72 201 50 q 187 108 201 93 q 151 122 172 122 q 116 108 131 122 q 101 72 101 93 q 117 36 101 51 q 121 13 125 26 q 101 0 115 0 l 0 0 q -17 7 -11 0 q -22 21 -22 14 q -15 36 -22 29 q -1 42 -10 42 l 64 42 q 60 72 60 56 q 87 137 60 110 q 151 164 114 164 q 217 137 190 164 q 243 72 243 110 q 239 42 243 56 l 304 42 q 319 36 314 42 q 325 21 325 31 q 320 7 325 14 q 303 0 315 0 l 201 0 z "},"/":{"ha":603,"x_min":-21,"x_max":624,"o":"m 603 0 l 168 0 q 150 8 156 0 q 149 28 144 18 l 490 893 l 449 893 l 100 13 q 82 0 94 0 l 0 0 q -15 6 -8 0 q -21 21 -21 13 q -15 35 -21 29 q 0 42 -8 42 l 67 42 l 415 922 q 435 935 419 935 l 522 935 q 539 926 532 935 q 540 907 546 918 l 199 42 l 603 42 q 617 35 611 42 q 624 21 624 29 q 617 6 624 13 q 603 0 611 0 z "},":":{"ha":303,"x_min":-22,"x_max":325,"o":"m 151 306 q 86 333 113 306 q 60 399 60 360 q 86 463 60 436 q 151 490 113 490 q 217 463 190 490 q 243 399 243 436 q 217 333 243 360 q 151 306 190 306 m 151 449 q 116 434 131 449 q 101 399 101 419 q 116 363 101 378 q 151 347 131 347 q 187 363 172 347 q 201 399 201 378 q 187 434 201 419 q 151 449 172 449 m 201 0 q 182 13 188 0 q 186 36 176 26 q 201 72 201 51 q 187 108 201 93 q 151 122 172 122 q 116 108 131 122 q 101 72 101 93 q 117 36 101 51 q 121 13 125 26 q 101 0 115 0 l 0 0 q -17 7 -12 0 q -22 21 -22 14 q -17 36 -22 28 q -1 42 -11 42 l 64 42 q 60 72 60 56 q 86 137 60 110 q 151 164 113 164 q 217 137 190 164 q 243 72 243 110 q 239 42 243 56 l 304 42 q 318 36 314 42 q 325 21 325 29 q 320 7 325 14 q 303 0 315 0 l 201 0 z "},";":{"ha":365,"x_min":-21,"x_max":386,"o":"m 365 42 l 285 42 q 270 36 276 42 q 264 22 264 31 q 236 -74 263 -33 q 174 -125 215 -106 l 174 -108 q 201 -87 188 -101 q 216 -72 210 -81 q 228 -53 222 -62 q 235 -34 232 -43 q 240 -14 239 -25 q 244 21 244 4 l 244 32 l 244 82 l 244 83 l 244 85 q 217 149 240 124 q 153 174 192 174 q 87 147 114 174 q 60 82 60 121 q 69 42 60 64 l 0 42 q -15 35 -10 42 q -21 21 -21 29 q -15 6 -21 13 q 0 0 -10 0 l 117 0 q 136 15 132 0 q 126 39 140 29 q 108 58 115 46 q 101 82 101 69 q 117 117 101 103 q 153 132 132 132 q 187 118 174 132 q 203 81 200 104 l 203 32 l 203 22 l 203 21 l 203 19 q 202 7 203 14 q 200 -7 201 0 q 190 -33 199 -18 q 172 -58 185 -46 q 146 -75 161 -69 q 132 -94 132 -79 l 132 -154 q 140 -171 132 -165 q 153 -175 146 -175 q 158 -174 157 -175 q 271 -96 235 -153 q 304 0 296 -57 l 365 0 q 381 6 375 0 q 386 21 386 13 q 381 35 386 29 q 365 42 375 42 m 153 306 q 88 333 114 306 q 61 399 61 360 q 88 463 61 436 q 153 490 114 490 q 218 463 192 490 q 244 399 244 436 q 218 333 244 360 q 153 306 192 306 m 153 449 q 117 434 132 449 q 103 399 103 419 q 117 363 103 378 q 153 347 132 347 q 188 363 174 347 q 203 399 203 378 q 188 434 203 419 q 153 449 174 449 z "},"<":{"ha":771,"x_min":-21,"x_max":792,"o":"m 511 0 l 0 0 q -15 6 -8 0 q -21 21 -21 13 q -15 35 -21 29 q 0 42 -8 42 l 415 42 l 72 196 q 60 214 60 201 l 60 289 q 72 308 60 301 l 681 583 q 700 582 690 588 q 710 564 710 575 l 710 482 q 697 464 710 468 l 231 251 l 693 42 l 771 42 q 785 35 779 42 q 792 21 792 29 q 785 6 792 13 q 771 0 779 0 l 689 0 q 681 1 683 0 l 172 233 q 160 251 160 238 q 172 271 160 264 l 668 496 l 668 532 l 101 275 l 101 228 l 519 39 q 532 17 535 35 q 511 0 528 0 z "},"=":{"ha":768,"x_min":-21,"x_max":789,"o":"m 768 0 l 685 0 q 670 6 676 0 q 664 21 664 13 l 664 93 l 104 93 l 104 21 q 98 6 104 13 q 83 0 92 0 l 0 0 q -15 6 -10 0 q -21 21 -21 13 q -15 35 -21 29 q 0 42 -10 42 l 63 42 l 63 114 q 68 128 63 122 q 83 135 74 135 l 685 135 q 699 128 693 135 q 706 114 706 122 l 706 42 l 768 42 q 783 35 776 42 q 789 21 789 29 q 783 6 789 13 q 768 0 776 0 m 685 276 l 83 276 q 68 283 74 276 q 63 297 63 289 l 63 390 q 68 405 63 399 q 83 411 74 411 l 685 411 q 699 405 693 411 q 706 390 706 399 l 706 297 q 699 283 706 289 q 685 276 693 276 m 104 318 l 664 318 l 664 369 l 104 369 l 104 318 z "},">":{"ha":772,"x_min":-21,"x_max":793,"o":"m 772 0 l 260 0 q 239 17 242 0 q 251 39 236 35 l 671 228 l 671 275 l 101 532 l 101 496 l 600 271 q 613 251 613 264 q 600 233 613 239 l 90 1 q 81 0 88 0 l 0 0 q -15 6 -10 0 q -21 21 -21 13 q -15 35 -21 29 q 0 42 -10 42 l 76 42 l 540 251 l 72 464 q 60 482 60 469 l 60 564 q 69 582 60 575 q 90 583 82 586 l 700 308 q 713 289 713 301 l 713 214 q 700 196 713 201 l 357 42 l 772 42 q 788 35 782 42 q 793 21 793 29 q 788 6 793 13 q 772 0 782 0 z "},"?":{"ha":682,"x_min":-22,"x_max":703,"o":"m 394 192 l 292 192 q 277 198 283 192 q 271 213 271 204 l 271 265 q 292 358 275 321 q 335 426 308 396 q 359 455 346 442 q 385 479 372 468 q 432 526 410 501 q 464 578 451 550 q 472 644 474 604 q 436 733 468 703 q 349 764 406 764 q 283 751 310 764 q 239 715 256 736 q 213 660 222 694 q 203 588 203 629 q 197 573 203 579 q 182 567 190 567 l 81 567 q 66 573 72 567 q 60 588 60 579 q 78 708 58 649 q 136 807 99 765 q 228 872 175 850 q 349 896 283 896 q 458 878 410 896 q 544 828 507 861 q 601 746 579 797 q 622 636 622 697 q 619 597 622 615 q 613 563 617 579 q 586 506 601 528 q 570 480 579 492 q 551 457 561 468 q 533 438 542 447 q 513 418 524 428 l 513 417 q 494 399 503 408 q 475 381 485 390 q 459 363 467 372 q 444 344 451 354 q 422 304 432 328 q 415 256 415 279 l 415 213 q 409 198 415 204 q 394 192 403 192 m 313 233 l 374 233 l 374 256 q 383 318 374 290 q 410 368 394 347 q 426 390 418 379 q 446 410 435 400 l 483 447 q 502 466 493 457 q 521 486 511 475 q 537 506 529 496 q 551 526 544 515 q 572 575 565 551 q 581 636 581 601 q 563 729 581 692 q 517 797 546 768 q 444 839 485 825 q 349 854 399 854 q 244 835 292 854 q 167 779 196 813 q 118 694 135 743 q 101 608 104 656 l 163 608 q 165 640 163 625 q 172 671 168 656 q 206 740 183 711 q 265 788 231 771 q 349 806 300 806 q 465 763 422 806 q 514 647 510 721 l 514 646 q 501 561 517 597 q 463 499 486 526 q 439 473 451 486 q 414 449 426 460 q 390 425 401 438 q 367 400 378 413 q 347 372 356 388 q 329 342 338 357 q 318 307 322 326 q 313 264 314 288 l 313 233 m 393 0 q 374 13 378 0 q 378 35 368 25 q 393 71 393 50 q 378 107 393 92 q 343 122 364 122 q 307 107 322 122 q 292 71 292 92 q 307 35 292 50 q 313 13 317 26 q 293 0 306 0 l 0 0 q -17 7 -11 0 q -22 21 -22 14 q -15 35 -22 31 q -1 42 -11 42 l 256 42 q 251 56 253 49 q 250 71 250 64 q 277 137 250 110 q 343 164 304 164 q 408 137 381 164 q 435 71 435 110 q 429 42 435 54 l 682 42 q 697 35 690 42 q 703 21 703 31 q 698 7 703 14 q 682 0 693 0 l 393 0 z "},"@":{"ha":1026,"x_min":-21,"x_max":1047,"o":"m 396 0 l 0 0 q -15 6 -8 0 q -21 21 -21 11 q -15 35 -21 29 q 0 42 -8 42 l 296 42 q 196 117 239 72 q 97 265 132 179 q 69 355 78 308 q 61 451 61 401 q 97 632 61 547 q 197 781 133 715 q 266 837 229 813 q 346 879 303 861 q 525 917 429 917 q 689 888 611 917 q 825 807 768 857 q 918 685 885 756 q 953 526 953 615 q 924 376 953 444 q 890 314 908 343 q 849 261 872 285 q 753 186 804 213 q 736 185 744 182 q 725 196 728 188 q 724 211 721 203 q 733 224 726 219 q 818 289 781 247 q 885 393 857 332 q 911 526 911 451 q 881 667 911 606 q 799 776 851 731 q 675 849 744 822 q 602 868 639 861 q 525 875 565 875 q 361 842 438 875 q 290 802 324 825 q 228 750 256 779 q 136 615 171 694 q 103 451 103 540 q 135 282 103 361 q 226 146 167 206 q 361 56 283 89 q 382 47 372 51 q 403 40 392 43 q 417 18 419 36 q 396 0 414 0 m 1026 0 l 703 0 q 682 18 685 0 q 697 40 679 35 q 776 74 739 53 q 821 103 800 88 q 861 136 842 118 q 907 190 886 161 l 879 190 q 749 86 828 126 q 647 54 701 63 q 553 46 592 46 q 467 53 515 46 q 382 76 418 60 q 257 161 310 108 q 172 288 203 214 q 142 446 142 364 q 171 601 142 528 q 206 670 186 638 q 253 731 226 703 q 375 818 306 785 q 526 850 447 850 q 656 828 594 850 q 765 763 717 804 q 843 657 815 717 q 872 521 872 596 q 856 418 872 468 q 814 325 838 363 q 786 285 800 303 q 756 254 772 268 q 726 257 742 242 q 722 272 721 264 q 729 286 722 281 q 755 313 743 297 q 778 346 767 328 q 815 431 801 383 q 831 521 831 479 q 824 583 831 553 q 806 640 817 613 q 738 731 781 692 q 640 789 697 767 q 526 808 585 808 q 392 781 456 808 q 283 701 329 751 q 210 586 236 650 q 190 517 197 553 q 183 446 183 482 q 211 304 183 371 q 244 242 225 271 q 288 190 264 214 q 399 114 333 144 q 474 94 431 100 q 553 88 518 88 q 640 96 590 88 q 729 124 690 104 q 853 224 806 161 q 869 232 858 232 l 946 232 q 964 221 957 232 q 964 200 968 211 q 890 107 932 146 q 804 42 850 68 l 1026 42 q 1041 35 1035 42 q 1047 21 1047 29 q 1041 6 1047 11 q 1026 0 1035 0 m 436 169 q 311 215 358 169 q 261 333 261 263 q 311 454 261 413 q 433 506 356 494 l 564 522 q 580 527 576 524 q 585 533 583 531 l 585 535 q 589 557 589 539 q 582 586 589 576 q 568 600 575 596 q 494 615 542 615 q 419 589 440 615 q 404 542 408 574 q 383 524 401 524 l 307 524 q 293 529 299 524 q 286 544 286 536 q 354 688 290 646 q 496 726 415 726 q 646 690 586 726 q 710 571 710 653 l 710 290 l 710 283 q 711 282 710 282 q 715 281 711 281 q 722 282 718 281 q 728 286 725 283 q 743 292 735 293 q 758 285 751 292 q 764 269 764 278 q 757 256 764 261 q 735 242 746 246 q 717 239 724 239 q 676 258 689 239 q 668 290 668 271 l 668 571 q 625 656 668 629 q 496 685 576 685 q 376 653 429 685 q 329 565 338 628 l 367 565 q 388 614 372 594 q 494 657 418 657 q 590 635 556 657 q 617 608 604 626 q 631 557 631 589 q 622 515 631 532 q 605 494 617 504 q 568 481 593 483 l 438 464 q 338 424 374 456 q 303 333 303 393 q 339 246 303 282 q 436 211 375 211 q 529 232 488 211 q 594 283 571 254 q 617 292 603 294 q 632 274 629 288 q 638 250 635 258 q 643 238 640 242 q 658 221 650 226 q 683 213 665 215 q 697 213 690 213 q 710 214 703 213 q 719 217 715 215 q 735 224 722 218 q 750 224 742 228 q 763 214 758 221 q 763 197 765 206 q 751 186 760 189 q 733 178 739 179 q 719 174 728 176 q 699 170 708 171 q 678 172 689 169 q 607 214 631 178 q 603 222 604 218 q 600 229 603 225 q 549 196 581 213 q 436 169 497 169 z "},"A":{"ha":925,"x_min":-21,"x_max":946,"o":"m 925 0 l 844 0 q 824 14 831 0 l 519 854 l 418 854 l 101 14 q 82 0 97 0 l 0 0 q -15 6 -8 0 q -21 21 -21 13 q -15 36 -21 31 q 0 42 -8 42 l 68 42 l 383 882 q 404 896 390 896 l 535 896 q 554 882 547 896 l 858 42 l 925 42 q 940 36 933 42 q 946 21 946 31 q 940 6 946 13 q 925 0 933 0 z "},"B":{"ha":835,"x_min":-21,"x_max":856,"o":"m 835 0 l 494 0 q 480 6 486 0 q 474 21 474 13 q 480 36 474 31 q 494 42 486 42 q 597 61 551 42 q 639 83 621 71 q 672 111 657 96 q 699 145 688 126 q 718 183 710 164 q 733 267 733 225 q 696 388 733 339 q 588 451 658 436 q 571 472 571 456 l 571 475 q 583 494 571 490 q 668 560 638 515 q 697 667 697 603 q 671 764 697 725 q 607 826 647 803 q 567 842 589 838 q 511 850 542 847 q 450 854 482 854 l 392 854 l 103 854 l 103 21 q 97 6 103 13 q 82 0 90 0 l 0 0 q -15 6 -8 0 q -21 21 -21 13 q -15 36 -21 31 q 0 42 -8 42 l 61 42 l 61 875 q 82 896 61 896 l 392 896 l 451 896 q 515 892 483 896 q 576 883 547 890 q 628 863 608 874 q 706 786 674 836 q 739 667 739 738 q 703 538 739 593 q 676 505 692 519 q 643 478 661 490 q 729 413 696 457 q 775 267 775 354 q 757 168 775 219 q 703 83 738 118 q 651 42 679 60 l 835 42 q 856 21 856 42 q 850 6 856 13 q 835 0 844 0 z "},"C":{"ha":926,"x_min":-21,"x_max":947,"o":"m 926 0 l 613 0 q 592 18 594 0 q 606 42 589 35 q 719 107 674 63 q 822 322 801 182 l 751 322 q 729 238 744 275 q 676 153 711 190 q 593 96 643 118 q 542 81 569 85 q 486 76 515 76 q 344 107 401 76 q 247 190 285 138 q 214 247 228 217 q 192 311 200 276 q 178 381 182 344 q 174 454 174 417 q 192 589 174 526 q 214 651 200 622 q 247 707 228 681 q 343 790 285 758 q 485 821 403 821 q 651 772 579 821 q 740 639 718 725 l 813 639 q 779 728 803 688 q 707 808 750 776 q 660 838 685 825 q 607 858 635 850 q 486 875 549 875 q 321 842 392 875 q 200 751 249 808 q 128 615 154 694 q 108 533 115 575 q 101 446 101 490 q 125 278 101 357 q 155 205 138 239 q 196 143 172 171 q 311 56 242 88 q 328 48 319 51 q 347 42 338 44 q 359 32 354 39 q 361 18 364 25 q 342 0 358 0 l 0 0 q -15 6 -10 0 q -21 21 -21 13 q 0 42 -21 42 l 249 42 q 163 117 201 71 q 86 265 111 182 q 67 352 74 307 q 60 446 60 397 q 88 628 60 540 q 122 708 101 671 q 168 778 142 746 q 303 879 221 840 q 486 917 382 917 q 618 899 558 917 q 678 874 650 888 q 731 842 707 861 q 814 749 783 804 q 858 621 849 693 q 853 604 858 611 q 838 597 846 597 l 724 597 q 703 614 707 597 q 628 738 686 696 q 485 779 567 779 q 363 753 411 779 q 281 682 314 728 q 232 578 246 635 q 215 454 215 519 q 232 321 215 383 q 281 215 247 260 q 364 144 311 169 q 486 118 413 118 q 578 135 538 118 q 646 181 617 151 q 692 253 675 213 q 704 297 700 274 q 711 344 708 319 q 732 364 714 364 l 846 364 q 861 357 854 364 q 867 342 867 351 q 749 76 847 171 q 706 42 729 58 l 926 42 q 947 21 947 42 q 942 6 947 13 q 926 0 936 0 z "},"D":{"ha":865,"x_min":-21,"x_max":886,"o":"m 865 0 l 374 0 q 359 6 365 0 q 353 21 353 13 q 359 36 353 31 q 374 42 365 42 q 551 71 476 42 q 671 151 621 97 q 740 283 718 207 q 764 469 764 367 q 664 760 764 665 q 374 854 563 854 l 101 854 l 101 21 q 95 6 101 13 q 81 0 89 0 l 0 0 q -15 6 -10 0 q -21 21 -21 13 q 0 42 -21 42 l 60 42 l 60 875 q 66 890 60 885 q 81 896 72 896 l 374 896 q 692 790 582 896 q 778 656 749 738 q 806 469 806 572 q 781 272 806 357 q 701 124 756 183 q 590 42 657 74 l 865 42 q 886 21 886 42 q 881 6 886 13 q 865 0 875 0 z "},"E":{"ha":756,"x_min":-21,"x_max":776,"o":"m 756 0 l 675 0 q 660 6 665 0 q 654 21 654 13 l 654 96 l 194 96 q 180 102 186 96 q 174 117 174 108 l 174 413 q 180 427 174 421 q 194 433 186 433 l 618 433 l 618 488 l 194 488 q 180 494 186 488 q 174 508 174 500 l 174 779 q 180 794 174 789 q 194 800 186 800 l 650 800 l 650 854 l 101 854 l 101 21 q 96 6 101 13 q 81 0 90 0 l 0 0 q -15 6 -10 0 q -21 21 -21 13 q 0 42 -21 42 l 60 42 l 60 875 q 66 890 60 885 q 81 896 72 896 l 671 896 q 685 890 679 896 q 692 875 692 885 l 692 779 q 685 765 692 771 q 671 758 679 758 l 215 758 l 215 529 l 639 529 q 653 523 647 529 q 660 508 660 517 l 660 413 q 653 398 660 404 q 639 392 647 392 l 215 392 l 215 138 l 675 138 q 690 132 683 138 q 696 117 696 126 l 696 42 l 756 42 q 770 36 764 42 q 776 21 776 31 q 770 6 776 13 q 756 0 764 0 z "},"F":{"ha":724,"x_min":-21,"x_max":744,"o":"m 724 0 l 194 0 q 180 6 186 0 q 174 21 174 13 l 174 413 q 180 427 174 421 q 194 433 186 433 l 567 433 l 567 488 l 194 488 q 180 494 186 488 q 174 508 174 500 l 174 779 q 180 794 174 789 q 194 800 186 800 l 621 800 l 621 854 l 101 854 l 101 21 q 95 6 101 13 q 81 0 89 0 l 0 0 q -15 6 -10 0 q -21 21 -21 13 q 0 42 -21 42 l 60 42 l 60 875 q 66 890 60 885 q 81 896 72 896 l 642 896 q 656 890 650 896 q 663 875 663 885 l 663 779 q 656 765 663 771 q 642 758 650 758 l 215 758 l 215 529 l 588 529 q 602 523 596 529 q 608 508 608 517 l 608 413 q 602 398 608 404 q 588 392 596 392 l 215 392 l 215 42 l 724 42 q 738 36 732 42 q 744 21 744 31 q 738 6 744 13 q 724 0 732 0 z "},"G":{"ha":944,"x_min":-21,"x_max":965,"o":"m 358 0 l 0 0 q -15 6 -10 0 q -21 21 -21 13 q 0 42 -21 42 l 264 42 q 172 119 210 76 q 89 264 118 182 q 60 432 60 343 q 67 526 60 481 q 86 615 74 571 q 167 771 113 703 q 300 876 219 836 q 488 917 383 917 q 624 900 558 917 q 740 846 692 882 q 828 751 794 807 q 875 615 863 697 q 871 599 878 606 q 856 592 864 592 l 742 592 q 721 608 724 592 q 710 651 717 632 q 693 686 703 669 q 642 738 672 717 q 572 768 614 757 q 532 777 553 775 q 488 779 511 779 q 364 751 417 779 q 317 717 339 736 q 281 675 296 699 q 232 565 246 625 q 215 438 215 504 q 219 375 215 406 q 233 315 224 344 q 286 213 253 256 q 324 174 303 190 q 371 143 346 157 q 488 118 421 118 q 547 122 519 118 q 599 138 575 126 q 642 161 622 147 q 678 192 661 175 q 726 272 710 225 q 737 313 733 292 q 740 354 740 333 l 489 354 q 474 360 481 354 q 468 375 468 367 l 468 471 q 474 486 468 481 q 489 492 481 492 l 864 492 q 878 486 872 492 q 885 471 885 481 l 885 42 l 944 42 q 959 36 953 42 q 965 21 965 31 q 959 6 965 13 q 944 0 953 0 l 864 0 q 849 6 854 0 q 843 21 843 13 l 843 450 l 510 450 l 510 396 l 761 396 q 776 390 769 396 q 782 376 782 385 q 780 315 785 344 q 765 258 775 286 q 708 163 747 206 q 665 126 689 143 q 614 99 642 110 q 488 76 561 76 q 351 107 408 76 q 298 142 322 122 q 253 188 274 163 q 193 303 214 240 q 174 438 174 369 q 178 508 174 474 q 192 576 182 543 q 246 699 208 647 q 344 788 285 754 q 488 821 404 821 q 583 808 538 821 q 665 772 629 799 q 728 708 701 749 q 758 633 747 676 l 829 633 q 792 731 819 689 q 758 775 776 754 q 717 813 739 796 q 614 860 668 846 q 552 871 583 867 q 488 875 521 875 q 319 839 392 875 q 200 744 246 803 q 126 603 153 686 q 101 432 101 524 q 128 278 101 354 q 204 146 156 200 q 325 57 253 90 q 344 48 335 51 q 364 42 354 44 q 378 18 381 35 q 358 0 375 0 z "},"H":{"ha":839,"x_min":-21,"x_max":860,"o":"m 839 0 l 758 0 q 744 6 750 0 q 738 21 738 13 l 738 854 l 665 854 l 665 508 q 659 494 665 500 q 644 488 653 488 l 194 488 q 180 494 186 488 q 174 508 174 500 l 174 854 l 101 854 l 101 21 q 96 6 101 13 q 81 0 90 0 l 0 0 q -15 6 -10 0 q -21 21 -21 13 q 0 42 -21 42 l 60 42 l 60 875 q 66 890 60 885 q 81 896 72 896 l 194 896 q 209 890 203 896 q 215 875 215 885 l 215 529 l 624 529 l 624 875 q 630 890 624 885 q 644 896 636 896 l 758 896 q 773 890 767 896 q 779 875 779 885 l 779 42 l 839 42 q 860 21 860 42 q 854 6 860 13 q 839 0 849 0 z "},"I":{"ha":276,"x_min":-21,"x_max":297,"o":"m 276 0 l 196 0 q 181 6 188 0 q 175 21 175 13 l 175 854 l 103 854 l 103 21 q 97 6 103 13 q 82 0 90 0 l 0 0 q -15 6 -8 0 q -21 21 -21 13 q -15 36 -21 31 q 0 42 -8 42 l 61 42 l 61 875 q 67 890 61 885 q 82 896 74 896 l 196 896 q 210 890 204 896 q 217 875 217 885 l 217 42 l 276 42 q 297 21 297 42 q 292 6 297 13 q 276 0 286 0 z "},"J":{"ha":664,"x_min":-21,"x_max":685,"o":"m 215 0 l 0 0 q -15 6 -8 0 q -21 21 -21 13 q -15 36 -21 31 q 0 42 -8 42 l 140 42 l 132 50 q 60 250 60 119 l 60 303 q 66 317 60 311 q 81 324 72 324 l 194 324 q 210 317 204 324 q 215 303 215 311 l 215 267 q 217 233 215 249 q 221 203 218 218 q 239 156 228 172 q 272 128 253 138 q 332 118 293 118 q 422 150 399 118 q 449 251 449 189 l 449 875 q 469 896 449 896 l 582 896 q 603 875 603 896 l 603 235 q 590 143 603 189 q 543 61 575 94 q 535 51 539 56 q 525 42 531 47 l 664 42 q 678 36 672 42 q 685 21 685 31 q 678 6 685 13 q 664 0 672 0 l 449 0 q 428 17 432 0 q 431 31 426 24 q 442 40 435 38 q 513 89 488 60 q 550 156 539 118 q 559 195 557 175 q 561 235 561 215 l 561 854 l 490 854 l 490 251 q 457 126 490 174 q 332 76 421 76 q 256 90 283 76 q 204 133 225 104 q 181 194 186 160 q 176 229 178 211 q 174 267 174 247 l 174 282 l 101 282 l 101 250 q 160 81 101 139 q 222 40 185 56 q 235 18 240 35 q 215 0 232 0 z "},"K":{"ha":871,"x_min":-21,"x_max":892,"o":"m 871 0 l 789 0 q 772 8 778 0 l 399 518 q 394 533 393 525 q 400 546 394 540 l 724 854 l 636 854 l 210 435 q 186 431 197 425 q 174 450 174 436 l 174 854 l 101 854 l 101 21 q 96 6 101 13 q 81 0 90 0 l 0 0 q -15 6 -10 0 q -21 21 -21 13 q -15 35 -21 29 q 0 42 -10 42 l 60 42 l 60 875 q 66 890 60 885 q 81 896 72 896 l 194 896 q 209 890 203 896 q 215 875 215 885 l 215 499 l 613 890 q 628 896 618 896 l 775 896 q 794 883 790 896 q 789 860 799 869 l 443 528 l 800 42 l 871 42 q 885 35 879 42 q 892 21 892 29 q 885 6 892 13 q 871 0 879 0 z "},"L":{"ha":729,"x_min":-21,"x_max":750,"o":"m 729 0 l 649 0 q 633 6 639 0 q 628 21 628 13 l 628 96 l 196 96 q 181 102 188 96 q 175 117 175 108 l 175 854 l 103 854 l 103 21 q 97 6 103 13 q 82 0 90 0 l 0 0 q -15 6 -8 0 q -21 21 -21 13 q -15 35 -21 29 q 0 42 -8 42 l 61 42 l 61 875 q 67 890 61 885 q 82 896 74 896 l 196 896 q 210 890 204 896 q 217 875 217 885 l 217 138 l 649 138 q 663 131 657 138 q 669 117 669 125 l 669 42 l 729 42 q 744 35 738 42 q 750 21 750 29 q 744 6 750 13 q 729 0 738 0 z "},"M":{"ha":1013,"x_min":-21,"x_max":1033,"o":"m 1013 0 l 932 0 q 917 6 922 0 q 911 21 911 13 l 911 854 l 790 854 l 525 150 q 506 136 521 136 q 486 150 490 136 l 222 854 l 101 854 l 101 21 q 95 6 101 13 q 81 0 89 0 l 0 0 q -15 6 -10 0 q -21 21 -21 13 q -15 35 -21 29 q 0 42 -10 42 l 60 42 l 60 875 q 66 890 60 885 q 81 896 72 896 l 236 896 q 256 883 250 896 l 506 217 l 757 883 q 776 896 763 896 l 932 896 q 947 890 940 896 q 953 875 953 885 l 953 42 l 1013 42 q 1028 35 1022 42 q 1033 21 1033 29 q 1028 6 1033 13 q 1013 0 1022 0 z "},"N":{"ha":843,"x_min":-21,"x_max":864,"o":"m 843 0 l 763 0 q 748 6 754 0 q 742 21 742 13 l 742 854 l 675 854 l 675 182 q 669 167 675 174 q 654 161 664 161 l 653 161 q 635 171 642 161 l 192 854 l 103 854 l 103 21 q 97 6 103 13 q 82 0 90 0 l 0 0 q -15 6 -8 0 q -21 21 -21 13 q -15 35 -21 29 q 0 42 -8 42 l 61 42 l 61 875 q 82 896 61 896 l 203 896 q 219 886 214 896 l 633 249 l 633 875 q 640 890 633 885 q 654 896 646 896 l 763 896 q 777 890 771 896 q 783 875 783 885 l 783 42 l 843 42 q 858 35 853 42 q 864 21 864 29 q 858 6 864 13 q 843 0 853 0 z "},"O":{"ha":982,"x_min":-21,"x_max":1003,"o":"m 982 0 l 625 0 q 604 18 607 0 q 619 40 601 35 l 661 57 q 782 150 733 93 q 854 286 832 211 q 879 449 879 363 q 854 610 879 532 q 782 746 832 685 q 660 840 731 806 q 492 875 586 875 q 322 840 396 875 q 201 746 250 806 q 128 610 154 690 q 103 449 103 532 q 128 286 103 363 q 158 213 140 247 q 201 150 176 179 q 322 57 249 93 q 364 40 340 49 q 378 18 381 36 q 357 0 375 0 l 0 0 q -15 6 -8 0 q -21 21 -21 13 q -15 35 -21 29 q 0 42 -8 42 l 263 42 q 169 124 211 74 q 88 274 115 189 q 61 449 61 354 q 88 622 61 542 q 169 772 114 707 q 230 832 196 806 q 304 878 264 858 q 492 917 386 917 q 679 878 594 917 q 814 772 761 836 q 894 622 867 708 q 921 449 921 542 q 894 274 921 354 q 861 194 881 232 q 814 124 842 156 q 719 42 774 75 l 982 42 q 997 35 990 42 q 1003 21 1003 29 q 997 6 1003 13 q 982 0 990 0 z "},"P":{"ha":800,"x_min":-21,"x_max":821,"o":"m 800 0 l 196 0 q 181 6 188 0 q 175 21 175 11 l 175 369 q 181 384 175 378 q 196 390 188 390 l 457 390 q 638 450 578 390 q 697 622 697 510 q 638 793 697 733 q 457 854 576 854 l 103 854 l 103 21 q 97 6 103 11 q 82 0 90 0 l 0 0 q -15 6 -8 0 q -21 21 -21 11 q -15 35 -21 29 q 0 42 -8 42 l 61 42 l 61 875 q 67 890 61 883 q 82 896 74 896 l 457 896 q 667 822 596 896 q 739 622 739 751 q 667 421 739 493 q 461 349 594 349 l 457 349 l 217 349 l 217 42 l 800 42 q 815 35 808 42 q 821 21 821 29 q 815 6 821 11 q 800 0 808 0 z "},"Q":{"ha":981,"x_min":-21,"x_max":1001,"o":"m 981 0 l 881 0 q 868 4 874 0 l 757 92 q 749 107 751 96 q 756 122 749 115 q 847 268 815 182 q 878 447 878 350 q 854 610 878 528 q 781 746 829 685 q 726 798 757 775 q 660 839 696 821 q 490 874 589 874 q 321 839 392 874 q 200 746 247 803 q 157 681 175 715 q 126 610 139 647 q 101 447 101 531 q 126 286 101 363 q 157 213 139 247 q 200 150 175 179 q 321 57 250 89 q 363 40 339 46 q 376 17 379 36 q 356 0 374 0 l 0 0 q -21 21 -21 0 q -15 35 -21 29 q 0 42 -10 42 l 263 42 q 211 78 235 58 q 168 124 188 99 q 86 274 113 189 q 67 359 74 315 q 60 447 60 403 q 67 536 60 492 q 86 622 74 581 q 168 772 113 704 q 303 876 222 838 q 490 915 382 915 q 678 876 599 915 q 813 772 760 836 q 893 622 865 707 q 913 536 907 581 q 919 447 919 492 q 886 254 919 346 q 801 110 857 175 l 888 42 l 981 42 q 995 35 989 42 q 1001 21 1001 29 q 995 6 1001 11 q 981 0 989 0 z "},"R":{"ha":854,"x_min":-21,"x_max":875,"o":"m 854 0 l 774 0 q 757 7 764 0 q 726 64 736 32 q 719 94 722 79 q 713 126 715 110 q 708 158 710 142 q 706 192 707 175 q 705 223 706 207 q 703 254 704 239 q 698 283 700 269 q 693 311 696 297 q 685 335 690 324 q 675 357 681 346 q 643 390 661 379 q 592 411 625 404 q 574 432 574 417 l 574 435 q 589 454 574 449 q 690 525 658 472 q 722 651 722 581 q 661 799 722 746 q 483 854 597 854 l 103 854 l 103 21 q 97 6 103 11 q 82 0 90 0 l 0 0 q -15 6 -8 0 q -21 21 -21 11 q -15 35 -21 29 q 0 42 -8 42 l 61 42 l 61 875 q 67 890 61 883 q 82 896 74 896 l 483 896 q 689 831 613 896 q 764 651 764 764 q 726 504 764 567 q 651 435 699 460 q 660 430 656 432 q 668 425 664 428 q 711 378 693 408 q 733 321 724 356 q 739 290 736 306 q 744 258 742 274 l 744 257 q 747 226 746 242 q 747 193 747 210 q 749 163 749 178 q 753 132 750 147 q 759 103 756 117 q 767 76 763 90 q 783 42 774 56 l 854 42 q 869 35 864 42 q 875 21 875 29 q 854 0 875 0 z "},"S":{"ha":850,"x_min":-21,"x_max":871,"o":"m 850 0 l 572 0 q 551 17 554 0 q 567 40 549 35 q 649 76 610 53 q 719 149 693 106 q 747 254 747 193 q 726 350 747 313 q 671 413 707 386 q 588 453 632 439 q 540 468 564 461 q 490 481 515 475 q 439 492 464 488 q 390 503 414 497 q 342 515 365 508 q 299 529 319 522 q 229 575 256 549 q 200 653 200 604 q 219 733 200 699 q 269 786 238 764 q 301 802 285 796 q 338 813 318 808 q 375 818 357 817 q 413 819 393 819 q 571 775 507 819 q 643 646 628 732 l 710 646 q 686 738 706 696 q 625 814 667 782 q 533 860 589 844 q 418 874 483 874 q 308 860 360 874 q 215 817 256 844 q 153 746 175 789 q 128 644 128 704 q 149 558 128 592 q 204 501 169 524 q 288 464 242 478 q 386 439 333 450 q 434 428 410 433 q 485 417 458 422 q 578 388 535 404 q 647 336 622 365 q 675 251 675 301 q 653 164 675 196 q 596 110 632 129 q 519 82 564 90 q 478 77 499 79 q 438 75 457 75 q 339 88 386 75 q 253 128 292 100 q 192 199 217 154 q 176 237 182 217 q 169 281 171 257 l 103 281 q 110 224 104 250 q 128 176 117 199 q 199 90 156 124 q 300 40 242 57 q 315 17 318 35 q 294 0 313 0 l 0 0 q -15 6 -8 0 q -21 21 -21 11 q -15 35 -21 29 q 0 42 -8 42 l 196 42 q 174 57 183 49 q 90 157 121 96 q 61 301 61 219 q 67 316 61 310 q 82 322 72 322 l 189 322 q 203 316 197 322 q 210 301 210 310 q 228 218 210 257 q 278 161 247 183 q 350 128 307 139 q 438 117 394 117 q 474 118 457 117 q 511 124 492 119 q 575 146 547 131 q 618 186 603 161 q 633 251 633 213 q 615 310 633 288 q 560 349 592 335 q 521 363 542 357 q 476 375 500 369 q 424 387 449 382 q 376 397 400 392 q 325 410 350 404 q 275 425 300 417 q 182 467 224 439 q 143 498 160 481 q 113 536 126 515 q 86 644 86 582 q 115 767 86 714 q 192 851 144 818 q 242 880 215 868 q 297 900 268 892 q 418 915 358 915 q 544 900 483 915 q 651 847 604 883 q 724 756 700 808 q 753 625 751 699 q 747 610 753 615 q 732 604 742 604 l 625 604 q 604 622 607 604 q 546 742 596 704 q 413 778 493 778 q 379 776 396 778 q 346 772 363 775 q 317 763 331 768 q 292 750 303 757 q 256 713 269 736 q 242 653 242 688 q 260 604 242 621 q 314 568 278 583 q 399 543 350 554 q 449 533 424 539 q 500 521 474 528 q 601 493 549 511 q 651 473 628 485 q 694 446 674 461 q 733 412 717 431 q 763 371 750 393 q 789 254 789 324 q 756 126 789 181 q 671 42 724 78 l 669 42 l 850 42 q 865 35 858 42 q 871 21 871 29 q 865 6 871 11 q 850 0 858 0 z "},"T":{"ha":846,"x_min":-21,"x_max":867,"o":"m 846 0 l 479 0 q 465 6 471 0 q 458 21 458 11 l 458 779 q 465 794 458 788 q 479 800 471 800 l 744 800 l 744 854 l 103 854 l 103 800 l 367 800 q 381 794 375 800 q 388 779 388 788 l 388 21 q 381 6 388 11 q 367 0 375 0 l 0 0 q -15 6 -8 0 q -21 21 -21 11 q -15 35 -21 29 q 0 42 -8 42 l 346 42 l 346 758 l 82 758 q 61 779 61 758 l 61 875 q 67 890 61 883 q 82 896 72 896 l 765 896 q 780 890 774 896 q 786 875 786 883 l 786 779 q 780 764 786 769 q 765 758 774 758 l 500 758 l 500 42 l 846 42 q 860 35 854 42 q 867 21 867 29 q 860 6 867 11 q 846 0 854 0 z "},"U":{"ha":850,"x_min":-21,"x_max":871,"o":"m 850 0 l 571 0 q 550 17 553 0 q 564 40 547 36 q 667 99 625 60 q 747 329 747 174 l 747 854 l 675 854 l 675 329 q 613 140 675 204 q 432 75 550 75 q 242 140 310 75 q 175 329 175 204 l 175 854 l 103 854 l 103 329 q 188 96 103 167 q 293 40 231 60 q 307 17 310 36 q 286 0 304 0 l 0 0 q -15 6 -8 0 q -21 21 -21 11 q -15 35 -21 29 q 0 42 -8 42 l 192 42 q 161 64 175 53 q 61 329 61 147 l 61 875 q 67 890 61 883 q 82 896 72 896 l 196 896 q 210 890 204 896 q 217 875 217 883 l 217 329 q 271 169 217 224 q 432 117 326 117 q 583 169 531 117 q 633 329 633 221 l 633 875 q 640 890 633 883 q 654 896 646 896 l 768 896 q 783 890 776 896 q 789 875 789 883 l 789 329 q 696 68 789 157 q 679 54 688 61 q 663 42 671 47 l 850 42 q 865 35 858 42 q 871 21 871 29 q 865 6 871 11 q 850 0 858 0 z "},"V":{"ha":896,"x_min":-21,"x_max":917,"o":"m 896 0 l 511 0 q 493 8 499 0 q 490 28 489 18 l 785 854 l 711 854 l 469 128 q 450 113 464 113 l 447 113 q 428 128 433 113 l 188 854 l 111 854 l 401 28 q 399 8 404 15 q 382 0 392 0 l 0 0 q -21 21 -21 0 q -15 35 -21 29 q 0 42 -10 42 l 351 42 l 61 868 q 64 886 58 879 q 81 896 71 896 l 203 896 q 222 881 217 896 l 449 196 l 676 881 q 696 896 681 896 l 814 896 q 832 886 825 896 q 835 868 836 876 l 540 42 l 896 42 q 910 35 904 42 q 917 21 917 29 q 910 6 917 11 q 896 0 904 0 z "},"W":{"ha":1242,"x_min":-21,"x_max":1263,"o":"m 1242 0 l 932 0 q 915 7 922 0 q 911 25 908 15 l 1133 854 l 1063 854 l 893 158 q 874 143 890 143 l 871 143 q 851 158 854 143 l 665 854 l 575 854 l 388 158 q 367 143 383 143 l 365 143 q 344 158 350 143 l 181 854 l 108 854 l 321 25 q 317 7 324 15 q 300 0 310 0 l 0 0 q -15 6 -8 0 q -21 21 -21 11 q -15 35 -21 29 q 0 42 -8 42 l 274 42 l 61 869 q 65 888 58 879 q 81 896 71 896 l 197 896 q 218 879 214 896 l 367 244 l 539 881 q 558 896 542 896 l 682 896 q 701 879 699 896 l 871 243 l 1026 879 q 1047 896 1031 896 l 1161 896 q 1176 888 1171 896 q 1181 869 1183 879 l 960 42 l 1242 42 q 1256 35 1250 42 q 1263 21 1263 29 q 1256 6 1263 11 q 1242 0 1250 0 z "},"X":{"ha":894,"x_min":-21,"x_max":915,"o":"m 894 0 l 814 0 q 796 8 801 0 l 496 447 q 496 471 489 458 l 757 854 l 681 854 l 464 529 q 446 519 457 519 q 429 529 433 519 l 222 854 l 136 854 l 396 471 q 396 447 403 458 l 99 8 q 82 0 92 0 l 0 0 q -15 6 -8 0 q -21 21 -21 11 q -15 35 -21 29 q 0 42 -8 42 l 71 42 l 353 460 l 79 863 q 79 885 72 874 q 97 896 83 896 l 233 896 q 251 886 244 896 l 447 579 l 651 886 q 669 896 658 896 l 796 896 q 814 885 810 896 q 813 863 819 875 l 539 460 l 825 42 l 894 42 q 910 35 904 42 q 915 21 915 29 q 894 0 915 0 z "},"Y":{"ha":933,"x_min":-21,"x_max":954,"o":"m 933 0 l 526 0 q 511 6 517 0 q 506 21 506 13 l 506 371 q 508 382 506 379 l 814 854 l 735 854 l 490 458 q 474 449 486 449 q 456 458 461 449 l 206 854 l 121 854 l 429 382 q 433 371 433 378 l 433 21 q 427 6 433 13 q 413 0 421 0 l 0 0 q -15 6 -8 0 q -21 21 -21 13 q -15 36 -21 31 q 0 42 -8 42 l 392 42 l 392 364 l 64 864 q 64 886 57 875 q 82 896 68 896 l 217 896 q 235 886 229 896 l 474 508 l 706 886 q 724 896 711 896 l 853 896 q 871 886 864 896 q 869 864 876 876 l 547 364 l 547 42 l 933 42 q 954 21 954 42 q 949 6 954 13 q 933 0 943 0 z "},"Z":{"ha":842,"x_min":-21,"x_max":863,"o":"m 842 0 l 760 0 q 745 6 751 0 q 739 21 739 13 l 739 96 l 215 96 q 197 108 203 96 q 200 131 190 119 l 725 788 l 725 854 l 142 854 l 142 801 l 613 801 q 631 789 625 801 q 628 767 638 778 l 101 110 l 101 21 q 95 6 101 13 q 81 0 89 0 l 0 0 q -15 6 -10 0 q -21 21 -21 13 q 0 42 -21 42 l 60 42 l 60 117 q 64 131 60 124 l 568 760 l 121 760 q 106 765 113 760 q 100 781 100 771 l 100 875 q 106 890 100 885 q 121 896 113 896 l 746 896 q 760 890 754 896 q 767 875 767 885 l 767 781 q 763 767 767 772 l 260 138 l 760 138 q 781 117 781 138 l 781 42 l 842 42 q 856 36 850 42 q 863 21 863 31 q 856 6 863 13 q 842 0 850 0 z "},"[":{"ha":482,"x_min":-21,"x_max":503,"o":"m 401 -236 l 178 -236 q 163 -230 168 -236 q 157 -215 157 -224 l 157 814 q 163 829 157 824 q 178 835 171 835 l 285 835 l 285 875 l 103 875 l 103 21 q 97 6 103 13 q 82 0 90 0 l 0 0 q -15 6 -8 0 q -21 21 -21 13 q -15 35 -21 29 q 0 42 -8 42 l 61 42 l 61 896 q 67 910 61 904 q 82 917 72 917 l 306 917 q 320 910 314 917 q 326 896 326 904 l 326 814 q 320 799 326 806 q 306 793 314 793 l 199 793 l 199 -194 l 381 -194 l 381 -154 l 274 -154 q 253 -133 253 -154 l 253 21 q 258 35 253 29 q 274 42 264 42 l 482 42 q 497 35 492 42 q 503 21 503 29 q 497 6 503 13 q 482 0 492 0 l 294 0 l 294 -112 l 401 -112 q 416 -119 410 -112 q 422 -133 422 -125 l 422 -215 q 416 -230 422 -224 q 401 -236 410 -236 z "},"\\":{"ha":603,"x_min":-21,"x_max":624,"o":"m 603 0 l 522 0 q 503 13 508 0 l 154 893 l 113 893 l 454 28 q 451 8 458 19 q 435 0 444 0 l 0 0 q -15 6 -8 0 q -21 21 -21 13 q -15 35 -21 29 q 0 42 -8 42 l 404 42 l 63 907 q 64 926 58 915 q 82 935 69 935 l 168 935 q 188 922 181 935 l 536 42 l 603 42 q 618 35 613 42 q 624 21 624 29 q 618 6 624 13 q 603 0 613 0 z "},"]":{"ha":482,"x_min":-21,"x_max":503,"o":"m 306 -236 l 82 -236 q 67 -230 72 -236 q 61 -215 61 -224 l 61 -133 q 67 -119 61 -125 q 82 -112 72 -112 l 189 -112 l 189 0 l 0 0 q -15 6 -8 0 q -21 21 -21 13 q -15 35 -21 29 q 0 42 -8 42 l 210 42 q 224 35 218 42 q 231 21 231 29 l 231 -133 q 224 -149 231 -143 q 210 -154 218 -154 l 103 -154 l 103 -194 l 285 -194 l 285 793 l 178 793 q 163 799 168 793 q 157 814 157 806 l 157 896 q 163 910 157 904 q 178 917 168 917 l 401 917 q 416 910 410 917 q 422 896 422 904 l 422 42 l 482 42 q 497 35 490 42 q 503 21 503 29 q 497 6 503 13 q 482 0 490 0 l 401 0 q 386 6 392 0 q 381 21 381 13 l 381 875 l 199 875 l 199 835 l 306 835 q 319 829 314 835 q 326 814 326 822 l 326 -215 q 320 -230 326 -224 q 306 -236 314 -236 z "},"^":{"ha":628,"x_min":-21,"x_max":649,"o":"m 628 0 l 544 0 q 525 13 529 0 l 314 478 l 101 13 q 83 0 97 0 l 0 0 q -15 6 -10 0 q -21 21 -21 13 q -15 35 -21 29 q 0 42 -10 42 l 69 42 l 294 538 q 314 549 299 549 q 332 538 328 549 l 557 42 l 628 42 q 642 35 636 42 q 649 21 649 29 q 642 6 649 13 q 628 0 636 0 z "},"_":{"ha":761,"x_min":-21,"x_max":782,"o":"m 681 -82 l 82 -82 q 67 -76 74 -82 q 61 -61 61 -69 l 61 0 l 0 0 q -15 6 -8 0 q -21 21 -21 13 q -15 35 -21 29 q 0 42 -8 42 l 82 42 q 97 35 90 42 q 103 21 103 29 l 103 -40 l 660 -40 l 660 21 q 665 35 660 29 q 681 42 671 42 l 761 42 q 776 35 771 42 q 782 21 782 29 q 776 6 782 13 q 761 0 771 0 l 701 0 l 701 -61 q 695 -76 701 -69 q 681 -82 689 -82 z "},"`":{"ha":399,"x_min":-21,"x_max":419,"o":"m 315 918 l 239 918 q 224 924 229 918 l 68 1094 q 64 1118 60 1106 q 83 1131 71 1131 l 213 1131 q 231 1119 224 1131 l 333 949 q 333 928 340 939 q 315 918 328 918 m 249 960 l 278 960 l 201 1089 l 131 1089 l 249 960 m 399 0 l 0 0 q -15 6 -8 0 q -21 21 -21 13 q -15 35 -21 29 q 0 42 -8 42 l 399 42 q 413 35 407 42 q 419 21 419 29 q 413 6 419 13 q 399 0 407 0 z "},"a":{"ha":751,"x_min":-21,"x_max":772,"o":"m 751 0 l 669 0 q 655 6 661 0 q 649 21 649 13 l 649 72 l 638 71 q 613 74 622 69 q 599 82 604 78 q 583 112 585 94 q 581 142 581 129 l 581 451 l 581 486 q 577 527 581 501 q 550 576 574 553 q 364 638 490 635 q 171 571 232 640 q 146 522 153 550 q 136 474 139 493 l 193 474 q 251 568 206 539 q 298 588 275 583 q 339 590 321 592 l 351 590 q 419 585 383 590 q 482 557 454 581 q 519 486 513 531 q 506 410 524 444 q 455 378 493 386 q 354 365 417 371 q 285 358 318 363 q 229 346 253 354 q 140 292 174 326 q 103 183 107 257 q 113 120 100 147 q 143 75 126 93 q 175 49 160 57 q 190 40 190 40 q 201 17 204 33 q 181 0 197 0 l 0 0 q -15 6 -8 0 q -21 21 -21 13 q -15 36 -21 31 q 0 42 -8 42 l 118 42 q 114 47 115 44 q 61 185 56 108 q 110 319 65 268 q 153 356 128 340 q 214 385 178 371 q 278 399 242 394 q 350 407 314 404 q 394 412 374 410 q 433 417 415 414 q 463 425 453 421 q 468 429 467 428 q 478 478 479 450 q 454 525 476 506 q 406 546 435 543 q 350 549 378 549 l 338 549 q 303 545 321 549 q 272 531 286 542 q 246 501 257 521 q 232 451 235 482 q 226 438 232 443 q 211 432 219 432 l 114 432 q 99 438 107 432 q 93 453 93 446 q 94 470 93 454 q 99 508 94 486 q 114 554 104 529 q 140 599 124 579 q 365 679 214 683 q 579 606 513 675 q 617 539 611 574 q 622 486 622 504 l 622 451 l 622 142 q 623 126 622 136 q 626 114 624 117 q 633 113 628 113 l 668 117 q 685 111 678 117 q 690 96 690 106 l 690 42 l 751 42 q 766 36 760 42 q 772 21 772 31 q 766 6 772 13 q 751 0 760 0 z "},"b":{"ha":750,"x_min":-21,"x_max":771,"o":"m 750 0 l 479 0 q 458 18 461 0 q 472 42 456 35 q 487 47 479 44 q 501 51 494 49 q 582 115 553 78 q 631 210 617 156 q 647 329 647 265 q 631 447 647 390 q 581 544 613 504 q 500 610 550 583 q 383 633 449 633 q 274 611 322 633 q 204 547 228 593 q 186 535 199 535 l 183 535 q 169 541 175 535 q 163 556 163 547 l 163 854 l 103 854 l 103 21 q 97 6 103 13 q 82 0 90 0 l 0 0 q -15 6 -8 0 q -21 21 -21 13 q -15 36 -21 31 q 0 42 -8 42 l 61 42 l 61 875 q 67 890 61 885 q 82 896 74 896 l 183 896 q 204 875 204 896 l 204 617 q 257 650 226 638 q 383 675 315 675 q 518 647 458 675 q 614 569 574 618 q 647 518 633 546 q 671 460 660 490 q 689 329 689 400 q 671 199 689 257 q 647 140 661 167 q 614 89 633 113 q 591 64 603 75 q 565 42 579 53 l 750 42 q 765 36 758 42 q 771 21 771 31 q 765 6 771 13 q 750 0 758 0 z "},"c":{"ha":726,"x_min":-21,"x_max":747,"o":"m 726 0 l 469 0 q 450 18 453 0 q 464 42 447 38 q 544 86 510 54 q 619 226 600 136 l 558 226 q 503 121 544 160 q 371 76 454 76 q 278 97 317 76 q 214 156 238 121 q 179 233 193 186 q 172 278 174 256 q 169 322 169 300 q 179 418 169 375 q 193 463 185 442 q 214 501 201 483 q 281 563 240 540 q 382 585 321 585 q 499 549 454 585 q 551 463 536 515 l 617 463 q 608 497 614 481 q 594 526 601 513 q 542 586 572 564 q 467 622 508 610 q 374 633 422 633 q 254 610 308 633 q 171 544 206 588 q 141 499 154 524 q 119 447 128 475 q 103 322 103 389 q 121 201 103 254 q 171 110 138 147 q 254 50 203 71 l 279 42 q 294 18 297 36 q 274 0 292 0 l 0 0 q -15 6 -8 0 q -21 21 -21 13 q -15 36 -21 31 q 0 42 -8 42 l 183 42 q 161 61 172 51 q 140 82 150 71 q 81 189 103 124 q 61 322 61 251 q 81 458 61 393 q 139 571 99 522 q 238 647 178 621 q 374 675 297 675 q 478 661 432 675 q 567 619 526 649 q 602 587 586 604 q 631 547 618 569 q 661 443 654 506 q 657 428 663 436 q 640 421 650 421 l 536 421 q 515 438 518 421 q 472 517 506 488 q 382 543 440 543 q 300 526 333 543 q 272 506 285 517 q 249 479 258 494 q 219 408 228 447 q 211 322 211 367 q 219 244 211 282 q 249 178 229 207 q 297 135 268 149 q 371 118 328 118 q 474 151 438 118 q 519 250 511 185 q 540 268 522 268 l 644 268 q 660 261 653 268 q 665 244 665 256 q 572 56 646 121 q 557 42 568 50 l 726 42 q 741 36 735 42 q 747 21 747 31 q 741 6 747 13 q 726 0 735 0 z "},"d":{"ha":750,"x_min":-21,"x_max":771,"o":"m 275 0 l 0 0 q -15 6 -8 0 q -21 21 -21 13 q -15 36 -21 31 q 0 42 -8 42 l 189 42 q 136 92 158 67 q 81 201 100 139 q 61 332 61 267 q 79 463 61 404 q 136 572 99 526 q 232 647 174 619 q 364 675 290 675 q 390 674 376 675 q 419 669 404 672 q 479 653 447 665 q 535 619 511 639 q 540 615 538 617 q 546 611 543 614 l 546 875 q 552 890 546 885 q 567 896 558 896 l 668 896 q 683 890 676 896 q 689 875 689 885 l 689 42 l 750 42 q 765 36 758 42 q 771 21 771 31 q 765 6 771 13 q 750 0 758 0 l 668 0 q 653 6 660 0 q 647 21 647 13 l 647 854 l 588 854 l 588 557 q 581 542 588 549 q 567 536 575 536 l 564 536 q 546 546 553 536 q 530 569 539 558 q 510 586 521 579 q 487 602 499 596 q 463 614 475 608 q 413 629 435 625 q 364 633 385 633 q 250 610 300 633 q 168 546 200 588 q 140 503 151 526 q 119 451 128 479 q 103 332 103 394 q 119 214 103 269 q 169 118 136 160 q 251 53 201 78 q 281 42 264 46 q 292 32 288 39 q 294 18 297 25 q 275 0 292 0 z "},"e":{"ha":735,"x_min":-21,"x_max":756,"o":"m 735 0 l 475 0 q 454 18 457 0 q 457 32 453 25 q 468 42 461 39 q 540 78 507 51 q 617 197 596 118 l 558 197 q 500 110 542 139 q 382 76 454 76 q 286 94 326 76 q 218 144 246 113 q 179 217 193 174 q 170 257 172 236 q 168 300 168 278 q 189 321 171 321 l 632 321 q 629 367 632 344 q 622 414 626 390 q 579 522 610 474 q 544 567 564 546 q 499 603 524 588 q 372 633 450 633 q 264 611 313 633 q 179 550 215 590 q 122 454 143 507 q 103 333 103 399 q 122 208 104 267 q 174 113 138 154 q 258 51 211 71 q 272 47 265 49 q 285 42 278 44 q 300 18 303 36 q 279 0 297 0 l 0 0 q -15 6 -8 0 q -21 21 -21 13 q -15 36 -21 31 q 0 42 -8 42 l 190 42 q 165 63 176 51 q 143 86 154 74 q 83 196 103 131 q 61 332 64 256 q 83 469 61 408 q 149 578 107 532 q 247 649 190 624 q 307 669 275 663 q 372 675 339 675 q 521 638 460 675 q 573 596 550 619 q 614 544 596 572 q 663 422 650 486 q 674 299 675 354 q 653 279 671 279 l 210 279 q 219 229 213 250 q 250 172 228 197 q 303 132 271 147 q 382 118 335 118 q 475 143 439 118 q 522 222 510 168 q 542 239 525 239 l 643 239 q 658 231 654 239 q 664 214 664 225 q 565 44 640 101 q 563 42 565 44 l 735 42 q 749 36 743 42 q 756 21 756 31 q 749 6 756 13 q 735 0 743 0 z "},"f":{"ha":504,"x_min":-21,"x_max":525,"o":"m 504 0 l 288 0 q 272 6 278 0 q 267 21 267 13 l 267 550 q 272 565 267 558 q 288 571 278 571 l 386 571 l 386 619 l 288 619 q 267 640 267 619 l 267 726 q 296 799 267 778 q 365 817 322 817 q 380 816 372 817 q 396 814 388 815 l 401 814 l 401 860 q 394 861 399 861 q 386 863 390 861 q 371 864 378 864 q 357 864 364 864 q 243 831 281 864 q 206 732 206 797 l 206 640 q 185 619 206 619 l 101 619 l 101 571 l 185 571 q 200 565 194 571 q 206 550 206 558 l 206 21 q 200 6 206 13 q 185 0 194 0 l 0 0 q -15 6 -8 0 q -21 21 -21 13 q -15 36 -21 31 q 0 42 -8 42 l 164 42 l 164 529 l 81 529 q 66 535 72 529 q 60 550 60 542 l 60 640 q 66 655 60 649 q 81 661 72 661 l 164 661 l 164 732 q 215 863 164 815 q 357 906 264 906 q 372 906 364 906 q 392 903 381 906 q 412 900 403 901 q 429 896 421 899 q 443 875 443 892 l 443 788 q 435 769 443 775 q 415 768 424 764 q 404 771 410 769 q 392 774 399 772 q 378 774 385 774 q 365 775 371 775 q 319 764 335 775 q 310 748 313 758 q 308 726 308 738 l 308 661 l 407 661 q 422 655 415 661 q 428 640 428 649 l 428 550 q 422 535 428 542 q 407 529 415 529 l 308 529 l 308 42 l 504 42 q 519 36 513 42 q 525 21 525 31 q 519 6 525 13 q 504 0 513 0 z "},"g":{"ha":826,"x_min":-21,"x_max":847,"o":"m 460 -250 q 413 -247 436 -250 q 367 -240 390 -244 q 321 -226 343 -235 q 279 -206 299 -217 q 213 -143 239 -183 q 183 -47 186 -106 q 189 -32 182 -39 q 204 -26 194 -26 l 306 -26 q 326 -46 324 -26 q 339 -81 326 -67 q 353 -94 346 -87 q 372 -106 361 -101 q 393 -116 382 -112 q 417 -122 404 -119 q 465 -126 442 -126 q 542 -111 508 -126 q 592 -69 571 -97 q 621 -4 610 -43 l 621 -1 q 625 22 625 11 l 626 24 q 628 48 628 35 q 628 74 628 61 l 628 619 l 574 619 l 574 551 q 567 537 574 543 q 553 531 561 531 l 551 531 q 533 542 540 531 q 465 610 508 588 q 368 633 421 633 q 243 606 294 633 q 161 533 189 575 q 117 436 129 488 q 103 328 103 382 q 119 214 103 265 q 139 163 126 186 q 167 121 151 140 q 246 60 201 82 q 299 42 269 47 q 315 19 318 38 q 294 0 313 0 l 0 0 q -15 6 -8 0 q -21 21 -21 13 q -15 36 -21 31 q 0 42 -8 42 l 193 42 q 135 94 161 64 q 79 201 99 139 q 65 263 69 231 q 61 328 61 294 q 65 385 61 356 q 76 446 68 415 q 126 558 92 510 q 169 605 146 583 q 222 642 193 626 q 368 675 282 675 q 485 647 432 675 q 532 613 511 632 l 532 640 q 538 655 532 649 q 553 661 544 661 l 649 661 q 663 655 657 661 q 669 640 669 649 l 669 74 q 669 48 669 61 q 668 21 669 35 q 667 19 668 19 q 665 3 667 10 q 663 -11 664 -4 l 661 -14 q 625 -94 650 -60 q 560 -149 600 -129 q 465 -168 518 -168 q 408 -162 436 -168 q 353 -143 379 -157 q 307 -107 324 -128 q 288 -68 292 -90 l 226 -68 q 247 -119 233 -99 q 301 -171 267 -150 q 376 -199 336 -190 q 460 -208 415 -208 q 663 -139 597 -208 q 724 24 713 -85 q 744 42 726 42 l 826 42 q 841 36 835 42 q 847 21 847 31 q 841 6 847 13 q 826 0 835 0 l 763 0 q 693 -168 750 -104 q 460 -250 618 -250 z "},"h":{"ha":675,"x_min":-21,"x_max":696,"o":"m 675 0 l 594 0 q 579 6 585 0 q 574 21 574 13 l 574 428 q 571 474 574 451 q 564 515 568 496 q 533 578 556 549 q 475 618 510 604 q 381 633 436 633 q 328 628 354 633 q 302 621 315 625 q 276 611 289 617 q 233 582 250 597 q 206 540 215 564 q 186 528 199 528 l 183 528 q 169 534 175 528 q 163 549 163 540 l 163 854 l 103 854 l 103 21 q 97 6 103 13 q 82 0 90 0 l 0 0 q -15 6 -8 0 q -21 21 -21 13 q -15 36 -21 31 q 0 42 -8 42 l 61 42 l 61 875 q 67 890 61 885 q 82 896 74 896 l 183 896 q 204 875 204 896 l 204 613 l 206 613 q 260 649 226 633 q 290 660 275 656 q 319 668 304 665 q 381 675 354 675 q 490 657 449 675 q 564 604 536 638 q 604 525 594 569 q 615 428 615 478 l 615 42 l 675 42 q 696 21 696 42 q 690 6 696 13 q 675 0 685 0 z "},"i":{"ha":265,"x_min":-21,"x_max":286,"o":"m 265 0 l 183 0 q 169 6 175 0 q 163 21 163 13 l 163 621 l 103 621 l 103 21 q 97 6 103 13 q 82 0 90 0 l 0 0 q -15 6 -8 0 q -21 21 -21 13 q -15 36 -21 31 q 0 42 -8 42 l 61 42 l 61 642 q 67 657 61 651 q 82 663 74 663 l 183 663 q 204 642 204 663 l 204 42 l 265 42 q 280 36 274 42 q 286 21 286 31 q 280 6 286 13 q 265 0 274 0 m 133 658 q 67 685 94 658 q 40 750 40 713 q 67 815 40 789 q 133 842 94 842 q 198 815 171 842 q 225 750 225 789 q 198 685 225 713 q 133 658 171 658 m 133 800 q 97 785 113 800 q 82 750 82 771 q 97 715 82 729 q 133 700 113 700 q 169 715 154 700 q 183 750 183 729 q 169 785 183 771 q 133 800 154 800 z "},"j":{"ha":367,"x_min":-21,"x_max":388,"o":"m 136 -235 q 81 -231 107 -235 q 64 -210 64 -226 l 64 -122 q 72 -106 64 -112 q 89 -101 82 -100 q 94 -103 92 -103 q 99 -104 96 -103 l 104 -104 l 126 -104 q 142 -103 133 -104 q 154 -94 150 -101 q 160 -80 157 -92 q 163 -40 163 -68 l 163 621 l 103 621 l 103 21 q 97 6 103 13 q 82 0 90 0 l 0 0 q -15 6 -8 0 q -21 21 -21 13 q -15 36 -21 31 q 0 42 -8 42 l 61 42 l 61 642 q 82 663 61 663 l 183 663 q 198 657 192 663 q 204 642 204 651 l 204 -40 q 189 -118 204 -92 q 126 -146 169 -146 l 106 -146 l 106 -192 q 121 -193 113 -193 q 136 -193 129 -193 q 231 -161 197 -193 q 264 -57 264 -131 l 264 21 q 270 36 264 31 q 285 42 276 42 l 367 42 q 381 36 375 42 q 388 21 388 31 q 381 6 388 13 q 367 0 375 0 l 306 0 l 306 -57 q 260 -192 306 -149 q 136 -235 213 -235 m 132 664 q 67 691 94 664 q 40 756 40 718 q 67 821 40 794 q 132 847 94 847 q 198 821 171 847 q 225 756 225 794 q 198 691 225 718 q 132 664 171 664 m 132 806 q 97 791 111 806 q 82 756 82 776 q 97 720 82 735 q 132 706 111 706 q 168 720 153 706 q 183 756 183 735 q 168 791 183 776 q 132 806 153 806 z "},"k":{"ha":701,"x_min":-21,"x_max":722,"o":"m 701 0 l 619 0 q 603 10 607 0 l 339 403 q 343 431 328 418 l 549 619 l 474 619 l 197 354 q 175 350 188 344 q 163 369 163 354 l 163 854 l 103 854 l 103 21 q 97 6 103 13 q 82 0 90 0 l 0 0 q -15 6 -8 0 q -21 21 -21 13 q -15 35 -21 29 q 0 42 -8 42 l 61 42 l 61 875 q 82 896 61 896 l 183 896 q 198 890 192 896 q 204 875 204 885 l 204 418 l 451 654 q 465 661 456 661 l 601 661 q 621 647 617 661 q 615 624 625 633 l 383 411 l 631 42 l 701 42 q 716 35 710 42 q 722 21 722 29 q 716 6 722 13 q 701 0 710 0 z "},"l":{"ha":265,"x_min":-21,"x_max":286,"o":"m 265 0 l 183 0 q 169 6 175 0 q 163 21 163 13 l 163 854 l 103 854 l 103 21 q 97 6 103 13 q 82 0 90 0 l 0 0 q -15 6 -8 0 q -21 21 -21 13 q -15 35 -21 29 q 0 42 -8 42 l 61 42 l 61 875 q 82 896 61 896 l 183 896 q 198 890 192 896 q 204 875 204 885 l 204 42 l 265 42 q 280 35 274 42 q 286 21 286 29 q 280 6 286 13 q 265 0 274 0 z "},"m":{"ha":1031,"x_min":-21,"x_max":1051,"o":"m 569 538 l 561 214 l 531 214 l 532 539 q 475 611 515 592 q 379 633 432 633 q 197 538 265 633 q 181 528 190 528 l 178 528 q 163 534 169 528 q 157 549 157 540 l 157 619 l 103 619 l 103 21 q 97 6 103 13 q 82 0 90 0 l 0 0 q -15 6 -8 0 q -21 21 -21 13 q -15 35 -21 29 q 0 42 -8 42 l 61 42 l 61 640 q 67 655 61 649 q 82 661 74 661 l 178 661 q 192 655 186 661 q 199 640 199 649 l 199 604 q 379 675 269 675 q 493 649 440 675 q 528 624 513 639 q 554 590 543 610 q 622 644 583 624 q 743 675 675 675 q 833 664 792 675 q 906 628 872 654 q 933 601 921 617 q 953 565 944 585 q 969 475 969 525 l 969 42 l 1031 42 q 1045 35 1039 42 q 1051 21 1051 29 q 1045 6 1051 13 q 1031 0 1039 0 l 949 0 q 934 6 940 0 q 928 21 928 13 l 928 475 q 915 549 928 517 q 879 596 904 576 q 822 624 856 615 q 743 633 789 633 q 642 608 688 633 q 569 538 600 586 z "},"n":{"ha":675,"x_min":-21,"x_max":696,"o":"m 675 0 l 594 0 q 579 6 585 0 q 574 21 574 13 l 574 428 q 571 473 574 451 q 564 514 568 494 q 552 549 560 533 q 533 578 544 564 q 475 618 510 604 q 381 633 436 633 q 199 532 257 633 q 181 521 192 521 l 178 521 q 163 527 169 521 q 157 542 157 533 l 157 619 l 103 619 l 103 21 q 97 6 103 13 q 82 0 90 0 l 0 0 q -15 6 -8 0 q -21 21 -21 13 q -15 35 -21 29 q 0 42 -8 42 l 61 42 l 61 640 q 67 655 61 649 q 82 661 74 661 l 178 661 q 192 655 186 661 q 199 640 199 649 l 199 603 q 381 675 267 675 q 441 670 414 675 q 490 657 468 665 q 565 604 535 639 q 604 525 594 568 q 615 428 615 478 l 615 42 l 675 42 q 690 35 685 42 q 696 21 696 29 q 690 6 696 13 q 675 0 685 0 z "},"o":{"ha":764,"x_min":-21,"x_max":785,"o":"m 283 0 l 0 0 q -15 6 -8 0 q -21 21 -21 13 q -15 35 -21 29 q 0 42 -8 42 l 193 42 q 165 63 178 53 q 142 88 153 74 q 81 196 101 135 q 60 329 60 258 q 81 464 60 401 q 142 574 101 528 q 244 647 183 622 q 382 675 304 675 q 519 647 460 675 q 621 574 578 624 q 682 464 663 528 q 703 329 703 401 q 682 196 703 258 q 621 88 664 135 q 597 63 610 74 q 571 42 585 53 l 764 42 q 778 35 772 42 q 785 21 785 29 q 778 6 785 13 q 764 0 772 0 l 481 0 q 460 18 463 0 q 474 42 457 35 q 503 51 493 46 q 589 114 556 75 q 643 210 624 156 q 661 329 661 263 q 643 451 661 397 q 589 546 624 507 q 503 610 557 586 q 382 633 449 633 q 261 610 315 633 q 174 546 208 586 q 121 451 138 506 q 101 329 101 393 q 106 267 101 297 q 119 210 111 238 q 174 114 138 156 q 261 51 208 74 q 275 47 268 49 q 289 42 282 44 q 304 18 307 35 q 283 0 301 0 z "},"p":{"ha":851,"x_min":-21,"x_max":872,"o":"m 183 -236 l 82 -236 q 67 -230 72 -236 q 61 -215 61 -224 l 61 0 l 0 0 q -15 6 -8 0 q -21 21 -21 11 q -15 35 -21 29 q 0 42 -8 42 l 82 42 q 97 35 90 42 q 103 21 103 29 l 103 -194 l 163 -194 l 163 639 q 169 653 163 647 q 183 660 175 660 l 285 660 q 299 653 293 660 q 306 639 306 647 l 306 615 q 358 649 329 638 q 485 674 414 674 q 619 646 560 674 q 671 612 647 631 q 714 568 694 593 q 771 458 753 518 q 790 328 790 393 q 772 197 790 257 q 715 88 754 138 q 692 63 704 75 q 667 42 681 51 l 851 42 q 866 35 860 42 q 872 21 872 29 q 866 6 872 11 q 851 0 860 0 l 581 0 q 560 17 563 0 q 574 40 557 36 q 601 51 586 44 q 683 114 649 74 q 732 210 714 151 q 749 328 749 264 q 732 446 749 392 q 682 543 714 503 q 600 608 647 585 q 485 632 550 632 q 375 611 422 632 q 306 546 328 590 q 288 535 301 535 l 285 535 q 270 540 276 535 q 264 556 264 546 l 264 618 l 204 618 l 204 -215 q 198 -230 204 -224 q 183 -236 192 -236 z "},"q":{"ha":849,"x_min":-21,"x_max":869,"o":"m 768 -236 l 667 -236 q 651 -230 657 -236 q 646 -215 646 -224 l 646 618 l 586 618 l 586 556 q 580 540 586 546 q 565 535 574 535 l 563 535 q 543 546 550 535 q 475 611 522 590 q 365 632 425 632 q 250 608 300 632 q 168 543 201 583 q 119 446 136 501 q 106 389 111 418 q 101 328 101 360 q 118 210 101 264 q 167 114 135 156 q 249 51 201 74 q 276 40 264 44 q 290 17 294 35 q 271 0 288 0 l 0 0 q -15 6 -8 0 q -21 21 -21 11 q -15 35 -21 29 q 0 42 -8 42 l 183 42 q 158 63 169 51 q 135 88 146 75 q 101 138 115 111 q 79 197 88 165 q 60 328 60 263 q 79 458 60 393 q 136 568 97 518 q 232 646 172 615 q 365 674 290 674 q 492 649 435 674 q 544 615 522 636 l 544 639 q 550 653 544 647 q 565 660 556 660 l 667 660 q 681 653 675 660 q 688 639 688 647 l 688 -194 l 747 -194 l 747 21 q 753 35 747 29 q 768 42 758 42 l 849 42 q 864 35 858 42 q 869 21 869 29 q 849 0 869 0 l 789 0 l 789 -215 q 783 -230 789 -224 q 768 -236 776 -236 z "},"r":{"ha":489,"x_min":-21,"x_max":510,"o":"m 489 0 l 183 0 q 169 6 175 0 q 163 21 163 11 l 163 296 q 175 407 163 357 q 218 493 190 460 q 296 549 249 531 q 386 565 335 563 l 386 632 q 282 603 324 629 q 199 499 233 569 q 181 488 194 488 l 178 488 q 163 494 169 488 q 157 508 157 500 l 157 618 l 103 618 l 103 21 q 97 6 103 11 q 82 0 90 0 l 0 0 q -15 6 -8 0 q -21 21 -21 11 q -15 35 -21 29 q 0 42 -8 42 l 61 42 l 61 639 q 67 653 61 647 q 82 660 74 660 l 178 660 q 192 653 186 660 q 199 639 199 647 l 199 579 q 260 638 225 614 q 408 674 317 676 q 422 667 417 674 q 428 653 428 661 l 428 546 q 407 525 428 525 q 311 510 353 525 q 250 467 275 496 q 215 396 228 439 q 204 296 204 349 l 204 42 l 489 42 q 503 35 497 42 q 510 21 510 29 q 503 6 510 11 q 489 0 497 0 z "},"s":{"ha":688,"x_min":-21,"x_max":708,"o":"m 688 0 l 456 0 q 435 18 438 0 q 450 40 432 35 q 511 65 485 49 q 565 118 543 86 q 585 201 585 149 q 571 265 585 242 q 553 288 564 278 q 532 308 543 299 q 503 324 518 317 q 472 336 489 331 q 400 357 439 347 l 399 357 q 363 365 381 361 q 328 372 346 369 q 260 393 292 381 q 206 425 231 406 q 181 485 181 450 q 197 536 181 515 q 236 567 210 553 q 259 574 247 571 q 285 581 271 578 q 333 585 307 585 q 388 578 357 585 q 439 558 415 574 q 479 521 463 543 q 494 481 492 500 l 556 481 q 536 543 551 517 q 489 596 519 576 q 418 624 456 615 q 325 632 376 632 q 287 630 306 632 q 249 622 268 628 q 181 594 211 614 q 132 546 151 575 q 115 478 115 518 q 139 397 115 428 q 207 351 167 368 q 251 335 228 342 q 300 324 275 329 q 352 313 328 318 q 400 300 376 307 q 444 285 424 293 q 481 265 464 276 q 519 188 519 238 q 500 128 519 151 q 456 93 485 107 q 430 84 443 88 q 401 79 417 81 q 349 75 374 75 q 285 81 313 75 q 225 103 250 89 q 181 147 197 119 q 164 194 168 168 l 103 194 q 110 158 106 175 q 124 128 115 142 q 174 71 143 92 q 240 40 201 51 q 256 18 258 36 q 235 0 253 0 l 0 0 q -21 21 -21 0 q -15 35 -21 29 q 0 42 -10 42 l 143 42 q 86 108 110 65 q 60 214 61 154 q 65 229 60 221 q 81 236 72 236 l 182 236 q 203 215 203 236 q 215 169 204 188 q 246 139 228 151 q 268 129 257 133 q 293 122 279 125 q 349 117 317 117 q 372 117 360 117 q 396 119 383 118 q 439 132 419 124 q 468 153 454 138 q 478 188 478 167 q 457 231 478 215 q 388 260 431 249 q 342 272 365 267 q 292 283 318 278 q 190 313 239 293 q 108 369 142 333 q 74 478 74 408 q 97 568 74 529 q 157 629 119 606 q 238 664 193 651 q 325 674 278 674 q 426 665 381 674 q 511 631 475 654 q 574 563 551 606 q 600 461 596 519 q 594 444 600 453 q 579 439 589 439 l 476 439 q 456 457 458 439 q 444 497 453 485 q 417 522 435 514 q 379 538 399 533 q 356 542 368 540 q 333 543 344 543 q 290 539 313 543 q 254 528 269 538 q 231 510 239 522 q 222 485 222 501 q 235 456 222 468 q 275 432 250 440 q 304 421 289 425 q 336 414 319 417 q 372 406 354 410 q 408 397 390 401 q 485 376 446 389 q 522 361 504 369 q 556 342 540 353 q 607 286 586 319 q 626 201 626 253 q 600 96 626 139 q 576 67 589 81 q 549 42 564 53 l 688 42 q 702 35 696 42 q 708 21 708 29 q 702 6 708 11 q 688 0 696 0 z "},"t":{"ha":493,"x_min":-21,"x_max":514,"o":"m 493 0 l 413 0 q 392 21 392 0 l 392 89 l 365 89 q 342 90 353 89 q 324 92 332 90 q 290 103 301 94 q 271 131 278 114 q 269 146 269 138 q 268 165 268 154 l 268 549 q 289 569 268 569 l 392 569 l 392 618 l 289 618 q 274 624 279 618 q 268 639 268 631 l 268 803 l 208 803 l 208 639 q 202 624 208 631 q 188 618 196 618 l 103 618 l 103 569 l 188 569 q 202 564 196 569 q 208 549 208 558 l 208 156 q 210 120 208 136 q 215 92 211 104 q 235 61 222 72 q 271 46 249 50 q 335 42 296 42 q 349 35 343 42 q 356 21 356 29 q 349 6 356 11 q 335 0 343 0 l 0 0 q -15 6 -8 0 q -21 21 -21 11 q -15 35 -21 29 q 0 42 -8 42 l 196 42 q 175 79 183 56 q 167 156 167 110 l 167 528 l 82 528 q 67 534 72 528 q 61 549 61 540 l 61 639 q 67 653 61 647 q 82 660 72 660 l 167 660 l 167 824 q 188 844 167 844 l 289 844 q 303 839 297 844 q 310 824 310 833 l 310 660 l 413 660 q 427 653 421 660 q 433 639 433 647 l 433 549 q 427 534 433 540 q 413 528 421 528 l 310 528 l 310 165 q 310 150 310 156 q 311 142 311 144 q 315 136 313 139 q 329 132 318 133 q 345 131 336 132 q 365 131 354 131 l 413 131 q 427 124 421 131 q 433 110 433 118 l 433 42 l 493 42 q 508 35 501 42 q 514 21 514 29 q 508 6 514 11 q 493 0 501 0 z "},"u":{"ha":675,"x_min":-21,"x_max":696,"o":"m 200 0 l 0 0 q -15 6 -8 0 q -21 21 -21 11 q -15 35 -21 29 q 0 42 -8 42 l 125 42 q 111 56 117 47 q 87 92 96 72 q 71 136 78 113 q 60 232 60 181 l 60 639 q 66 653 60 647 q 81 660 72 660 l 183 660 q 198 653 192 660 q 204 639 204 647 l 204 219 q 231 144 204 171 q 308 117 258 117 q 381 129 351 117 q 431 164 410 140 q 448 189 440 175 q 460 218 456 203 q 471 289 471 254 l 471 639 q 477 653 471 647 q 492 660 483 660 l 593 660 q 608 653 601 660 q 614 639 614 647 l 614 42 l 675 42 q 690 35 683 42 q 696 21 696 29 q 690 6 696 11 q 675 0 683 0 l 593 0 q 578 6 585 0 q 572 21 572 11 l 572 618 l 513 618 l 513 289 q 500 206 513 244 q 463 138 488 167 q 397 90 438 108 q 308 75 358 75 q 201 114 240 75 q 163 219 163 153 l 163 618 l 101 618 l 101 232 q 104 187 101 208 q 111 146 107 165 q 143 83 122 106 q 200 43 164 56 q 207 40 206 40 q 221 17 224 33 q 200 0 218 0 z "},"v":{"ha":728,"x_min":-21,"x_max":749,"o":"m 728 0 l 419 0 q 403 8 408 0 q 400 28 397 15 l 617 618 l 554 618 l 390 117 q 371 103 386 103 l 368 103 q 349 117 353 103 l 181 618 l 111 618 l 331 28 q 328 8 335 18 q 311 0 324 0 l 0 0 q -15 6 -8 0 q -21 21 -21 11 q -15 35 -21 29 q 0 42 -8 42 l 281 42 l 63 632 q 64 650 58 639 q 82 660 69 660 l 194 660 q 215 646 211 660 l 369 186 l 519 646 q 540 660 524 660 l 646 660 q 664 651 657 660 q 665 632 669 640 l 450 42 l 728 42 q 742 35 736 42 q 749 21 749 29 q 742 6 749 11 q 728 0 736 0 z "},"w":{"ha":1029,"x_min":-21,"x_max":1050,"o":"m 1029 0 l 750 0 q 733 8 739 0 q 731 26 728 15 l 919 618 l 858 618 l 724 128 q 704 113 719 113 l 701 113 q 681 128 685 113 l 556 618 l 478 618 l 357 128 q 336 113 353 113 l 333 113 q 314 128 318 113 l 178 618 l 110 618 l 300 26 q 297 8 303 15 q 281 0 290 0 l 0 0 q -15 6 -8 0 q -21 21 -21 11 q -15 35 -21 29 q 0 42 -8 42 l 251 42 l 61 632 q 65 651 58 643 q 82 660 69 660 l 194 660 q 214 644 208 660 l 335 211 l 440 644 q 461 660 446 660 l 572 660 q 592 644 589 660 l 703 210 l 822 644 q 843 660 828 660 l 947 660 q 965 651 958 660 q 968 632 969 642 l 779 42 l 1029 42 q 1044 35 1038 42 q 1050 21 1050 29 q 1044 6 1050 11 q 1029 0 1038 0 z "},"x":{"ha":761,"x_min":-21,"x_max":782,"o":"m 761 0 l 681 0 q 664 8 668 0 l 424 342 q 421 354 421 347 q 425 367 421 361 l 613 618 l 543 618 l 394 410 q 378 401 388 401 q 360 411 365 401 l 218 618 l 140 618 l 331 358 q 331 333 340 346 l 99 8 q 82 0 92 0 l 0 0 q -15 6 -8 0 q -21 21 -21 11 q -15 35 -21 29 q 0 42 -8 42 l 71 42 l 289 346 l 82 626 q 81 649 75 639 q 99 660 85 660 l 229 660 q 246 650 240 660 l 378 458 l 515 651 q 532 660 521 660 l 654 660 q 672 649 668 660 q 671 626 679 638 l 467 354 l 692 42 l 761 42 q 776 35 771 42 q 782 21 782 29 q 761 0 782 0 z "},"y":{"ha":743,"x_min":-21,"x_max":764,"o":"m 310 -246 q 290 -245 300 -246 q 271 -243 281 -244 q 232 -233 249 -240 q 218 -214 218 -229 l 218 -121 q 226 -104 218 -111 q 246 -101 236 -97 q 260 -106 253 -104 q 275 -111 268 -108 q 287 -114 282 -114 q 299 -114 292 -114 q 336 -104 325 -114 q 364 -71 350 -94 l 631 619 l 568 619 l 400 126 q 379 113 396 113 l 378 113 q 358 126 363 113 l 182 619 l 113 619 l 349 29 q 346 10 351 17 q 329 0 339 0 l 0 0 q -15 6 -8 0 q -21 21 -21 13 q -15 36 -21 31 q 0 42 -8 42 l 299 42 l 63 632 q 65 651 58 642 q 82 661 69 661 l 197 661 q 217 647 213 661 l 378 193 l 533 647 q 553 661 538 661 l 661 661 q 678 651 672 661 q 681 632 685 642 l 403 -86 q 401 -89 401 -87 q 361 -137 385 -121 q 299 -156 339 -156 q 263 -150 278 -156 l 260 -150 l 260 -199 l 276 -203 q 293 -204 285 -204 q 310 -204 301 -204 q 363 -197 339 -204 q 401 -172 382 -189 q 436 -126 418 -157 q 469 -53 451 -99 l 501 29 q 521 42 506 42 l 743 42 q 758 36 751 42 q 764 21 764 31 q 758 6 764 13 q 743 0 751 0 l 535 0 l 508 -68 q 490 -111 499 -92 q 472 -147 482 -131 q 431 -203 454 -179 q 376 -236 406 -226 q 310 -246 349 -246 z "},"z":{"ha":685,"x_min":-21,"x_max":706,"o":"m 685 0 l 603 0 q 588 6 594 0 q 582 21 582 13 l 582 90 l 208 90 q 189 103 194 90 q 192 125 185 114 l 565 578 l 565 619 l 126 619 l 126 571 l 454 571 q 474 560 469 571 q 471 538 478 544 l 103 92 l 103 21 q 97 6 103 13 q 82 0 90 0 l 0 0 q -15 6 -8 0 q -21 21 -21 13 q -15 36 -21 31 q 0 42 -8 42 l 61 42 l 61 99 q 65 113 61 106 l 411 529 l 106 529 q 91 535 97 529 q 85 550 85 542 l 85 640 q 91 655 85 649 q 106 661 97 661 l 586 661 q 601 655 594 661 q 607 640 607 649 l 607 571 q 603 557 607 563 l 253 132 l 603 132 q 618 126 613 132 q 624 111 624 119 l 624 42 l 685 42 q 699 36 693 42 q 706 21 706 31 q 699 6 706 13 q 685 0 693 0 z "},"{":{"ha":571,"x_min":-21,"x_max":592,"o":"m 490 -236 l 406 -236 q 351 -224 378 -236 q 304 -189 326 -212 q 269 -133 282 -167 q 256 -58 256 -99 l 256 178 q 253 215 256 197 q 244 244 251 232 q 219 288 235 271 q 206 301 213 294 q 192 310 199 307 q 171 317 176 317 q 151 338 151 319 l 151 342 q 168 361 151 358 q 190 371 176 364 q 219 396 204 379 q 244 439 235 413 q 256 501 256 461 l 256 721 q 256 741 256 732 q 258 761 257 750 q 269 800 260 782 q 292 831 278 818 q 335 844 310 844 l 374 844 l 374 875 l 310 875 q 274 865 296 875 q 239 840 253 856 q 213 799 224 825 q 201 739 201 769 l 201 521 q 193 457 201 486 q 181 429 188 442 q 167 406 175 417 q 129 371 151 385 q 116 365 122 368 q 103 361 110 363 l 103 317 q 116 313 110 315 q 129 307 122 310 q 167 274 150 294 q 193 224 182 254 q 201 158 201 194 l 201 21 q 196 6 201 13 q 181 0 190 0 l 0 0 q -15 6 -8 0 q -21 21 -21 13 q -15 35 -21 29 q 0 42 -8 42 l 160 42 l 160 158 q 158 186 160 174 q 153 211 157 199 q 133 249 146 233 q 108 271 124 263 q 82 278 94 278 q 67 283 74 278 q 61 299 61 289 l 61 379 q 67 394 61 388 q 82 400 74 400 q 108 408 96 400 q 133 431 121 414 q 144 449 140 439 q 153 469 149 458 q 158 494 157 481 q 160 521 160 507 l 160 739 q 163 778 160 760 q 174 814 167 797 q 189 844 181 831 q 208 869 197 858 q 231 889 219 881 q 256 904 243 897 q 310 917 282 917 l 394 917 q 409 910 403 917 q 415 896 415 904 l 415 824 q 409 809 415 815 q 394 803 403 803 l 335 803 q 319 799 324 803 q 307 782 311 792 q 300 756 301 769 q 298 738 299 747 q 297 721 297 729 l 297 501 q 283 422 297 454 q 250 368 268 389 q 221 340 233 350 q 250 315 235 332 q 283 261 268 294 q 297 178 297 229 l 297 -58 q 308 -118 297 -92 q 320 -142 314 -131 q 335 -161 326 -153 q 369 -186 349 -176 q 406 -194 388 -194 l 469 -194 l 469 -164 l 431 -164 q 388 -150 403 -164 q 365 -119 375 -140 q 354 -79 356 -99 q 352 -60 353 -69 q 351 -40 351 -50 l 351 21 q 358 35 351 29 q 372 42 364 42 l 571 42 q 585 35 579 42 q 592 21 592 29 q 585 6 592 13 q 571 0 579 0 l 393 0 l 393 -40 q 394 -57 393 -49 q 396 -75 394 -65 q 403 -103 397 -87 q 414 -118 406 -110 q 431 -122 419 -122 l 490 -122 q 505 -128 499 -122 q 511 -143 511 -135 l 511 -215 q 505 -230 511 -224 q 490 -236 499 -236 z "},"|":{"ha":482,"x_min":-21,"x_max":503,"o":"m 482 42 q 497 35 490 42 q 503 21 503 29 q 497 6 503 13 q 482 0 490 0 l 293 0 l 293 -215 q 288 -230 293 -224 q 272 -236 282 -236 l 251 -236 l 176 -236 q 162 -230 168 -236 q 156 -215 156 -224 l 156 875 l 101 875 l 101 21 q 96 6 101 13 q 81 0 90 0 l 0 0 q -15 6 -10 0 q -21 21 -21 13 q -15 35 -21 29 q 0 42 -10 42 l 60 42 l 60 896 q 66 910 60 904 q 81 917 72 917 l 156 917 l 176 917 q 192 910 186 917 q 197 896 197 904 l 197 -194 l 251 -194 l 251 21 q 258 35 251 29 q 272 42 264 42 l 482 42 l 482 42 z "},"}":{"ha":574,"x_min":-21,"x_max":594,"o":"m 167 -236 l 82 -236 q 67 -230 74 -236 q 61 -215 61 -224 l 61 -143 q 67 -128 61 -135 q 82 -122 74 -122 l 142 -122 q 157 -118 153 -122 q 169 -103 167 -111 q 176 -75 175 -87 q 178 -57 178 -65 q 179 -40 179 -49 l 179 0 l 0 0 q -15 6 -8 0 q -21 21 -21 13 q -15 35 -21 29 q 0 42 -8 42 l 200 42 q 215 35 208 42 q 221 21 221 29 l 221 -40 q 220 -60 221 -50 q 218 -79 219 -69 q 207 -119 217 -99 q 185 -150 197 -140 q 142 -164 169 -164 l 103 -164 l 103 -194 l 167 -194 q 203 -186 183 -194 q 238 -161 224 -176 q 252 -142 246 -153 q 264 -118 258 -131 q 275 -58 275 -92 l 275 178 q 289 261 275 229 q 322 315 303 294 q 353 340 338 332 q 322 368 339 349 q 289 422 303 389 q 275 501 275 454 l 275 721 q 274 738 275 729 q 272 756 274 747 q 269 769 271 763 q 265 782 268 776 q 254 799 261 792 q 238 803 247 803 l 178 803 q 163 809 169 803 q 157 824 157 815 l 157 896 q 163 910 157 904 q 178 917 169 917 l 263 917 q 317 904 289 917 q 364 869 343 892 q 399 814 386 847 q 413 739 413 782 l 413 521 q 421 469 413 492 q 428 449 424 458 q 439 431 433 439 q 465 408 454 414 q 492 400 478 400 q 506 394 500 400 q 513 379 513 388 l 513 299 q 506 283 513 289 q 492 278 500 278 q 464 269 478 278 q 439 249 449 263 q 421 210 426 232 q 413 158 413 186 l 413 42 l 574 42 q 588 35 582 42 q 594 21 594 29 q 588 6 594 13 q 574 0 582 0 l 392 0 q 377 6 383 0 q 371 21 371 13 l 371 158 q 381 224 371 196 q 406 274 390 253 q 444 307 421 293 q 471 317 460 315 l 471 361 q 458 365 464 363 q 444 371 451 368 q 424 386 433 378 q 406 406 414 394 q 392 429 399 417 q 381 457 385 442 q 371 521 371 485 l 371 739 q 361 799 371 774 q 335 840 351 821 q 300 865 318 857 q 263 875 278 875 l 199 875 l 199 844 l 238 844 q 281 831 263 844 q 303 800 294 818 q 314 761 311 782 q 316 741 315 750 q 317 721 317 732 l 317 501 q 328 439 317 465 q 340 415 333 425 q 354 396 347 404 q 382 371 367 379 q 397 365 392 367 q 404 361 401 363 q 421 342 421 358 l 421 338 q 403 317 421 319 q 381 310 396 317 q 367 300 374 306 q 353 288 360 294 q 328 244 338 271 q 317 178 317 218 l 317 -58 q 313 -99 317 -79 q 303 -133 310 -118 q 268 -189 290 -167 q 221 -224 246 -212 q 167 -236 193 -236 z "},"~":{"ha":718,"x_min":-21,"x_max":739,"o":"m 485 0 q 470 6 476 0 q 464 21 464 13 q 470 35 464 29 q 485 42 476 42 l 486 42 q 526 49 508 42 q 563 69 544 56 q 590 99 579 83 q 600 111 596 106 q 610 124 604 117 l 592 147 q 588 140 589 142 q 563 108 574 119 q 529 82 549 93 q 486 71 510 71 q 421 90 460 71 q 389 106 406 99 q 357 121 372 114 l 356 121 q 322 135 339 128 q 290 147 306 142 q 232 157 261 157 q 186 150 210 157 q 150 129 168 143 q 135 115 142 122 q 122 101 129 108 q 115 89 118 94 q 107 78 111 83 l 139 33 q 140 11 147 22 q 122 0 136 0 l 0 0 q -15 6 -10 0 q -21 21 -21 13 q -15 35 -21 29 q 0 42 -10 42 l 82 42 l 65 64 q 64 85 58 72 q 89 125 75 107 q 125 163 103 144 q 171 189 144 178 q 232 199 196 199 q 303 186 267 199 q 338 174 321 181 q 374 160 356 167 q 407 144 390 153 q 440 128 424 136 q 486 113 468 113 q 510 119 499 113 q 521 126 515 122 q 532 136 526 131 q 542 149 538 143 q 553 163 547 156 q 563 179 558 171 q 575 194 568 188 q 592 204 579 204 q 608 196 600 204 l 651 136 q 651 111 661 122 q 638 92 644 101 q 624 72 631 82 q 609 56 617 64 q 594 42 601 49 l 718 42 q 733 35 726 42 q 739 21 739 29 q 733 6 739 13 q 718 0 726 0 l 486 0 l 485 0 z "},"":{"ha":390,"x_min":-21,"x_max":411,"o":"m 308 -196 l 196 -196 q 181 -190 186 -196 q 175 -175 175 -183 l 175 86 l 146 439 l 131 439 l 103 86 l 103 21 q 97 6 103 13 q 82 0 90 0 l 0 0 q -15 6 -8 0 q -21 21 -21 13 q -15 35 -21 29 q 0 42 -8 42 l 61 42 l 61 88 l 61 89 l 90 461 q 111 481 93 481 l 165 481 q 186 461 183 481 l 217 89 l 217 88 l 217 -154 l 288 -154 l 288 21 q 294 35 288 29 q 308 42 300 42 l 390 42 q 405 35 399 42 q 411 21 411 29 q 405 6 411 13 q 390 0 399 0 l 329 0 l 329 -175 q 324 -190 329 -183 q 308 -196 318 -196 m 139 517 q 73 544 100 517 q 46 608 46 571 q 73 674 46 647 q 139 700 100 700 q 203 674 176 700 q 231 608 231 647 q 203 544 231 571 q 139 517 176 517 m 139 658 q 103 644 118 658 q 88 608 88 629 q 103 573 88 588 q 139 558 118 558 q 174 573 160 558 q 189 608 189 588 q 174 644 189 629 q 139 658 160 658 z "},"":{"ha":725,"x_min":-21,"x_max":746,"o":"m 725 42 q 740 35 735 42 q 746 21 746 29 q 740 6 746 13 q 725 0 735 0 l 469 0 l 467 0 q 449 18 451 3 q 464 40 446 35 q 467 42 465 42 q 544 85 515 57 q 619 226 600 136 l 558 226 q 503 121 543 157 q 440 85 478 99 q 399 76 421 78 l 399 119 l 399 543 l 399 585 q 420 582 410 583 q 440 578 431 581 q 499 547 475 567 q 551 461 536 515 l 617 461 q 593 525 608 501 q 570 559 583 544 q 542 586 557 574 q 467 621 506 611 q 440 626 457 624 q 420 630 431 629 q 399 632 410 631 l 399 674 l 399 854 l 326 854 l 326 672 l 326 629 q 285 621 306 626 q 254 610 271 617 q 171 544 203 583 q 119 446 136 504 q 103 322 103 389 q 121 201 103 254 q 171 108 138 149 q 254 50 204 71 q 265 46 260 47 q 276 42 269 44 q 279 40 276 42 q 294 18 297 35 q 276 0 292 3 l 274 0 l 0 0 q -15 6 -8 0 q -21 21 -21 13 q -15 35 -21 29 q 0 42 -8 42 l 183 42 q 140 82 161 57 q 81 189 99 128 q 61 322 61 251 q 79 458 61 399 q 138 571 100 522 q 238 647 176 618 q 285 664 257 657 l 285 875 q 291 890 285 883 q 306 896 297 896 l 419 896 q 435 890 429 896 q 440 875 440 883 l 440 669 l 478 661 q 525 644 503 654 q 567 619 547 633 q 631 546 606 589 q 650 498 642 524 q 661 443 658 472 q 656 426 663 436 q 640 419 651 419 l 535 419 q 515 436 518 419 q 472 515 506 486 q 440 533 458 528 l 440 129 q 474 151 460 138 q 519 250 511 185 q 540 268 522 268 l 644 268 q 660 261 653 268 q 665 244 665 254 q 572 54 646 119 q 557 42 568 50 l 725 42 m 725 42 q 740 35 735 42 q 746 21 746 29 q 740 6 746 13 q 725 0 735 0 l 469 0 l 467 0 q 449 18 451 3 q 464 40 446 35 q 467 42 465 42 q 544 85 515 57 q 619 226 600 136 l 558 226 q 503 121 543 157 q 440 85 478 99 q 399 76 421 78 l 399 119 l 399 543 l 399 585 q 420 582 410 583 q 440 578 431 581 q 499 547 475 567 q 551 461 536 515 l 617 461 q 593 525 608 501 q 570 559 583 544 q 542 586 557 574 q 467 621 506 611 q 440 626 457 624 q 420 630 431 629 q 399 632 410 631 l 399 674 l 399 854 l 326 854 l 326 672 l 326 629 q 285 621 306 626 q 254 610 271 617 q 171 544 203 583 q 119 446 136 504 q 103 322 103 389 q 121 201 103 254 q 171 108 138 149 q 254 50 204 71 q 265 46 260 47 q 276 42 269 44 q 279 40 276 42 q 294 18 297 35 q 276 0 292 3 l 274 0 l 0 0 q -15 6 -8 0 q -21 21 -21 13 q -15 35 -21 29 q 0 42 -8 42 l 183 42 q 140 82 161 57 q 81 189 99 128 q 61 322 61 251 q 79 458 61 399 q 138 571 100 522 q 238 647 176 618 q 285 664 257 657 l 285 875 q 291 890 285 883 q 306 896 297 896 l 419 896 q 435 890 429 896 q 440 875 440 883 l 440 669 l 478 661 q 525 644 503 654 q 567 619 547 633 q 631 546 606 589 q 650 498 642 524 q 661 443 658 472 q 656 426 663 436 q 640 419 651 419 l 535 419 q 515 436 518 419 q 472 515 506 486 q 440 533 458 528 l 440 129 q 474 151 460 138 q 519 250 511 185 q 540 268 522 268 l 644 268 q 660 261 653 268 q 665 244 665 254 q 572 54 646 119 q 557 42 568 50 l 725 42 z "},"":{"ha":761,"x_min":-21,"x_max":782,"o":"m 140 0 l 0 0 q -15 6 -8 0 q -21 21 -21 13 q -15 35 -21 29 q 0 42 -8 42 l 99 42 l 67 86 q 64 101 63 93 q 72 115 64 110 q 95 133 83 124 q 118 153 107 142 q 158 200 139 171 q 173 226 167 213 q 185 253 179 239 q 194 313 194 281 q 186 363 194 338 q 180 381 183 374 q 174 396 176 389 l 83 396 q 69 401 75 396 q 63 417 63 407 l 63 476 q 69 492 63 486 q 83 497 75 497 l 118 497 q 105 526 111 513 q 93 554 99 539 q 76 664 76 601 q 100 775 76 724 q 165 857 125 824 q 258 908 210 893 q 369 926 308 926 q 593 843 511 926 q 672 597 674 760 q 666 583 672 589 q 651 576 660 576 l 550 576 q 535 583 542 576 q 529 597 529 589 q 488 747 526 694 q 375 796 450 796 q 315 785 346 796 q 268 756 289 775 q 250 736 257 747 q 236 713 243 725 q 225 660 225 688 q 226 634 225 646 q 231 611 228 622 q 237 590 233 600 q 244 568 240 579 q 264 529 253 549 q 272 513 268 521 q 279 497 275 506 l 457 497 q 472 492 465 497 q 478 476 478 486 l 478 417 q 472 401 478 407 q 457 396 465 396 l 326 396 q 329 388 329 390 q 338 333 338 363 q 325 254 338 289 q 310 222 318 238 q 290 190 301 206 q 264 158 281 175 q 306 163 285 163 q 372 156 340 163 q 400 149 388 153 q 425 143 413 146 q 449 136 438 140 q 474 129 461 132 q 519 122 497 122 q 568 135 543 122 q 592 149 581 142 q 614 163 603 156 q 629 167 621 169 q 643 157 639 164 l 694 79 q 692 51 704 64 q 685 47 689 49 q 679 42 682 44 l 761 42 q 776 35 769 42 q 782 21 782 29 q 776 6 782 13 q 761 0 769 0 l 576 0 q 563 6 569 0 q 557 18 557 11 q 574 42 554 38 q 590 44 579 42 q 650 72 621 53 l 621 117 q 604 106 613 111 q 586 97 596 101 q 519 81 553 81 q 463 89 489 81 q 438 97 450 93 q 414 103 425 100 q 364 115 390 108 q 337 119 351 118 q 306 121 322 121 q 276 118 290 121 q 249 111 261 115 q 219 100 233 106 q 189 88 204 94 q 165 92 176 83 l 164 94 q 157 110 157 101 q 165 125 158 118 q 191 147 178 136 q 215 168 204 157 q 257 215 240 193 q 285 268 275 242 q 296 333 296 294 q 290 375 296 358 q 281 396 286 385 q 274 407 279 399 q 275 428 269 418 q 293 438 282 438 l 436 438 l 436 456 l 267 456 q 249 468 254 456 q 238 489 243 479 q 226 510 232 499 q 216 531 221 521 q 206 553 211 542 q 197 576 201 564 q 190 601 193 589 q 183 660 183 632 q 199 731 183 696 q 240 788 213 761 q 301 824 267 811 q 337 834 318 831 q 375 838 356 838 q 521 772 472 838 q 569 618 564 715 l 631 618 q 563 814 628 749 q 369 885 493 885 q 272 869 321 885 q 192 825 229 856 q 138 756 158 799 q 118 664 118 714 q 122 613 118 636 q 133 569 125 589 q 171 488 147 529 q 171 467 176 476 q 153 456 167 456 l 104 456 l 104 438 l 186 438 q 206 425 200 438 q 208 419 208 419 q 217 399 213 408 q 225 376 221 390 q 236 313 236 340 q 224 240 236 274 q 210 207 218 222 q 193 176 203 192 q 147 122 172 147 q 131 108 139 115 q 113 93 122 100 l 157 33 q 158 11 164 21 q 140 0 154 0 z "},"":{"ha":715,"x_min":-21,"x_max":736,"o":"m 0 0 q -15 6 -10 0 q -21 21 -21 13 q 0 42 -21 42 l 60 42 l 60 111 q 66 126 60 119 q 81 132 72 132 l 489 132 q 468 168 482 150 q 415 222 449 196 q 383 247 400 235 q 346 269 365 258 q 306 294 326 282 q 267 317 286 306 q 228 344 247 331 q 189 371 208 357 q 152 402 169 386 q 119 436 135 418 q 71 518 89 472 q 51 625 51 568 q 75 740 51 689 q 101 785 86 764 q 136 822 117 806 q 228 874 174 854 q 338 890 279 890 q 465 867 407 890 q 560 797 522 842 q 617 694 597 758 q 629 634 625 665 q 631 568 633 603 q 624 554 631 560 q 610 549 618 549 l 508 549 q 493 554 501 549 q 488 569 488 560 q 481 640 489 603 q 454 701 472 676 q 434 725 444 714 q 408 743 424 736 q 343 760 383 760 q 314 757 328 760 q 288 750 300 754 q 242 722 261 740 q 213 681 222 706 q 200 626 200 657 q 213 557 200 586 q 250 501 226 525 q 314 447 276 474 q 357 418 333 433 q 407 386 381 403 q 451 358 429 372 q 493 329 472 344 q 569 256 536 296 q 601 210 588 235 q 626 157 615 185 q 642 104 636 133 q 653 42 649 75 l 715 42 q 730 36 724 42 q 736 21 736 31 q 730 6 736 13 q 715 0 724 0 l 633 0 q 613 19 615 0 q 603 86 610 56 q 588 142 597 117 q 565 189 578 167 q 538 229 553 211 q 505 265 522 249 q 468 296 488 281 q 385 350 428 325 q 333 383 357 368 q 290 413 310 399 q 251 442 268 428 q 219 472 233 457 q 175 542 189 504 q 163 581 167 560 q 160 626 160 603 q 174 699 160 667 q 214 753 192 732 q 242 774 226 765 q 274 789 257 782 q 343 801 307 801 q 429 779 392 801 q 489 725 465 758 q 521 650 511 690 q 529 590 526 621 l 590 590 q 587 638 590 615 q 576 683 583 661 q 529 771 563 731 q 449 828 497 807 q 338 849 400 849 q 288 845 311 849 q 240 833 264 842 q 164 792 194 818 q 113 722 131 763 q 93 625 93 679 q 108 535 93 574 q 151 463 125 493 q 181 432 165 447 q 214 404 196 417 q 251 378 232 390 q 289 353 269 365 q 328 329 308 342 q 367 306 347 317 q 442 254 411 279 q 474 225 460 240 q 501 193 489 210 q 536 115 528 161 q 532 97 538 108 q 515 90 525 90 l 101 90 l 101 21 q 95 6 101 13 q 81 0 89 0 l 0 0 l 0 0 z "},"":{"ha":831,"x_min":-21,"x_max":851,"o":"m 831 0 l 474 0 q 459 6 465 0 q 453 21 453 13 l 453 228 q 459 243 453 238 q 474 249 465 249 l 625 249 l 625 279 l 474 279 q 459 285 465 279 q 453 300 453 292 l 453 350 q 456 360 453 354 l 478 400 q 496 411 482 411 l 625 411 l 625 440 l 535 440 q 518 450 522 440 q 517 471 513 460 l 714 853 l 636 853 l 440 443 q 422 431 435 431 q 403 443 410 431 l 201 853 l 118 853 l 321 471 q 319 450 326 461 q 303 440 314 440 l 213 440 l 213 411 l 339 411 q 357 400 353 411 l 379 360 q 382 350 382 354 l 382 300 q 376 285 382 292 q 361 279 369 279 l 213 279 l 213 249 l 361 249 q 376 243 369 249 q 382 228 382 238 l 382 21 q 376 6 382 13 q 361 0 369 0 l 0 0 q -15 6 -8 0 q -21 21 -21 13 q -15 35 -21 29 q 0 42 -8 42 l 340 42 l 340 207 l 192 207 q 177 213 183 207 q 171 228 171 219 l 171 300 q 177 315 171 308 q 192 321 183 321 l 340 321 l 340 344 l 326 369 l 192 369 q 177 375 183 369 q 171 390 171 381 l 171 461 q 177 476 171 469 q 192 482 183 482 l 268 482 l 65 864 q 65 885 61 874 q 83 894 72 894 l 214 894 q 232 883 228 894 l 421 500 l 604 882 q 624 894 610 894 l 747 894 q 765 885 758 894 q 767 864 771 875 l 569 482 l 646 482 q 661 476 656 482 q 667 461 667 469 l 667 390 q 646 369 667 369 l 508 369 l 494 344 l 494 321 l 646 321 q 661 315 656 321 q 667 300 667 308 l 667 228 q 661 213 667 219 q 646 207 656 207 l 494 207 l 494 42 l 831 42 q 846 35 840 42 q 851 21 851 29 q 846 6 851 13 q 831 0 840 0 z "},"":{"ha":276,"x_min":-21,"x_max":297,"o":"m 217 506 q 215 503 217 504 q 210 491 215 496 q 199 485 206 486 l 196 485 l 175 485 l 103 485 l 82 485 q 67 491 74 485 q 61 506 61 497 l 61 875 q 67 890 61 883 q 82 896 74 896 l 196 896 q 210 890 204 896 q 217 875 217 883 l 217 506 m 175 526 l 175 854 l 103 854 l 103 526 l 175 526 m 276 42 q 292 35 286 42 q 297 21 297 29 q 292 6 297 13 q 276 0 286 0 l 196 0 q 181 6 186 0 q 175 21 175 13 l 175 368 l 103 368 l 103 21 q 97 6 103 13 q 82 0 90 0 l 0 0 q -15 6 -8 0 q -21 21 -21 13 q -15 35 -21 29 q 0 42 -8 42 l 61 42 l 61 389 q 67 403 61 397 q 82 410 74 410 l 103 410 l 175 410 l 199 410 q 201 408 200 410 q 217 389 217 406 l 217 42 l 276 42 z "},"":{"ha":742,"x_min":-21,"x_max":763,"o":"m 221 0 l 0 0 q -15 6 -8 0 q -21 21 -21 13 q -15 35 -21 29 q 0 42 -8 42 l 172 42 q 119 194 125 103 q 125 210 119 201 q 140 217 132 217 l 242 217 q 257 210 251 217 q 263 196 263 204 q 296 111 264 144 q 379 81 326 81 q 417 85 397 81 q 449 100 436 92 q 471 125 464 113 q 478 158 478 142 q 464 201 478 182 q 446 223 457 213 q 422 243 435 233 q 392 264 407 254 q 358 283 376 274 q 320 304 339 294 q 282 325 301 314 q 243 347 263 336 q 204 369 224 358 q 133 425 163 396 q 82 499 101 458 q 63 593 63 540 q 74 654 63 624 q 104 710 86 686 q 126 732 115 721 q 150 751 136 743 q 176 767 160 760 q 163 787 169 778 q 151 807 157 796 q 136 885 136 839 q 157 976 136 936 q 182 1013 168 996 q 213 1044 196 1029 q 290 1085 247 1072 q 378 1099 332 1099 q 549 1039 485 1099 q 618 857 615 978 q 613 843 618 849 q 597 836 606 836 l 496 836 q 481 842 488 836 q 475 857 475 849 q 447 938 472 906 q 375 968 422 968 q 307 947 333 968 q 282 886 282 928 q 294 846 282 864 q 335 807 311 824 q 364 787 349 796 q 397 768 379 778 q 433 749 415 758 q 469 728 450 739 q 507 708 489 718 q 543 686 525 697 q 579 661 563 674 q 611 633 596 649 q 660 567 642 600 q 679 478 679 525 q 639 360 679 413 q 608 325 625 340 q 571 299 590 310 q 625 161 625 242 q 607 74 625 111 q 588 42 599 58 l 742 42 q 756 35 750 42 q 763 21 763 29 q 756 6 763 13 q 742 0 750 0 l 539 0 q 519 14 524 0 q 526 38 515 26 l 528 38 q 568 92 554 61 q 583 161 583 125 q 521 286 583 240 q 513 306 513 292 q 526 322 515 318 q 606 383 574 340 q 638 478 638 428 q 622 547 638 517 q 581 604 607 575 q 522 650 556 629 q 486 672 504 661 q 450 692 468 682 q 413 712 431 703 q 376 731 394 721 q 342 751 358 742 q 311 772 326 761 q 261 822 279 794 q 240 886 240 849 q 282 981 240 949 q 375 1010 319 1010 q 479 964 442 1010 q 515 878 510 925 l 575 878 q 521 1008 569 964 q 378 1057 468 1057 q 303 1046 343 1057 q 239 1011 264 1032 q 194 957 211 989 q 178 885 178 925 q 189 825 178 851 q 226 772 204 796 q 232 753 235 764 q 217 738 228 742 q 174 718 197 732 q 138 683 150 701 q 124 663 131 674 q 113 640 118 651 q 104 593 104 617 q 119 517 104 550 q 139 484 128 499 q 164 454 150 469 q 226 404 190 426 q 301 363 264 381 l 301 361 q 340 340 321 350 q 378 319 358 331 q 414 298 397 308 q 446 276 431 288 q 499 225 478 254 q 519 158 519 196 q 507 104 519 126 q 474 67 492 81 q 428 44 454 53 q 379 39 406 39 q 265 82 308 39 q 222 175 231 118 l 164 175 q 225 44 175 93 q 235 36 231 39 q 240 14 244 28 q 221 0 236 0 z "},"":{"ha":539,"x_min":-21,"x_max":560,"o":"m 138 679 q 72 706 99 679 q 46 771 46 733 q 72 837 46 810 q 138 864 99 864 q 203 837 176 864 q 229 771 229 810 q 203 706 229 733 q 138 679 176 679 m 138 822 q 102 807 117 822 q 88 771 88 792 q 102 735 88 750 q 138 721 117 721 q 173 735 158 721 q 188 771 188 750 q 173 807 188 792 q 138 822 158 822 m 401 679 q 336 706 363 679 q 310 771 310 733 q 336 837 310 810 q 401 864 363 864 q 467 837 440 864 q 493 771 493 810 q 467 706 493 733 q 401 679 440 679 m 401 822 q 366 807 381 822 q 351 771 351 792 q 366 735 351 750 q 401 721 381 721 q 437 735 422 721 q 451 771 451 750 q 437 807 451 792 q 401 822 422 822 m 539 0 l 0 0 q -15 6 -8 0 q -21 21 -21 13 q -15 35 -21 29 q 0 42 -8 42 l 539 42 q 553 35 547 42 q 560 21 560 29 q 553 6 560 13 q 539 0 547 0 z "},"":{"ha":1581,"x_min":-15,"x_max":1593,"o":"m 486 803 q 453 817 467 803 q 439 851 439 832 q 453 885 439 871 q 486 900 467 900 q 521 885 506 900 q 536 851 536 871 q 521 817 536 832 q 486 803 506 803 m 1593 318 l 1593 215 l 1593 11 q 1582 0 1593 0 l 1581 0 l 1476 0 q 1469 7 1472 0 q 1475 14 1469 14 q 1480 17 1478 15 q 1485 19 1482 18 q 1517 43 1506 29 q 1536 76 1532 56 q 1542 98 1540 88 q 1543 119 1543 108 q 1536 164 1543 146 q 1517 200 1532 182 q 1485 222 1503 214 q 1442 232 1465 232 q 1417 229 1428 232 q 1397 222 1407 226 q 1365 200 1379 214 q 1346 164 1351 182 q 1339 119 1339 146 q 1340 98 1339 108 q 1346 76 1342 88 q 1365 43 1353 56 q 1397 19 1376 29 q 1403 17 1400 18 q 1408 14 1406 15 q 1413 7 1413 14 q 1406 0 1413 0 l 1301 0 l 1190 0 q 1182 7 1182 0 l 1182 108 q 1188 149 1182 132 q 1203 181 1190 164 q 1231 200 1214 193 q 1245 205 1238 203 q 1263 207 1253 207 l 1263 232 q 1242 227 1251 229 q 1226 219 1233 225 q 1196 182 1208 210 q 1189 178 1192 178 l 1188 178 q 1181 185 1181 178 l 1181 226 l 1161 226 l 1161 7 q 1153 0 1161 0 l 1124 0 l 1122 0 l 1028 0 q 1019 7 1022 0 q 1025 14 1019 14 q 1039 19 1032 17 q 1051 28 1046 22 q 1079 72 1071 43 l 1058 72 q 1038 40 1051 50 q 993 28 1018 28 q 975 29 983 28 q 960 33 967 31 q 935 53 944 42 q 918 79 925 63 q 916 94 917 86 q 915 110 915 101 q 924 117 915 117 l 1085 117 q 1081 151 1085 132 q 1075 171 1078 161 q 1065 190 1072 181 q 1035 219 1054 210 q 989 232 1019 232 q 950 222 972 232 q 921 200 931 214 q 899 165 908 188 q 892 122 892 142 q 899 76 892 100 q 906 57 901 65 q 917 40 911 49 q 949 18 932 28 q 954 17 951 18 q 960 14 957 15 q 964 7 964 14 q 956 0 960 0 l 856 0 l 771 0 q 761 7 768 0 q 768 14 761 14 q 779 19 774 17 q 792 25 785 22 q 802 33 797 29 q 811 44 807 38 q 816 57 814 50 q 818 74 818 64 q 813 97 818 88 q 806 106 808 101 q 799 113 803 110 q 775 122 789 118 q 762 127 768 125 q 749 131 756 129 q 735 133 742 132 q 722 136 729 135 q 711 139 717 138 q 699 143 706 140 q 687 149 692 146 q 679 156 682 151 q 669 176 669 165 q 676 196 669 189 q 689 207 683 203 q 698 210 693 208 q 707 213 703 213 q 726 214 714 214 q 735 213 731 214 q 746 213 740 213 q 764 203 757 208 q 772 198 769 201 q 779 190 775 194 q 782 183 781 186 q 785 175 783 181 l 807 175 q 804 188 806 182 q 799 197 803 194 q 783 217 793 211 q 756 228 767 226 q 740 231 749 229 q 722 232 732 232 q 708 231 715 232 q 694 228 701 229 q 681 222 688 225 q 669 217 675 219 q 651 200 660 211 q 647 175 647 189 q 656 144 647 153 q 681 129 664 133 q 714 118 694 121 q 733 115 724 117 q 749 110 742 113 q 765 104 758 107 q 779 97 772 101 q 793 69 793 86 q 786 46 793 54 q 780 40 783 43 q 771 33 776 36 q 751 31 760 31 q 741 28 746 28 q 732 28 736 28 q 719 28 725 28 q 707 31 714 28 q 697 33 701 32 q 686 39 692 35 q 677 45 682 42 q 669 54 672 49 q 664 71 664 63 l 642 71 q 644 58 643 64 q 649 46 646 51 q 658 35 653 40 q 668 25 663 31 q 693 14 676 21 q 699 7 699 14 q 689 0 699 0 l 604 0 l 603 0 l 572 0 q 565 7 565 0 l 565 26 l 563 25 q 547 31 553 25 q 541 40 542 33 q 540 51 540 47 l 540 164 l 540 176 q 539 191 540 182 q 529 210 538 200 q 461 233 510 231 q 420 226 438 233 q 390 208 403 219 q 382 190 383 200 q 378 174 381 181 l 400 174 q 421 207 404 196 q 453 215 435 215 l 458 215 q 482 214 469 215 q 506 203 494 213 q 518 176 517 192 q 513 149 521 161 q 494 138 508 140 q 458 132 481 135 q 433 130 444 131 q 413 125 422 129 q 381 106 393 118 q 367 67 369 94 q 369 44 365 53 q 381 28 374 35 q 397 14 388 21 q 403 6 403 13 q 394 0 401 0 l 329 0 l 328 0 l 213 0 q 206 7 208 0 q 211 14 206 14 q 253 39 233 22 q 290 118 282 68 l 264 118 q 262 101 264 108 q 257 86 260 94 q 248 69 253 76 q 238 54 243 61 q 207 35 221 40 q 167 28 186 28 q 115 39 138 28 q 81 69 93 50 q 61 113 65 86 q 56 140 57 126 q 54 165 54 153 q 56 191 54 178 q 61 215 57 204 q 81 258 65 239 q 115 288 94 278 q 139 297 126 293 q 167 300 151 300 q 228 281 201 300 q 260 233 251 263 l 286 233 q 281 251 285 243 q 274 265 278 258 q 247 294 263 285 q 231 305 240 300 q 211 313 222 310 q 167 319 188 319 q 135 316 151 319 q 107 307 119 313 q 63 274 82 296 q 36 224 47 254 q 28 163 28 194 q 36 100 28 129 q 47 75 40 88 q 61 51 53 63 q 103 19 82 31 q 110 17 106 18 q 117 14 114 15 q 122 7 122 14 q 115 0 118 0 l -7 0 q -15 7 -15 0 l -15 8 l -15 11 l -15 318 l -15 440 l -15 442 q -4 451 -15 451 l 28 451 l 28 890 q 39 900 28 900 l 236 900 q 347 861 306 900 q 383 756 383 825 q 347 650 383 690 q 238 613 310 613 l 236 613 l 110 613 l 110 451 l 415 451 l 417 451 l 449 451 l 449 767 q 460 776 449 776 l 513 776 q 525 767 525 776 l 525 451 l 556 451 l 557 451 l 633 451 q 616 467 624 458 q 603 486 608 475 q 589 542 592 507 q 592 549 589 546 q 601 553 594 553 l 654 553 q 664 544 664 553 q 671 519 664 529 q 688 503 676 508 q 710 494 697 494 q 726 491 718 492 q 740 490 733 490 q 753 490 747 490 q 765 493 760 490 q 777 495 772 494 q 788 497 782 496 q 797 503 793 500 q 804 510 800 507 q 807 528 807 515 q 797 551 807 544 q 781 560 790 557 q 761 567 772 563 q 738 572 750 569 q 710 579 725 575 q 683 585 697 582 q 657 593 669 588 q 615 624 631 604 q 596 679 596 646 q 610 728 596 707 q 640 760 619 749 q 660 771 649 767 q 682 779 671 775 q 728 783 707 783 q 781 779 757 783 q 826 761 806 774 q 858 725 846 749 q 868 700 865 714 q 872 671 871 686 q 869 663 872 668 q 863 660 868 660 l 807 660 q 797 671 800 660 q 792 690 797 679 q 785 699 788 696 q 778 704 782 701 q 767 708 772 707 q 756 711 763 710 q 732 715 744 715 q 722 715 726 715 q 710 714 717 714 q 699 710 704 711 q 690 706 694 708 q 679 697 683 703 q 675 683 675 694 q 681 669 675 674 q 701 657 690 658 q 717 651 710 654 q 735 646 725 649 q 753 642 744 644 q 772 638 763 640 q 792 633 783 636 q 813 626 801 631 q 833 619 824 624 q 850 610 842 615 q 864 596 857 603 q 876 579 871 589 q 888 535 888 560 q 872 481 888 503 q 846 451 861 461 l 918 451 l 1022 451 q 1011 471 1017 457 q 1007 510 1007 488 l 1007 706 l 963 706 q 953 717 953 706 l 953 764 q 963 776 953 776 l 1007 776 l 1007 864 q 1018 874 1007 874 l 1071 874 q 1083 864 1083 874 l 1083 776 l 1136 776 q 1146 764 1146 776 l 1146 717 q 1136 706 1146 706 l 1083 706 l 1083 515 l 1083 503 l 1085 501 q 1092 497 1085 501 l 1111 497 l 1136 497 q 1146 488 1146 497 l 1146 451 l 1178 451 l 1181 451 l 1282 451 q 1268 462 1275 456 q 1256 475 1261 468 q 1236 501 1244 486 q 1222 532 1228 515 q 1215 565 1217 547 q 1214 601 1214 583 q 1215 638 1214 621 q 1222 672 1217 656 q 1236 703 1228 689 q 1256 731 1244 718 q 1308 769 1275 754 q 1381 783 1340 783 q 1454 769 1422 783 q 1507 731 1488 754 q 1526 703 1518 718 q 1539 672 1535 689 q 1548 638 1546 656 q 1550 601 1550 621 q 1548 565 1550 583 q 1539 532 1546 547 q 1526 501 1535 515 q 1507 475 1518 486 q 1494 462 1501 468 q 1481 451 1488 456 l 1582 451 q 1593 442 1590 451 l 1593 390 l 1593 318 z "},"":{"ha":507,"x_min":-21,"x_max":528,"o":"m 507 0 l 0 0 q -15 6 -8 0 q -21 21 -21 13 q -15 36 -21 31 q 0 42 -8 42 l 507 42 q 522 36 515 42 q 528 21 528 31 q 522 6 528 13 q 507 0 515 0 m 374 551 q 324 569 342 551 q 314 583 318 575 q 297 573 306 578 q 281 565 289 568 q 206 551 247 551 q 158 557 179 551 q 114 576 133 563 q 83 614 96 590 q 74 667 74 635 q 85 724 74 699 q 118 761 97 746 q 161 782 138 774 q 183 787 172 785 q 206 792 194 789 q 228 796 217 794 q 250 799 239 797 q 268 801 260 800 q 283 804 276 803 q 300 813 293 808 q 303 821 303 815 q 299 840 303 833 q 289 850 294 846 q 271 856 282 853 q 260 856 265 856 q 247 857 254 857 q 199 846 218 857 q 190 838 196 844 q 183 813 185 832 q 177 799 183 804 q 163 793 171 793 l 107 793 q 92 799 97 793 q 86 814 86 804 q 101 876 88 850 q 140 919 118 904 q 192 942 161 933 q 251 947 218 947 q 275 947 263 947 q 300 944 288 947 q 347 928 326 940 q 385 893 371 915 q 399 833 399 869 l 399 658 q 399 649 399 653 q 400 642 400 644 q 403 642 401 642 q 407 643 404 643 q 425 640 415 647 q 433 624 433 636 l 433 581 q 424 563 433 568 q 374 551 404 551 m 326 644 q 333 643 331 644 q 347 624 347 639 q 353 600 347 604 q 374 593 358 593 q 392 594 388 593 l 392 600 q 367 611 374 601 q 360 625 361 621 q 358 640 358 632 q 357 658 357 647 l 357 833 q 350 871 357 857 q 328 892 342 885 q 293 903 313 900 q 272 906 282 906 q 251 906 263 906 q 201 901 224 906 q 181 894 190 899 q 164 885 171 890 q 139 857 147 875 q 131 835 132 846 l 144 835 q 159 865 150 854 q 178 882 168 876 q 247 899 207 899 q 262 898 254 899 q 278 896 269 897 q 308 886 294 893 q 333 861 325 878 q 344 821 344 846 q 339 796 344 806 q 328 782 333 786 q 294 764 317 771 q 276 760 286 761 q 254 757 265 758 q 234 755 244 756 q 213 751 224 754 l 213 750 q 192 747 201 749 q 172 742 182 744 q 156 735 164 739 q 142 726 149 732 q 122 704 131 719 q 115 667 115 692 q 121 632 115 644 q 129 619 125 625 q 139 610 133 614 q 168 597 151 601 q 206 593 185 593 q 236 595 221 593 q 264 604 251 597 q 310 638 293 615 q 326 644 317 644 z "},"":{"ha":1222,"x_min":-21,"x_max":1243,"o":"m 1222 42 q 1237 36 1231 42 q 1243 21 1243 31 q 1237 6 1243 13 q 1222 0 1231 0 l 1140 0 q 1132 3 1138 0 l 624 233 q 611 253 611 240 q 624 271 611 265 l 1119 497 l 1119 532 l 554 276 l 554 229 l 972 40 q 983 17 988 32 q 963 0 981 0 l 715 0 l 713 0 l 689 0 q 681 3 686 0 l 172 233 q 160 253 160 240 q 172 271 160 265 l 668 497 l 668 532 l 103 276 l 103 229 l 521 40 q 532 17 536 32 q 511 0 529 0 l 0 0 q -15 6 -8 0 q -21 21 -21 13 q -15 36 -21 31 q 0 42 -8 42 l 415 42 l 72 196 q 61 215 61 203 l 61 289 q 72 308 61 304 l 681 583 q 700 582 692 588 q 710 565 710 576 l 710 483 q 697 464 710 469 l 231 253 l 693 42 l 771 42 l 774 42 l 867 42 l 524 196 q 513 215 513 203 l 513 289 q 524 308 513 304 l 1132 583 q 1151 582 1143 588 q 1161 565 1161 576 l 1161 483 q 1149 464 1161 469 l 682 253 l 1144 42 l 1222 42 l 1222 42 z "},"":{"ha":715,"x_min":-21,"x_max":736,"o":"m 0 0 q -15 6 -10 0 q -21 21 -21 13 q 0 42 -21 42 l 60 42 l 60 111 q 66 126 60 119 q 81 132 72 132 l 489 132 q 468 168 482 150 q 415 222 449 196 q 383 247 400 235 q 346 269 365 258 q 306 294 326 282 q 267 317 286 306 q 228 344 247 331 q 189 371 208 357 q 152 402 169 386 q 119 436 135 418 q 71 518 89 472 q 51 625 51 568 q 75 740 51 689 q 101 785 86 764 q 136 822 117 806 q 228 874 174 854 q 338 890 279 890 q 465 867 407 890 q 560 797 522 842 q 617 694 597 758 q 629 634 625 665 q 631 568 633 603 q 624 554 631 560 q 610 549 618 549 l 508 549 q 493 554 501 549 q 488 569 488 560 q 481 640 489 603 q 454 701 472 676 q 434 725 444 714 q 408 743 424 736 q 343 760 383 760 q 314 757 328 760 q 288 750 300 754 q 242 722 261 740 q 213 681 222 706 q 200 626 200 657 q 213 557 200 586 q 250 501 226 525 q 314 447 276 474 q 357 418 333 433 q 407 386 381 403 q 451 358 429 372 q 493 329 472 344 q 569 256 536 296 q 601 210 588 235 q 626 157 615 185 q 642 104 636 133 q 653 42 649 75 l 715 42 q 730 36 724 42 q 736 21 736 31 q 730 6 736 13 q 715 0 724 0 l 633 0 q 613 19 615 0 q 603 86 610 56 q 588 142 597 117 q 565 189 578 167 q 538 229 553 211 q 505 265 522 249 q 468 296 488 281 q 385 350 428 325 q 333 383 357 368 q 290 413 310 399 q 251 442 268 428 q 219 472 233 457 q 175 542 189 504 q 163 581 167 560 q 160 626 160 603 q 174 699 160 667 q 214 753 192 732 q 242 774 226 765 q 274 789 257 782 q 343 801 307 801 q 429 779 392 801 q 489 725 465 758 q 521 650 511 690 q 529 590 526 621 l 590 590 q 587 638 590 615 q 576 683 583 661 q 529 771 563 731 q 449 828 497 807 q 338 849 400 849 q 288 845 311 849 q 240 833 264 842 q 164 792 194 818 q 113 722 131 763 q 93 625 93 679 q 108 535 93 574 q 151 463 125 493 q 181 432 165 447 q 214 404 196 417 q 251 378 232 390 q 289 353 269 365 q 328 329 308 342 q 367 306 347 317 q 442 254 411 279 q 474 225 460 240 q 501 193 489 210 q 536 115 528 161 q 532 97 538 108 q 515 90 525 90 l 101 90 l 101 21 q 95 6 101 13 q 81 0 89 0 l 0 0 l 0 0 z "},"":{"ha":582,"x_min":-21,"x_max":603,"o":"m 499 254 l 83 254 q 69 260 75 254 q 63 275 63 267 l 63 371 q 69 385 63 379 q 83 392 75 392 l 499 392 q 513 385 507 392 q 519 371 519 379 l 519 275 q 513 260 519 267 q 499 254 507 254 m 104 296 l 478 296 l 478 350 l 104 350 l 104 296 m 582 0 l 0 0 q -15 6 -8 0 q -21 21 -21 13 q -15 35 -21 29 q 0 42 -8 42 l 582 42 q 597 35 590 42 q 603 21 603 29 q 597 6 603 13 q 582 0 590 0 z "},"":{"ha":715,"x_min":-21,"x_max":736,"o":"m 0 0 q -15 6 -10 0 q -21 21 -21 13 q 0 42 -21 42 l 60 42 l 60 111 q 66 126 60 119 q 81 132 72 132 l 489 132 q 468 168 482 150 q 415 222 449 196 q 383 247 400 235 q 346 269 365 258 q 306 294 326 282 q 267 317 286 306 q 228 344 247 331 q 189 371 208 357 q 152 402 169 386 q 119 436 135 418 q 71 518 89 472 q 51 625 51 568 q 75 740 51 689 q 101 785 86 764 q 136 822 117 806 q 228 874 174 854 q 338 890 279 890 q 465 867 407 890 q 560 797 522 842 q 617 694 597 758 q 629 634 625 665 q 631 568 633 603 q 624 554 631 560 q 610 549 618 549 l 508 549 q 493 554 501 549 q 488 569 488 560 q 481 640 489 603 q 454 701 472 676 q 434 725 444 714 q 408 743 424 736 q 343 760 383 760 q 314 757 328 760 q 288 750 300 754 q 242 722 261 740 q 213 681 222 706 q 200 626 200 657 q 213 557 200 586 q 250 501 226 525 q 314 447 276 474 q 357 418 333 433 q 407 386 381 403 q 451 358 429 372 q 493 329 472 344 q 569 256 536 296 q 601 210 588 235 q 626 157 615 185 q 642 104 636 133 q 653 42 649 75 l 715 42 q 730 36 724 42 q 736 21 736 31 q 730 6 736 13 q 715 0 724 0 l 633 0 q 613 19 615 0 q 603 86 610 56 q 588 142 597 117 q 565 189 578 167 q 538 229 553 211 q 505 265 522 249 q 468 296 488 281 q 385 350 428 325 q 333 383 357 368 q 290 413 310 399 q 251 442 268 428 q 219 472 233 457 q 175 542 189 504 q 163 581 167 560 q 160 626 160 603 q 174 699 160 667 q 214 753 192 732 q 242 774 226 765 q 274 789 257 782 q 343 801 307 801 q 429 779 392 801 q 489 725 465 758 q 521 650 511 690 q 529 590 526 621 l 590 590 q 587 638 590 615 q 576 683 583 661 q 529 771 563 731 q 449 828 497 807 q 338 849 400 849 q 288 845 311 849 q 240 833 264 842 q 164 792 194 818 q 113 722 131 763 q 93 625 93 679 q 108 535 93 574 q 151 463 125 493 q 181 432 165 447 q 214 404 196 417 q 251 378 232 390 q 289 353 269 365 q 328 329 308 342 q 367 306 347 317 q 442 254 411 279 q 474 225 460 240 q 501 193 489 210 q 536 115 528 161 q 532 97 538 108 q 515 90 525 90 l 101 90 l 101 21 q 95 6 101 13 q 81 0 89 0 l 0 0 l 0 0 z "},"":{"ha":789,"x_min":-21,"x_max":810,"o":"m 690 928 l 104 928 q 90 934 96 928 q 83 949 83 940 l 83 1044 q 90 1059 83 1053 q 104 1065 96 1065 l 690 1065 q 705 1059 699 1065 q 711 1044 711 1053 l 711 949 q 705 934 711 940 q 690 928 699 928 m 125 969 l 669 969 l 669 1024 l 125 1024 l 125 969 m 0 0 q -15 6 -8 0 q -21 21 -21 13 q -15 36 -21 31 q 0 42 -8 42 l 789 42 q 803 36 797 42 q 810 21 810 31 q 803 6 810 13 q 789 0 797 0 l 0 0 z "},"":{"ha":521,"x_min":-21,"x_max":542,"o":"m 260 517 q 182 532 221 517 q 119 574 146 546 q 78 638 92 601 q 66 675 69 656 q 63 715 63 694 q 66 754 63 735 q 78 792 69 774 q 119 854 92 826 q 182 897 146 881 q 260 913 221 913 q 338 897 300 913 q 400 854 374 881 q 424 825 413 840 q 442 792 435 810 q 458 715 458 756 q 442 638 458 672 q 424 603 435 618 q 400 574 413 588 q 338 532 372 546 q 260 517 299 517 m 260 871 q 199 858 228 871 q 149 825 169 846 q 115 775 128 804 q 106 746 108 761 q 104 715 104 731 q 115 653 104 683 q 149 603 129 622 q 199 571 171 581 q 260 558 228 558 q 321 571 293 558 q 369 603 347 581 q 404 654 392 625 q 417 715 417 681 q 404 775 417 747 q 369 825 392 806 q 321 858 349 846 q 260 871 292 871 m 260 624 q 239 625 249 624 q 221 631 229 626 q 190 651 203 639 q 172 681 179 664 q 165 715 165 694 q 172 749 165 735 q 190 778 179 767 q 221 799 203 790 q 260 807 238 807 q 300 799 281 807 q 329 778 317 790 q 349 749 343 764 q 356 715 356 731 q 349 681 356 699 q 329 651 343 668 q 300 631 317 639 q 260 624 285 624 m 260 765 q 238 761 246 765 q 228 756 232 758 q 221 749 224 753 q 210 733 214 742 q 208 724 208 728 q 207 715 207 719 q 210 697 207 708 q 221 681 214 688 q 238 669 225 674 q 260 665 246 665 q 283 669 272 665 q 299 681 294 675 q 310 697 306 685 q 314 715 314 706 q 310 733 314 722 q 299 749 304 744 q 292 756 296 753 q 283 761 288 758 q 260 765 272 765 m 521 0 l 0 0 q -15 6 -10 0 q -21 21 -21 13 q -15 35 -21 29 q 0 42 -10 42 l 521 42 q 535 35 529 42 q 542 21 542 29 q 535 6 542 13 q 521 0 529 0 z "},"":{"ha":768,"x_min":-21,"x_max":789,"o":"m 768 0 l 685 0 q 670 6 676 0 q 664 21 664 13 l 664 82 l 425 82 q 404 103 404 82 l 404 297 q 425 318 404 318 l 664 318 l 664 358 l 425 358 q 410 365 415 358 q 404 379 404 371 l 404 557 l 364 557 l 364 379 q 358 365 364 371 q 343 358 353 358 l 104 358 l 104 318 l 343 318 q 364 297 364 318 l 364 103 q 343 82 364 82 l 104 82 l 104 21 q 98 6 104 13 q 83 0 92 0 l 0 0 q -15 6 -10 0 q -21 21 -21 13 q 0 42 -21 42 l 63 42 l 63 103 q 68 117 63 111 q 83 124 74 124 l 322 124 l 322 276 l 83 276 q 68 283 74 276 q 63 297 63 289 l 63 379 q 68 394 63 388 q 83 400 74 400 l 322 400 l 322 578 q 328 592 322 586 q 343 599 335 599 l 425 599 q 440 592 433 599 q 446 578 446 586 l 446 400 l 685 400 q 699 394 693 400 q 706 379 706 388 l 706 297 q 699 283 706 289 q 685 276 693 276 l 446 276 l 446 124 l 685 124 q 699 117 693 124 q 706 103 706 111 l 706 42 l 768 42 q 783 36 776 42 q 789 21 789 31 q 783 6 789 13 q 768 0 776 0 z "},"":{"ha":717,"x_min":-21,"x_max":736,"o":"m 0 0 q -15 6 -10 0 q -21 21 -21 13 q 0 42 -21 42 l 60 42 l 60 111 q 66 126 60 119 q 81 132 72 132 l 489 132 q 468 168 482 150 q 415 222 449 196 q 383 247 400 235 q 346 269 365 258 q 306 294 326 282 q 267 317 286 306 q 228 344 247 331 q 189 371 208 357 q 152 402 169 386 q 119 436 135 418 q 71 518 89 472 q 51 625 51 568 q 75 740 51 689 q 101 785 86 764 q 136 822 117 806 q 228 874 174 854 q 338 890 279 890 q 465 867 407 890 q 560 797 522 842 q 617 694 597 758 q 629 634 625 665 q 631 568 633 603 q 624 554 631 560 q 610 549 618 549 l 508 549 q 493 554 501 549 q 488 569 488 560 q 481 640 489 603 q 454 701 472 676 q 434 725 444 714 q 408 743 424 736 q 343 760 383 760 q 314 757 328 760 q 288 750 300 754 q 242 722 261 740 q 213 681 222 706 q 200 626 200 657 q 213 557 200 586 q 250 501 226 525 q 314 447 276 474 q 357 418 333 433 q 407 386 381 403 q 451 358 429 372 q 493 329 472 344 q 569 256 536 296 q 601 210 588 235 q 626 157 615 185 q 642 104 636 133 q 653 42 649 75 l 715 42 q 730 36 724 42 q 736 21 736 31 q 730 6 736 13 q 715 0 724 0 l 633 0 q 613 19 615 0 q 603 86 610 56 q 588 142 597 117 q 565 189 578 167 q 538 229 553 211 q 505 265 522 249 q 468 296 488 281 q 385 350 428 325 q 333 383 357 368 q 290 413 310 399 q 251 442 268 428 q 219 472 233 457 q 175 542 189 504 q 163 581 167 560 q 160 626 160 603 q 174 699 160 667 q 214 753 192 732 q 242 774 226 765 q 274 789 257 782 q 343 801 307 801 q 429 779 392 801 q 489 725 465 758 q 521 650 511 690 q 529 590 526 621 l 590 590 q 587 638 590 615 q 576 683 583 661 q 529 771 563 731 q 449 828 497 807 q 338 849 400 849 q 288 845 311 849 q 240 833 264 842 q 164 792 194 818 q 113 722 131 763 q 93 625 93 679 q 108 535 93 574 q 151 463 125 493 q 181 432 165 447 q 214 404 196 417 q 251 378 232 390 q 289 353 269 365 q 328 329 308 342 q 367 306 347 317 q 442 254 411 279 q 474 225 460 240 q 501 193 489 210 q 536 115 528 161 q 532 97 538 108 q 515 90 525 90 l 101 90 l 101 21 q 95 6 101 13 q 81 0 89 0 l 0 0 l 0 0 z "},"":{"ha":715,"x_min":-21,"x_max":736,"o":"m 0 0 q -15 6 -10 0 q -21 21 -21 13 q 0 42 -21 42 l 60 42 l 60 111 q 66 126 60 119 q 81 132 72 132 l 489 132 q 468 168 482 150 q 415 222 449 196 q 383 247 400 235 q 346 269 365 258 q 306 294 326 282 q 267 317 286 306 q 228 344 247 331 q 189 371 208 357 q 152 402 169 386 q 119 436 135 418 q 71 518 89 472 q 51 625 51 568 q 75 740 51 689 q 101 785 86 764 q 136 822 117 806 q 228 874 174 854 q 338 890 279 890 q 465 867 407 890 q 560 797 522 842 q 617 694 597 758 q 629 634 625 665 q 631 568 633 603 q 624 554 631 560 q 610 549 618 549 l 508 549 q 493 554 501 549 q 488 569 488 560 q 481 640 489 603 q 454 701 472 676 q 434 725 444 714 q 408 743 424 736 q 343 760 383 760 q 314 757 328 760 q 288 750 300 754 q 242 722 261 740 q 213 681 222 706 q 200 626 200 657 q 213 557 200 586 q 250 501 226 525 q 314 447 276 474 q 357 418 333 433 q 407 386 381 403 q 451 358 429 372 q 493 329 472 344 q 569 256 536 296 q 601 210 588 235 q 626 157 615 185 q 642 104 636 133 q 653 42 649 75 l 715 42 q 730 36 724 42 q 736 21 736 31 q 730 6 736 13 q 715 0 724 0 l 633 0 q 613 19 615 0 q 603 86 610 56 q 588 142 597 117 q 565 189 578 167 q 538 229 553 211 q 505 265 522 249 q 468 296 488 281 q 385 350 428 325 q 333 383 357 368 q 290 413 310 399 q 251 442 268 428 q 219 472 233 457 q 175 542 189 504 q 163 581 167 560 q 160 626 160 603 q 174 699 160 667 q 214 753 192 732 q 242 774 226 765 q 274 789 257 782 q 343 801 307 801 q 429 779 392 801 q 489 725 465 758 q 521 650 511 690 q 529 590 526 621 l 590 590 q 587 638 590 615 q 576 683 583 661 q 529 771 563 731 q 449 828 497 807 q 338 849 400 849 q 288 845 311 849 q 240 833 264 842 q 164 792 194 818 q 113 722 131 763 q 93 625 93 679 q 108 535 93 574 q 151 463 125 493 q 181 432 165 447 q 214 404 196 417 q 251 378 232 390 q 289 353 269 365 q 328 329 308 342 q 367 306 347 317 q 442 254 411 279 q 474 225 460 240 q 501 193 489 210 q 536 115 528 161 q 532 97 538 108 q 515 90 525 90 l 101 90 l 101 21 q 95 6 101 13 q 81 0 89 0 l 0 0 l 0 0 z "},"":{"ha":400,"x_min":-21,"x_max":421,"o":"m 160 918 l 83 918 q 65 928 71 918 q 67 949 60 940 l 168 1119 q 186 1131 175 1131 l 317 1131 q 336 1118 329 1131 q 332 1094 340 1106 l 175 924 q 160 918 171 918 m 121 960 l 151 960 l 269 1089 l 199 1089 l 121 960 m 400 0 l 0 0 q -15 6 -8 0 q -21 21 -21 13 q -15 35 -21 29 q 0 42 -8 42 l 400 42 q 415 35 408 42 q 421 21 421 29 q 415 6 421 13 q 400 0 408 0 z "},"":{"ha":779,"x_min":-21,"x_max":800,"o":"m 779 42 q 794 35 788 42 q 800 21 800 29 q 794 6 800 13 q 779 0 788 0 l 696 0 q 681 6 688 0 q 675 21 675 13 l 675 617 l 615 617 l 615 289 q 603 206 615 244 q 564 138 589 165 q 500 92 539 107 q 411 75 463 75 q 304 115 344 75 q 265 219 265 153 l 265 617 l 206 617 l 206 21 l 206 -215 q 199 -230 206 -224 q 185 -236 193 -236 l 83 -236 q 68 -230 74 -236 q 63 -215 63 -224 l 63 0 l 0 0 q -15 6 -10 0 q -21 21 -21 13 q -15 35 -21 29 q 0 42 -10 42 l 83 42 q 98 35 92 42 q 104 21 104 29 l 104 -194 l 164 -194 l 164 21 l 164 638 q 185 658 164 658 l 286 658 q 301 653 294 658 q 307 638 307 647 l 307 219 q 335 144 307 171 q 411 117 361 117 q 483 129 454 117 q 510 144 499 136 q 533 164 522 153 q 551 189 543 175 q 563 218 558 203 q 574 289 574 254 l 574 638 q 594 658 574 658 l 696 658 q 710 653 704 658 q 717 638 717 647 l 717 42 l 779 42 l 779 42 z "},"":{"ha":725,"x_min":-21,"x_max":746,"o":"m 725 0 l 642 0 q 626 6 632 0 q 621 21 621 13 l 621 901 l 581 901 l 581 21 q 574 6 581 13 q 560 0 568 0 q 545 6 551 0 q 539 21 539 13 l 539 922 q 545 937 539 931 q 560 943 551 943 l 642 943 q 656 937 650 943 q 663 922 663 931 l 663 42 l 725 42 q 740 35 733 42 q 746 21 746 29 q 740 6 746 13 q 725 0 733 0 m 560 0 l 414 0 q 399 6 406 0 q 393 21 393 13 l 393 992 q 399 1007 393 1001 q 414 1013 406 1013 l 621 1013 l 621 1038 l 356 1038 q 169 978 238 1038 q 104 811 104 919 q 121 733 104 768 q 167 669 138 697 q 239 626 197 643 q 333 610 282 610 q 348 604 342 610 q 354 589 354 599 l 354 21 q 348 6 354 13 q 333 0 342 0 l 0 0 q -15 6 -8 0 q -21 21 -21 13 q -15 35 -21 29 q 0 42 -8 42 l 313 42 l 313 569 q 267 576 289 571 q 225 588 244 581 q 139 639 172 607 q 83 715 103 671 q 63 811 63 761 q 143 1010 63 939 q 356 1079 221 1079 l 642 1079 q 656 1073 650 1079 q 663 1058 663 1067 l 663 992 q 656 977 663 983 q 642 971 650 971 l 435 971 l 435 42 l 560 42 q 574 35 568 42 q 581 21 581 29 q 574 6 581 13 q 560 0 568 0 z "},"":{"ha":274,"x_min":-21,"x_max":294,"o":"m 138 263 q 72 290 99 263 q 44 354 44 317 q 72 420 44 393 q 138 447 99 447 q 202 420 175 447 q 229 354 229 393 q 202 290 229 317 q 138 263 175 263 m 138 406 q 101 390 117 406 q 86 354 86 375 q 101 319 86 333 q 138 304 117 304 q 173 319 158 304 q 188 354 188 333 q 173 390 188 375 q 138 406 158 406 m 274 0 l 0 0 q -15 6 -8 0 q -21 21 -21 13 q -15 35 -21 29 q 0 42 -8 42 l 274 42 q 289 35 283 42 q 294 21 294 29 q 289 6 294 13 q 274 0 283 0 z "},"":{"ha":383,"x_min":-21,"x_max":404,"o":"m 383 42 q 398 36 392 42 q 404 21 404 31 q 398 6 404 13 q 383 0 392 0 l 317 0 l 317 -57 q 304 -133 317 -100 q 269 -189 289 -167 q 221 -224 247 -211 q 167 -235 192 -235 l 82 -235 q 67 -229 74 -235 q 61 -214 61 -224 l 61 -143 q 67 -128 61 -133 q 82 -122 74 -122 l 143 -122 q 158 -118 151 -122 q 169 -101 165 -111 q 178 -74 175 -89 q 179 -57 179 -65 q 179 -40 179 -49 l 179 0 l 0 0 q -3 1 -1 0 l -4 1 l -6 1 l -7 1 q -8 3 -7 1 l -10 3 l -11 3 q -12 4 -11 4 l -14 6 l -17 8 l -18 10 q -19 11 -18 11 l -19 13 l -19 14 l -21 14 l -21 17 l -21 18 l -21 19 q -21 25 -21 19 l -21 26 l -21 28 q -19 29 -21 28 l -19 31 q -18 32 -19 32 l -18 33 l -17 35 q -15 36 -17 36 q -14 38 -15 38 q -12 39 -12 38 l -11 39 l -11 40 q -7 42 -8 40 l -4 42 l 153 42 l 200 42 q 215 36 208 42 q 221 21 221 31 l 221 -40 q 221 -59 221 -50 q 218 -79 221 -68 q 214 -99 217 -90 q 208 -118 211 -108 q 185 -150 200 -137 q 143 -164 167 -164 l 103 -164 l 103 -193 l 167 -193 q 204 -185 185 -193 q 239 -160 222 -176 q 253 -141 246 -151 q 265 -117 260 -131 q 275 -57 275 -93 l 275 21 q 281 36 275 31 q 296 42 288 42 l 383 42 l 383 42 z "},"":{"ha":715,"x_min":-21,"x_max":736,"o":"m 0 0 q -15 6 -10 0 q -21 21 -21 13 q 0 42 -21 42 l 60 42 l 60 111 q 66 126 60 119 q 81 132 72 132 l 489 132 q 468 168 482 150 q 415 222 449 196 q 383 247 400 235 q 346 269 365 258 q 306 294 326 282 q 267 317 286 306 q 228 344 247 331 q 189 371 208 357 q 152 402 169 386 q 119 436 135 418 q 71 518 89 472 q 51 625 51 568 q 75 740 51 689 q 101 785 86 764 q 136 822 117 806 q 228 874 174 854 q 338 890 279 890 q 465 867 407 890 q 560 797 522 842 q 617 694 597 758 q 629 634 625 665 q 631 568 633 603 q 624 554 631 560 q 610 549 618 549 l 508 549 q 493 554 501 549 q 488 569 488 560 q 481 640 489 603 q 454 701 472 676 q 434 725 444 714 q 408 743 424 736 q 343 760 383 760 q 314 757 328 760 q 288 750 300 754 q 242 722 261 740 q 213 681 222 706 q 200 626 200 657 q 213 557 200 586 q 250 501 226 525 q 314 447 276 474 q 357 418 333 433 q 407 386 381 403 q 451 358 429 372 q 493 329 472 344 q 569 256 536 296 q 601 210 588 235 q 626 157 615 185 q 642 104 636 133 q 653 42 649 75 l 715 42 q 730 36 724 42 q 736 21 736 31 q 730 6 736 13 q 715 0 724 0 l 633 0 q 613 19 615 0 q 603 86 610 56 q 588 142 597 117 q 565 189 578 167 q 538 229 553 211 q 505 265 522 249 q 468 296 488 281 q 385 350 428 325 q 333 383 357 368 q 290 413 310 399 q 251 442 268 428 q 219 472 233 457 q 175 542 189 504 q 163 581 167 560 q 160 626 160 603 q 174 699 160 667 q 214 753 192 732 q 242 774 226 765 q 274 789 257 782 q 343 801 307 801 q 429 779 392 801 q 489 725 465 758 q 521 650 511 690 q 529 590 526 621 l 590 590 q 587 638 590 615 q 576 683 583 661 q 529 771 563 731 q 449 828 497 807 q 338 849 400 849 q 288 845 311 849 q 240 833 264 842 q 164 792 194 818 q 113 722 131 763 q 93 625 93 679 q 108 535 93 574 q 151 463 125 493 q 181 432 165 447 q 214 404 196 417 q 251 378 232 390 q 289 353 269 365 q 328 329 308 342 q 367 306 347 317 q 442 254 411 279 q 474 225 460 240 q 501 193 489 210 q 536 115 528 161 q 532 97 538 108 q 515 90 525 90 l 101 90 l 101 21 q 95 6 101 13 q 81 0 89 0 l 0 0 l 0 0 z "},"":{"ha":764,"x_min":-21,"x_max":785,"o":"m 283 0 l 0 0 q -15 6 -8 0 q -21 21 -21 13 q -15 35 -21 29 q 0 42 -8 42 l 193 42 q 165 63 178 53 q 142 88 153 74 q 81 196 101 135 q 60 329 60 258 q 81 464 60 401 q 142 574 101 528 q 244 647 183 622 q 382 675 304 675 q 519 647 460 675 q 621 574 578 624 q 682 464 663 528 q 703 329 703 401 q 682 196 703 258 q 621 88 664 135 q 597 63 610 74 q 571 42 585 53 l 764 42 q 778 35 772 42 q 785 21 785 29 q 778 6 785 13 q 764 0 772 0 l 481 0 q 460 18 463 0 q 474 42 457 35 q 503 51 493 46 q 589 114 556 75 q 643 210 624 156 q 661 329 661 263 q 643 451 661 397 q 589 546 624 507 q 503 610 557 586 q 382 633 449 633 q 261 610 315 633 q 174 546 208 586 q 121 451 138 506 q 101 329 101 393 q 106 267 101 297 q 119 210 111 238 q 174 114 138 156 q 261 51 208 74 q 275 47 268 49 q 289 42 282 44 q 304 18 307 35 q 283 0 301 0 z "},"":{"ha":1225,"x_min":-21,"x_max":1246,"o":"m 0 42 l 78 42 l 540 253 l 74 464 q 61 483 61 469 l 61 565 q 71 582 61 575 q 90 583 79 589 l 700 308 q 711 289 711 304 l 711 215 q 700 196 711 203 l 357 42 l 450 42 l 453 42 l 529 42 l 993 253 l 525 464 q 514 483 514 471 l 514 565 q 522 582 514 575 q 543 583 532 588 l 1151 308 q 1164 289 1164 304 l 1164 215 q 1151 196 1164 203 l 808 42 l 1225 42 q 1240 36 1233 42 q 1246 21 1246 31 q 1240 6 1246 13 q 1225 0 1233 0 l 713 0 q 692 17 694 0 q 703 40 688 32 l 1122 229 l 1122 276 l 556 532 l 556 497 l 1053 271 q 1064 253 1064 267 q 1053 233 1064 240 l 543 3 q 535 0 538 0 l 511 0 l 508 0 l 260 0 q 239 17 243 0 q 251 40 236 33 l 669 229 l 669 276 l 103 532 l 103 497 l 600 271 q 613 253 613 265 q 600 233 613 240 l 90 3 q 82 0 85 0 l 0 0 q -15 6 -8 0 q -21 21 -21 13 q -15 36 -21 31 q 0 42 -8 42 z "},"":{"ha":1829,"x_min":-21,"x_max":1850,"o":"m 485 0 l 403 0 q 388 6 394 0 q 382 21 382 13 l 382 849 l 343 849 q 311 779 333 807 q 249 724 288 744 q 210 707 231 714 q 168 697 190 700 q 136 693 153 694 q 103 690 119 692 l 103 650 l 301 650 q 316 644 310 650 q 322 629 322 638 l 322 21 q 316 6 322 13 q 301 0 310 0 l 0 0 q -15 6 -8 0 q -21 21 -21 13 q -15 36 -21 31 q 0 42 -8 42 l 281 42 l 281 608 l 82 608 q 67 615 72 608 q 61 629 61 621 l 61 711 q 67 726 61 719 q 82 732 72 732 q 122 733 101 732 q 163 738 143 735 q 197 747 181 740 q 229 760 214 753 q 278 803 258 778 q 306 874 297 831 q 325 890 308 890 l 403 890 q 424 869 424 890 l 424 42 l 485 42 q 499 36 493 42 q 506 21 506 31 q 499 6 506 13 q 485 0 493 0 m 1088 0 l 653 0 q 635 8 640 0 q 633 28 629 18 l 975 893 l 933 893 l 585 13 q 567 0 579 0 l 485 0 q 470 6 476 0 q 464 21 464 13 q 470 35 464 29 q 485 42 476 42 l 551 42 l 900 922 q 919 935 904 935 l 1007 935 q 1024 926 1017 935 q 1025 907 1031 918 l 683 42 l 1088 42 q 1102 35 1096 42 q 1108 21 1108 29 q 1102 6 1108 13 q 1088 0 1096 0 m 1829 0 l 1633 0 q 1619 6 1625 0 q 1613 21 1613 13 l 1613 221 q 1619 235 1613 229 q 1633 242 1625 242 l 1728 242 l 1728 289 l 1633 289 q 1619 295 1625 289 q 1613 310 1613 301 l 1613 849 l 1563 849 l 1186 311 l 1186 242 l 1538 242 q 1552 235 1546 242 q 1558 221 1558 229 l 1558 21 q 1552 6 1558 13 q 1538 0 1546 0 l 1088 0 q 1073 6 1079 0 q 1067 21 1067 13 q 1073 36 1067 31 q 1088 42 1079 42 l 1517 42 l 1517 200 l 1165 200 q 1151 206 1157 200 q 1144 221 1144 211 l 1144 318 q 1149 331 1144 324 l 1535 882 q 1551 890 1540 890 l 1633 890 q 1648 885 1642 890 q 1654 869 1654 879 l 1654 331 l 1749 331 q 1763 324 1757 331 q 1769 310 1769 318 l 1769 221 q 1763 206 1769 211 q 1749 200 1757 200 l 1654 200 l 1654 42 l 1829 42 q 1850 21 1850 42 q 1844 6 1850 13 q 1829 0 1839 0 z "},"":{"ha":1804,"x_min":-21,"x_max":1825,"o":"m 485 0 l 403 0 q 388 6 394 0 q 382 21 382 13 l 382 849 l 343 849 q 311 779 333 807 q 249 724 288 744 q 210 707 231 714 q 168 697 190 700 q 136 693 153 694 q 103 690 119 692 l 103 650 l 301 650 q 316 644 310 650 q 322 629 322 638 l 322 21 q 316 6 322 13 q 301 0 310 0 l 0 0 q -15 6 -8 0 q -21 21 -21 13 q -15 36 -21 31 q 0 42 -8 42 l 281 42 l 281 608 l 82 608 q 67 615 72 608 q 61 629 61 621 l 61 711 q 67 726 61 719 q 82 732 72 732 q 122 733 101 732 q 163 738 143 735 q 197 747 181 740 q 229 760 214 753 q 278 803 258 778 q 306 874 297 831 q 325 890 308 890 l 403 890 q 424 869 424 890 l 424 42 l 485 42 q 499 36 493 42 q 506 21 506 31 q 499 6 506 13 q 485 0 493 0 m 1088 0 l 653 0 q 635 8 640 0 q 633 28 629 18 l 975 893 l 933 893 l 585 13 q 567 0 579 0 l 485 0 q 470 6 476 0 q 464 21 464 13 q 470 35 464 29 q 485 42 476 42 l 551 42 l 900 922 q 919 935 904 935 l 1007 935 q 1024 926 1017 935 q 1025 907 1031 918 l 683 42 l 1088 42 q 1102 35 1096 42 q 1108 21 1108 29 q 1102 6 1108 13 q 1088 0 1096 0 m 1804 0 l 1722 0 q 1708 6 1714 0 q 1701 21 1701 13 l 1701 90 l 1288 90 q 1271 97 1278 90 q 1267 115 1265 106 q 1301 194 1275 160 q 1328 225 1314 210 q 1361 254 1343 240 q 1397 281 1378 268 q 1436 306 1415 294 q 1475 329 1456 317 q 1514 353 1494 342 q 1552 378 1533 365 q 1589 404 1571 390 q 1651 463 1624 431 q 1676 497 1665 478 q 1694 535 1686 515 q 1706 577 1703 554 q 1710 626 1710 600 q 1692 722 1710 682 q 1669 760 1682 743 q 1640 792 1656 776 q 1563 833 1607 818 q 1515 845 1539 842 q 1465 849 1492 849 q 1354 828 1401 849 q 1274 771 1306 807 q 1226 683 1240 731 q 1213 590 1213 642 l 1274 590 q 1282 650 1275 621 q 1314 725 1292 690 q 1374 779 1336 757 q 1460 801 1411 801 q 1531 789 1497 801 q 1589 754 1565 776 q 1629 699 1614 731 q 1644 626 1644 665 q 1629 542 1644 581 q 1585 472 1615 504 q 1552 442 1569 457 q 1514 413 1535 428 q 1469 383 1493 399 q 1418 351 1446 368 l 1418 350 q 1335 296 1374 325 q 1298 265 1315 281 q 1265 229 1281 249 q 1215 143 1235 194 q 1190 19 1194 93 q 1183 6 1189 13 q 1169 0 1176 0 l 1088 0 q 1073 6 1079 0 q 1067 21 1067 13 q 1073 36 1067 31 q 1088 42 1079 42 l 1150 42 q 1160 104 1153 75 q 1176 158 1167 133 q 1201 210 1188 186 q 1233 256 1215 235 q 1269 295 1250 276 q 1310 329 1288 314 q 1396 386 1354 361 q 1447 418 1424 403 q 1490 447 1469 433 q 1526 474 1510 461 q 1554 501 1542 488 q 1590 557 1578 526 q 1603 626 1603 586 q 1592 681 1603 656 q 1561 722 1579 707 q 1515 750 1544 739 q 1489 757 1503 754 q 1460 760 1475 760 q 1394 743 1421 760 q 1369 725 1381 736 q 1349 701 1358 714 q 1322 640 1331 675 q 1315 571 1313 604 q 1310 556 1315 561 q 1294 549 1303 549 l 1193 549 q 1178 554 1185 549 q 1172 568 1172 560 q 1186 696 1168 639 q 1242 799 1206 757 q 1338 867 1283 843 q 1465 890 1396 890 q 1575 874 1525 890 q 1667 822 1628 857 q 1729 740 1706 789 q 1751 626 1751 692 q 1733 518 1751 564 q 1683 436 1714 471 q 1614 371 1654 400 q 1576 344 1594 357 q 1536 318 1557 331 l 1536 317 q 1497 294 1517 306 q 1457 269 1476 282 q 1420 247 1438 258 q 1388 222 1403 235 q 1335 168 1354 196 q 1314 132 1321 150 l 1722 132 q 1738 126 1732 132 q 1743 111 1743 119 l 1743 42 l 1804 42 q 1819 36 1813 42 q 1825 21 1825 31 q 1819 6 1825 13 q 1804 0 1813 0 z "},"":{"ha":2082,"x_min":-21,"x_max":2103,"o":"m 738 0 l 467 0 q 446 18 449 0 q 461 42 443 36 q 466 43 464 43 q 471 44 468 43 q 517 63 496 51 q 557 89 538 74 q 614 163 593 118 q 635 265 635 206 q 601 388 635 335 q 499 451 569 435 q 482 471 482 454 l 482 474 q 494 493 482 486 q 569 553 542 515 q 599 643 599 592 q 581 736 599 699 q 533 799 565 772 q 458 836 503 822 q 361 849 413 849 q 258 831 300 849 q 185 779 214 813 q 139 700 156 746 q 122 617 126 663 l 181 617 q 185 645 182 632 q 190 672 188 658 q 224 738 201 711 q 281 783 246 767 q 361 801 315 801 q 482 763 432 801 q 533 643 533 722 q 518 575 533 606 q 476 524 501 544 q 449 506 464 514 q 418 494 435 499 q 385 487 403 489 q 351 485 368 485 l 328 485 l 328 443 q 347 444 338 444 q 368 444 357 444 q 444 433 407 444 q 510 399 485 419 q 553 340 536 375 q 569 261 569 304 q 551 183 569 215 q 507 125 535 149 q 442 89 481 103 q 364 76 404 76 q 215 135 267 76 q 164 263 169 189 l 103 263 q 119 174 106 213 q 142 130 129 150 q 171 94 154 110 q 253 46 206 63 q 260 44 257 44 q 268 42 264 43 q 283 18 286 36 q 263 0 281 0 l 0 0 q -15 6 -8 0 q -21 21 -21 13 q -15 36 -21 31 q 0 42 -8 42 l 169 42 q 156 53 163 47 q 143 64 150 58 q 81 158 101 103 q 61 283 60 217 q 67 299 61 293 q 82 304 74 304 l 183 304 q 198 299 192 304 q 204 285 204 293 q 247 163 206 210 q 364 118 286 118 q 428 128 400 118 q 479 157 460 139 q 514 201 500 172 q 528 261 528 225 q 515 322 528 294 q 482 367 503 349 q 432 393 463 385 q 368 403 404 403 q 308 399 338 403 q 293 404 299 399 q 286 419 286 410 l 286 506 q 293 522 286 515 q 311 526 301 528 l 317 526 l 351 526 q 379 528 365 526 q 406 533 393 529 q 451 557 431 542 q 481 593 471 574 q 492 643 492 618 q 456 729 492 703 q 361 760 419 760 q 300 746 324 760 q 257 713 274 733 q 231 661 239 690 q 222 596 222 629 q 216 581 222 588 q 201 575 210 575 l 100 575 q 85 582 92 575 q 79 597 78 589 q 100 714 82 663 q 153 807 119 769 q 242 868 189 847 q 361 890 292 890 q 469 876 422 890 q 558 831 521 863 q 619 753 596 803 q 640 643 640 707 q 603 528 640 578 q 551 478 583 500 q 636 410 606 456 q 676 265 676 349 q 651 144 676 196 q 583 57 628 94 q 573 49 578 53 q 564 42 568 46 l 738 42 q 752 36 746 42 q 758 21 758 31 q 752 6 758 13 q 738 0 746 0 m 1340 0 l 906 0 q 888 8 893 0 q 886 28 882 18 l 1228 893 l 1186 893 l 838 13 q 819 0 832 0 l 738 0 q 723 6 729 0 q 717 21 717 13 q 723 35 717 29 q 738 42 729 42 l 804 42 l 1153 922 q 1172 935 1157 935 l 1260 935 q 1276 926 1269 935 q 1278 907 1283 918 l 936 42 l 1340 42 q 1355 35 1349 42 q 1361 21 1361 29 q 1355 6 1361 13 q 1340 0 1349 0 m 2082 0 l 1886 0 q 1872 6 1878 0 q 1865 21 1865 13 l 1865 221 q 1872 235 1865 229 q 1886 242 1878 242 l 1981 242 l 1981 289 l 1886 289 q 1872 295 1878 289 q 1865 310 1865 301 l 1865 849 l 1815 849 l 1439 311 l 1439 242 l 1790 242 q 1805 235 1799 242 q 1811 221 1811 229 l 1811 21 q 1805 6 1811 13 q 1790 0 1799 0 l 1340 0 q 1326 6 1332 0 q 1319 21 1319 13 q 1326 36 1319 31 q 1340 42 1332 42 l 1769 42 l 1769 200 l 1418 200 q 1403 206 1410 200 q 1397 221 1397 211 l 1397 318 q 1401 331 1397 324 l 1788 882 q 1804 890 1793 890 l 1886 890 q 1901 885 1894 890 q 1907 869 1907 879 l 1907 331 l 2001 331 q 2016 324 2010 331 q 2022 310 2022 318 l 2022 221 q 2016 206 2022 211 q 2001 200 2010 200 l 1907 200 l 1907 42 l 2082 42 q 2103 21 2103 42 q 2097 6 2103 13 q 2082 0 2092 0 z "},"":{"ha":888,"x_min":-21,"x_max":908,"o":"m 440 -210 q 332 -193 382 -210 q 244 -142 281 -174 q 188 -60 208 -108 q 176 -19 181 -40 q 169 18 171 3 q 167 40 167 32 q 167 54 167 47 l 167 56 q 169 84 167 63 q 181 126 171 106 q 196 157 188 143 q 218 186 204 171 q 242 212 229 199 q 268 236 254 225 q 292 260 279 247 q 315 285 304 272 q 351 344 336 310 q 368 421 367 376 l 368 442 l 308 442 l 308 429 q 297 368 308 397 q 271 317 286 339 q 254 295 263 306 q 235 275 246 285 q 217 256 226 265 q 197 238 207 247 q 160 199 175 217 q 144 179 151 189 q 129 158 136 169 q 108 110 117 139 q 103 81 104 96 q 101 50 101 67 l 101 22 q 97 7 103 15 q 81 0 90 0 l 0 0 q -15 6 -8 0 q -21 21 -21 13 q -15 35 -21 29 q 0 42 -8 42 l 60 42 l 60 50 q 68 121 60 89 q 93 179 76 154 q 109 205 100 193 q 129 228 118 217 q 148 248 139 239 q 168 268 157 257 q 206 304 186 283 q 238 340 222 321 q 258 382 250 358 q 267 429 267 403 l 267 463 q 272 477 267 471 q 288 483 278 483 l 389 483 q 403 477 397 483 q 410 463 410 471 l 410 421 l 410 419 q 389 326 408 367 q 346 258 372 289 q 322 231 335 243 q 296 206 310 218 q 272 183 283 194 q 250 158 261 171 q 232 135 239 146 q 219 111 225 124 q 212 82 214 97 q 208 54 210 67 q 208 41 208 49 q 210 22 208 33 q 216 -11 213 7 q 226 -43 219 -29 q 272 -111 244 -85 q 346 -153 303 -137 q 440 -168 392 -168 q 544 -147 499 -168 q 624 -92 588 -129 q 672 -10 654 -58 q 677 7 675 -1 q 682 25 679 15 l 682 26 q 690 97 690 65 q 697 112 690 106 q 711 118 703 118 l 814 118 q 828 112 822 118 q 835 97 833 106 q 831 42 835 68 l 888 42 q 903 35 897 42 q 908 21 908 29 q 903 6 908 13 q 888 0 897 0 l 807 0 q 790 7 797 0 q 786 25 785 15 q 790 50 789 38 q 792 76 792 63 l 732 76 q 728 47 731 61 q 722 17 725 32 l 722 14 q 717 -5 719 4 q 711 -22 714 -14 q 654 -121 693 -78 q 612 -158 635 -142 q 561 -186 589 -174 q 440 -210 506 -210 m 336 517 q 272 544 299 517 q 244 610 244 571 q 272 674 244 647 q 336 701 299 701 q 401 674 375 701 q 428 610 428 647 q 401 544 428 571 q 336 517 375 517 m 336 660 q 301 645 315 660 q 286 610 286 631 q 301 574 286 589 q 336 558 315 558 q 372 574 357 558 q 386 610 386 589 q 372 645 386 631 q 336 660 357 660 z "},"":{"ha":925,"x_min":-21,"x_max":946,"o":"m 419 926 q 404 933 411 926 l 249 1104 q 244 1128 240 1115 q 264 1139 249 1139 l 393 1139 q 411 1129 406 1139 l 514 958 q 514 938 518 949 q 496 926 507 926 l 419 926 m 382 1097 l 311 1097 l 429 968 l 458 968 l 382 1097 m 925 0 l 844 0 q 824 14 831 0 l 519 854 l 418 854 l 101 14 q 82 0 97 0 l 0 0 q -15 6 -8 0 q -21 21 -21 13 q -15 36 -21 31 q 0 42 -8 42 l 68 42 l 383 882 q 404 896 390 896 l 535 896 q 554 882 547 896 l 858 42 l 925 42 q 940 36 933 42 q 946 21 946 31 q 940 6 946 13 q 925 0 933 0 z "},"":{"ha":925,"x_min":-21,"x_max":946,"o":"m 465 932 l 389 932 q 371 942 376 932 q 372 963 365 954 l 474 1133 q 492 1144 481 1144 l 622 1144 q 642 1132 635 1144 q 638 1108 646 1119 l 481 938 q 465 932 476 932 m 426 974 l 457 974 l 575 1103 l 504 1103 l 426 974 m 925 0 l 844 0 q 824 14 831 0 l 519 854 l 418 854 l 101 14 q 82 0 97 0 l 0 0 q -15 6 -8 0 q -21 21 -21 13 q -15 36 -21 31 q 0 42 -8 42 l 68 42 l 383 882 q 404 896 390 896 l 535 896 q 554 882 547 896 l 858 42 l 925 42 q 940 36 933 42 q 946 21 946 31 q 940 6 946 13 q 925 0 933 0 z "},"":{"ha":925,"x_min":-21,"x_max":946,"o":"m 651 932 l 551 932 q 535 940 539 932 l 468 1032 l 401 940 q 385 932 394 932 l 294 932 q 275 943 282 932 q 278 964 269 956 l 399 1135 q 417 1144 406 1144 l 528 1144 q 544 1135 538 1144 l 668 964 q 669 943 676 954 q 651 932 665 932 m 561 974 l 610 974 l 517 1103 l 426 1103 l 335 974 l 375 974 l 451 1079 q 468 1088 457 1088 q 486 1079 479 1088 l 561 974 m 925 0 l 844 0 q 824 14 831 0 l 519 854 l 418 854 l 101 14 q 82 0 97 0 l 0 0 q -15 6 -8 0 q -21 21 -21 13 q -15 36 -21 31 q 0 42 -8 42 l 68 42 l 383 882 q 404 896 390 896 l 535 896 q 554 882 547 896 l 858 42 l 925 42 q 940 36 933 42 q 946 21 946 31 q 940 6 946 13 q 925 0 933 0 z "},"":{"ha":925,"x_min":-21,"x_max":946,"o":"m 324 926 l 261 926 q 244 933 251 926 q 242 953 238 943 q 249 980 244 967 q 260 1006 254 993 q 286 1051 271 1031 q 328 1086 307 1075 q 386 1099 353 1099 q 439 1090 414 1099 q 483 1074 464 1083 q 503 1065 494 1069 q 524 1057 513 1061 q 554 1051 536 1051 q 567 1054 564 1051 q 574 1060 571 1057 q 589 1090 585 1076 q 610 1104 596 1104 l 671 1104 q 688 1097 681 1104 q 692 1081 693 1089 q 651 975 685 1022 l 650 974 q 629 956 640 963 q 606 942 618 949 q 540 929 578 929 q 497 938 519 929 q 453 956 474 946 q 432 963 442 958 q 411 969 422 967 q 381 976 393 976 q 356 968 364 976 q 344 943 346 958 q 324 926 340 926 m 289 968 l 307 968 q 316 985 311 978 q 328 999 321 992 q 381 1018 350 1018 q 425 1010 401 1018 q 447 1001 436 1006 q 468 993 457 997 l 469 993 q 490 985 481 989 q 510 976 500 981 q 526 972 519 974 q 540 971 533 971 q 588 979 571 971 q 618 1000 606 988 q 635 1031 629 1015 q 646 1063 642 1046 l 624 1063 q 607 1036 618 1050 q 554 1010 590 1010 q 508 1019 529 1010 q 467 1036 488 1025 q 426 1051 444 1046 q 386 1057 410 1057 q 347 1049 364 1057 q 319 1026 332 1040 q 297 989 308 1013 l 289 968 m 925 0 l 844 0 q 824 14 831 0 l 519 854 l 418 854 l 101 14 q 82 0 97 0 l 0 0 q -15 6 -8 0 q -21 21 -21 13 q -15 36 -21 31 q 0 42 -8 42 l 68 42 l 383 882 q 404 896 390 896 l 535 896 q 554 882 547 896 l 858 42 l 925 42 q 940 36 933 42 q 946 21 946 31 q 940 6 946 13 q 925 0 933 0 z "},"":{"ha":925,"x_min":-21,"x_max":946,"o":"m 338 913 q 272 940 299 913 q 246 1004 246 967 q 272 1070 246 1043 q 338 1097 299 1097 q 403 1070 376 1097 q 429 1004 429 1043 q 403 940 429 967 q 338 913 376 913 m 338 1056 q 302 1040 317 1056 q 288 1004 288 1025 q 302 969 288 983 q 338 954 317 954 q 373 969 358 954 q 388 1004 388 983 q 373 1040 388 1025 q 338 1056 358 1056 m 601 913 q 536 940 563 913 q 510 1004 510 967 q 536 1070 510 1043 q 601 1097 563 1097 q 667 1070 640 1097 q 693 1004 693 1043 q 667 940 693 967 q 601 913 640 913 m 601 1056 q 566 1040 581 1056 q 551 1004 551 1025 q 566 969 551 983 q 601 954 581 954 q 637 969 622 954 q 651 1004 651 983 q 637 1040 651 1025 q 601 1056 622 1056 m 925 0 l 844 0 q 824 14 831 0 l 519 854 l 418 854 l 101 14 q 82 0 97 0 l 0 0 q -15 6 -8 0 q -21 21 -21 13 q -15 36 -21 31 q 0 42 -8 42 l 68 42 l 383 882 q 404 896 390 896 l 535 896 q 554 882 547 896 l 858 42 l 925 42 q 940 36 933 42 q 946 21 946 31 q 940 6 946 13 q 925 0 933 0 z "},"":{"ha":925,"x_min":-21,"x_max":946,"o":"m 467 928 q 407 940 433 928 q 380 956 392 947 q 357 975 368 964 q 325 1024 338 997 q 313 1085 313 1053 q 325 1144 313 1115 q 357 1193 338 1171 q 407 1228 376 1215 q 467 1240 433 1240 q 528 1228 499 1240 q 576 1194 556 1215 q 610 1144 597 1171 q 622 1085 622 1115 q 610 1024 622 1053 q 576 975 597 996 q 528 940 557 954 q 467 928 499 928 m 467 1199 q 424 1189 443 1199 q 388 1165 403 1181 q 363 1128 372 1149 q 354 1085 354 1107 q 363 1040 354 1061 q 388 1004 374 1018 q 424 979 401 988 q 467 969 447 969 q 489 972 478 969 q 511 979 500 975 q 547 1004 529 986 q 572 1040 561 1018 q 581 1085 581 1061 q 572 1128 581 1107 q 547 1164 561 1150 q 511 1189 531 1181 q 467 1199 492 1199 m 467 1017 q 419 1036 439 1017 q 400 1085 400 1054 q 419 1132 400 1114 q 467 1151 439 1151 q 515 1132 493 1151 q 535 1085 535 1113 q 515 1036 535 1056 q 467 1017 493 1017 m 467 1110 q 449 1103 456 1110 q 442 1085 442 1096 q 449 1065 442 1072 q 467 1058 456 1058 q 485 1065 478 1058 q 493 1085 493 1074 q 485 1103 493 1094 q 467 1110 478 1110 m 925 0 l 844 0 q 824 14 831 0 l 519 854 l 418 854 l 101 14 q 82 0 97 0 l 0 0 q -15 6 -8 0 q -21 21 -21 13 q -15 36 -21 31 q 0 42 -8 42 l 68 42 l 383 882 q 404 896 390 896 l 535 896 q 554 882 547 896 l 858 42 l 925 42 q 940 36 933 42 q 946 21 946 31 q 940 6 946 13 q 925 0 933 0 z "},"":{"ha":1192,"x_min":-21,"x_max":1213,"o":"m 1192 42 q 1206 36 1200 42 q 1213 21 1213 31 q 1206 6 1213 13 q 1192 0 1200 0 l 1110 0 q 1095 6 1101 0 q 1089 21 1089 13 l 1089 96 l 839 96 l 794 96 l 779 138 l 688 392 l 672 433 l 717 433 l 1053 433 l 1053 488 l 697 488 l 653 488 l 610 607 l 610 729 l 610 781 q 615 795 610 789 q 631 801 621 801 l 1086 801 l 1086 854 l 564 854 l 546 854 l 538 854 l 496 854 l 418 854 l 101 14 q 82 0 97 0 l 0 0 q -15 6 -8 0 q -21 21 -21 13 q -15 36 -21 31 q 0 42 -8 42 l 68 42 l 383 882 q 404 896 390 896 l 442 896 l 511 896 l 1113 896 q 1128 875 1128 890 l 1128 781 q 1122 765 1128 771 q 1107 760 1115 760 l 651 760 l 651 614 l 682 529 l 1074 529 q 1089 523 1083 529 q 1094 508 1094 517 l 1094 413 q 1089 398 1094 404 q 1074 392 1083 392 l 732 392 l 824 138 l 1110 138 q 1124 132 1118 138 q 1131 117 1131 126 l 1131 42 l 1192 42 l 1192 42 z "},"":{"ha":1000,"x_min":-21,"x_max":1021,"o":"m 1000 42 q 1015 35 1008 42 q 1021 21 1021 29 q 1015 6 1021 13 q 1000 0 1008 0 l 868 0 l 868 -58 q 854 -133 868 -99 q 839 -164 847 -150 q 819 -189 831 -178 q 771 -224 797 -214 q 717 -236 743 -236 l 633 -236 q 618 -230 624 -236 q 613 -215 613 -224 l 613 -143 q 618 -128 613 -135 q 633 -122 624 -122 l 693 -122 q 708 -118 704 -122 q 719 -103 717 -110 q 728 -75 725 -90 q 729 -57 729 -65 q 729 -40 729 -49 l 729 0 l 610 0 l 607 0 l 606 0 l 604 0 q 603 1 603 0 l 601 1 q 600 3 600 1 l 599 3 l 597 3 q 596 4 597 4 l 593 7 q 592 8 593 8 l 592 10 q 590 11 592 11 l 590 13 l 590 14 q 589 17 589 14 l 589 18 l 589 25 l 589 26 l 590 28 l 590 29 q 592 31 590 31 l 592 32 q 593 33 592 32 q 594 35 593 33 l 594 36 l 596 36 l 596 38 l 597 38 q 599 39 599 38 l 600 39 q 603 40 600 39 q 722 110 674 61 q 824 322 803 186 l 751 322 q 731 236 747 275 q 676 151 711 186 q 594 96 642 114 q 486 75 546 75 q 346 106 407 75 q 247 189 288 136 q 192 310 211 239 q 175 454 175 378 q 193 589 175 526 q 247 706 211 657 q 344 789 288 758 q 485 821 404 821 q 653 771 582 821 q 742 639 717 726 l 814 639 q 779 728 803 690 q 747 772 765 751 q 707 808 729 792 q 607 857 661 840 q 549 870 579 865 q 486 875 518 875 q 321 840 397 875 q 201 750 250 808 q 159 688 178 721 q 128 614 140 654 q 103 446 103 536 q 124 285 103 357 q 186 156 146 210 q 290 65 226 101 q 320 52 304 58 q 351 40 336 46 q 367 18 369 35 q 346 0 364 0 l 0 0 q -15 6 -8 0 q -21 21 -21 13 q -15 35 -21 29 q 0 42 -8 42 l 250 42 q 197 81 222 60 q 153 131 172 103 q 113 197 129 161 q 85 272 96 232 q 61 446 61 354 q 89 626 61 540 q 169 776 117 713 q 304 879 225 843 q 390 907 344 897 q 486 917 435 917 q 619 897 554 917 q 732 842 682 878 q 815 749 781 806 q 858 621 850 690 q 854 604 860 610 q 839 597 847 597 l 725 597 q 704 614 708 597 q 628 738 688 696 q 485 779 567 779 q 364 753 417 779 q 282 682 313 725 q 232 578 249 636 q 217 454 217 514 q 233 321 217 383 q 282 214 247 261 q 364 143 313 171 q 486 117 415 117 q 578 133 538 117 q 647 181 617 150 q 692 251 675 211 q 713 344 708 296 q 719 358 713 351 q 733 364 725 364 l 847 364 q 863 357 856 364 q 868 340 868 350 q 751 79 849 175 q 703 42 732 60 l 750 42 q 765 35 760 42 q 771 21 771 29 l 771 -40 q 771 -60 771 -50 q 769 -79 771 -69 q 765 -100 767 -90 q 758 -119 763 -110 q 735 -150 750 -139 q 693 -164 719 -164 l 654 -164 l 654 -194 l 717 -194 q 754 -186 735 -194 q 789 -161 772 -178 q 803 -142 797 -153 q 815 -118 810 -131 q 826 -58 826 -92 l 826 21 q 832 35 826 29 q 847 42 838 42 l 1000 42 l 1000 42 z "},"":{"ha":756,"x_min":-21,"x_max":776,"o":"m 378 926 q 363 933 369 926 l 207 1104 q 203 1128 199 1115 q 222 1139 207 1139 l 351 1139 q 369 1129 364 1139 l 472 958 q 472 938 476 949 q 454 926 465 926 l 378 926 m 340 1097 l 269 1097 l 388 968 l 417 968 l 340 1097 m 756 0 l 675 0 q 660 6 665 0 q 654 21 654 13 l 654 96 l 194 96 q 180 102 186 96 q 174 117 174 108 l 174 413 q 180 427 174 421 q 194 433 186 433 l 618 433 l 618 488 l 194 488 q 180 494 186 488 q 174 508 174 500 l 174 779 q 180 794 174 789 q 194 800 186 800 l 650 800 l 650 854 l 101 854 l 101 21 q 96 6 101 13 q 81 0 90 0 l 0 0 q -15 6 -10 0 q -21 21 -21 13 q 0 42 -21 42 l 60 42 l 60 875 q 66 890 60 885 q 81 896 72 896 l 671 896 q 685 890 679 896 q 692 875 692 885 l 692 779 q 685 765 692 771 q 671 758 679 758 l 215 758 l 215 529 l 639 529 q 653 523 647 529 q 660 508 660 517 l 660 413 q 653 398 660 404 q 639 392 647 392 l 215 392 l 215 138 l 675 138 q 690 132 683 138 q 696 117 696 126 l 696 42 l 756 42 q 770 36 764 42 q 776 21 776 31 q 770 6 776 13 q 756 0 764 0 z "},"":{"ha":756,"x_min":-21,"x_max":776,"o":"m 438 932 l 361 932 q 343 942 349 932 q 344 963 338 954 l 446 1133 q 464 1144 453 1144 l 594 1144 q 614 1132 607 1144 q 610 1108 618 1119 l 453 938 q 438 932 449 932 m 399 974 l 429 974 l 547 1103 l 476 1103 l 399 974 m 756 0 l 675 0 q 660 6 665 0 q 654 21 654 13 l 654 96 l 194 96 q 180 102 186 96 q 174 117 174 108 l 174 413 q 180 427 174 421 q 194 433 186 433 l 618 433 l 618 488 l 194 488 q 180 494 186 488 q 174 508 174 500 l 174 779 q 180 794 174 789 q 194 800 186 800 l 650 800 l 650 854 l 101 854 l 101 21 q 96 6 101 13 q 81 0 90 0 l 0 0 q -15 6 -10 0 q -21 21 -21 13 q 0 42 -21 42 l 60 42 l 60 875 q 66 890 60 885 q 81 896 72 896 l 671 896 q 685 890 679 896 q 692 875 692 885 l 692 779 q 685 765 692 771 q 671 758 679 758 l 215 758 l 215 529 l 639 529 q 653 523 647 529 q 660 508 660 517 l 660 413 q 653 398 660 404 q 639 392 647 392 l 215 392 l 215 138 l 675 138 q 690 132 683 138 q 696 117 696 126 l 696 42 l 756 42 q 770 36 764 42 q 776 21 776 31 q 770 6 776 13 q 756 0 764 0 z "},"":{"ha":756,"x_min":-21,"x_max":776,"o":"m 554 932 l 454 932 q 438 940 442 932 l 371 1032 l 304 940 q 288 932 297 932 l 197 932 q 178 943 185 932 q 181 964 172 956 l 301 1135 q 319 1144 308 1144 l 431 1144 q 447 1135 440 1144 l 571 964 q 572 943 579 954 q 554 932 568 932 m 464 974 l 513 974 l 419 1103 l 329 1103 l 238 974 l 278 974 l 354 1079 q 371 1088 360 1088 q 389 1079 382 1088 l 464 974 m 756 0 l 675 0 q 660 6 665 0 q 654 21 654 13 l 654 96 l 194 96 q 180 102 186 96 q 174 117 174 108 l 174 413 q 180 427 174 421 q 194 433 186 433 l 618 433 l 618 488 l 194 488 q 180 494 186 488 q 174 508 174 500 l 174 779 q 180 794 174 789 q 194 800 186 800 l 650 800 l 650 854 l 101 854 l 101 21 q 96 6 101 13 q 81 0 90 0 l 0 0 q -15 6 -10 0 q -21 21 -21 13 q 0 42 -21 42 l 60 42 l 60 875 q 66 890 60 885 q 81 896 72 896 l 671 896 q 685 890 679 896 q 692 875 692 885 l 692 779 q 685 765 692 771 q 671 758 679 758 l 215 758 l 215 529 l 639 529 q 653 523 647 529 q 660 508 660 517 l 660 413 q 653 398 660 404 q 639 392 647 392 l 215 392 l 215 138 l 675 138 q 690 132 683 138 q 696 117 696 126 l 696 42 l 756 42 q 770 36 764 42 q 776 21 776 31 q 770 6 776 13 q 756 0 764 0 z "},"":{"ha":756,"x_min":-21,"x_max":776,"o":"m 254 932 q 189 959 215 932 q 163 1024 163 986 q 189 1090 163 1063 q 254 1117 215 1117 q 319 1090 293 1117 q 346 1024 346 1063 q 319 959 346 986 q 254 932 293 932 m 254 1075 q 219 1060 233 1075 q 204 1024 204 1044 q 219 988 204 1003 q 254 974 233 974 q 290 988 275 974 q 304 1024 304 1003 q 290 1060 304 1044 q 254 1075 275 1075 m 518 932 q 453 959 479 932 q 426 1024 426 986 q 453 1090 426 1063 q 518 1117 479 1117 q 583 1090 557 1117 q 610 1024 610 1063 q 583 959 610 986 q 518 932 557 932 m 518 1075 q 483 1060 497 1075 q 468 1024 468 1044 q 483 988 468 1003 q 518 974 497 974 q 553 988 539 974 q 568 1024 568 1003 q 553 1060 568 1044 q 518 1075 539 1075 m 756 0 l 675 0 q 660 6 665 0 q 654 21 654 13 l 654 96 l 194 96 q 180 102 186 96 q 174 117 174 108 l 174 413 q 180 427 174 421 q 194 433 186 433 l 618 433 l 618 488 l 194 488 q 180 494 186 488 q 174 508 174 500 l 174 779 q 180 794 174 789 q 194 800 186 800 l 650 800 l 650 854 l 101 854 l 101 21 q 96 6 101 13 q 81 0 90 0 l 0 0 q -15 6 -10 0 q -21 21 -21 13 q 0 42 -21 42 l 60 42 l 60 875 q 66 890 60 885 q 81 896 72 896 l 671 896 q 685 890 679 896 q 692 875 692 885 l 692 779 q 685 765 692 771 q 671 758 679 758 l 215 758 l 215 529 l 639 529 q 653 523 647 529 q 660 508 660 517 l 660 413 q 653 398 660 404 q 639 392 647 392 l 215 392 l 215 138 l 675 138 q 690 132 683 138 q 696 117 696 126 l 696 42 l 756 42 q 770 36 764 42 q 776 21 776 31 q 770 6 776 13 q 756 0 764 0 z "},"":{"ha":276,"x_min":-65,"x_max":297,"o":"m 114 926 q 99 933 106 926 l -57 1104 q -61 1128 -65 1115 q -42 1139 -57 1139 l 88 1139 q 106 1129 100 1139 l 208 958 q 208 938 213 949 q 190 926 201 926 l 114 926 m 76 1097 l 6 1097 l 124 968 l 153 968 l 76 1097 m 276 0 l 196 0 q 181 6 188 0 q 175 21 175 13 l 175 854 l 103 854 l 103 21 q 97 6 103 13 q 82 0 90 0 l 0 0 q -15 6 -8 0 q -21 21 -21 13 q -15 36 -21 31 q 0 42 -8 42 l 61 42 l 61 875 q 67 890 61 885 q 82 896 74 896 l 196 896 q 210 890 204 896 q 217 875 217 885 l 217 42 l 276 42 q 297 21 297 42 q 292 6 297 13 q 276 0 286 0 z "},"":{"ha":276,"x_min":-21,"x_max":319,"o":"m 139 932 l 63 932 q 44 942 50 932 q 46 963 39 954 l 147 1133 q 165 1144 154 1144 l 296 1144 q 315 1132 308 1144 q 311 1108 319 1119 l 154 938 q 139 932 150 932 m 100 974 l 131 974 l 249 1103 l 178 1103 l 100 974 m 276 0 l 196 0 q 181 6 188 0 q 175 21 175 13 l 175 854 l 103 854 l 103 21 q 97 6 103 13 q 82 0 90 0 l 0 0 q -15 6 -8 0 q -21 21 -21 13 q -15 36 -21 31 q 0 42 -8 42 l 61 42 l 61 875 q 67 890 61 885 q 82 896 74 896 l 196 896 q 210 890 204 896 q 217 875 217 885 l 217 42 l 276 42 q 297 21 297 42 q 292 6 297 13 q 276 0 286 0 z "},"":{"ha":276,"x_min":-62,"x_max":344,"o":"m 319 932 l 219 932 q 203 940 207 932 l 136 1032 l 69 940 q 53 932 63 932 l -37 932 q -57 943 -50 932 q -54 964 -62 956 l 67 1135 q 85 1144 74 1144 l 196 1144 q 213 1135 206 1144 l 336 964 q 338 943 344 954 q 319 932 333 932 m 229 974 l 278 974 l 185 1103 l 94 1103 l 3 974 l 43 974 l 119 1079 q 136 1088 125 1088 q 154 1079 147 1088 l 229 974 m 276 0 l 196 0 q 181 6 188 0 q 175 21 175 13 l 175 854 l 103 854 l 103 21 q 97 6 103 13 q 82 0 90 0 l 0 0 q -15 6 -8 0 q -21 21 -21 13 q -15 36 -21 31 q 0 42 -8 42 l 61 42 l 61 875 q 67 890 61 885 q 82 896 74 896 l 196 896 q 210 890 204 896 q 217 875 217 885 l 217 42 l 276 42 q 297 21 297 42 q 292 6 297 13 q 276 0 286 0 z "},"":{"ha":276,"x_min":-85,"x_max":363,"o":"m 7 915 q -58 942 -32 915 q -85 1007 -85 969 q -58 1073 -85 1046 q 7 1100 -32 1100 q 72 1073 46 1100 q 99 1007 99 1046 q 72 942 99 969 q 7 915 46 915 m 7 1058 q -28 1043 -14 1058 q -43 1007 -43 1028 q -28 972 -43 986 q 7 957 -14 957 q 42 972 28 957 q 57 1007 57 986 q 42 1043 57 1028 q 7 1058 28 1058 m 271 915 q 206 942 232 915 q 179 1007 179 969 q 206 1073 179 1046 q 271 1100 232 1100 q 336 1073 310 1100 q 363 1007 363 1046 q 336 942 363 969 q 271 915 310 915 m 271 1058 q 235 1043 250 1058 q 221 1007 221 1028 q 235 972 221 986 q 271 957 250 957 q 306 972 292 957 q 321 1007 321 986 q 306 1043 321 1028 q 271 1058 292 1058 m 276 0 l 196 0 q 181 6 188 0 q 175 21 175 13 l 175 854 l 103 854 l 103 21 q 97 6 103 13 q 82 0 90 0 l 0 0 q -15 6 -8 0 q -21 21 -21 13 q -15 36 -21 31 q 0 42 -8 42 l 61 42 l 61 875 q 67 890 61 885 q 82 896 74 896 l 196 896 q 210 890 204 896 q 217 875 217 885 l 217 42 l 276 42 q 297 21 297 42 q 292 6 297 13 q 276 0 286 0 z "},"":{"ha":953,"x_min":-21,"x_max":974,"o":"m 953 0 l 460 0 q 445 6 451 0 q 439 21 439 13 q 445 35 439 29 q 460 42 451 42 q 636 69 561 42 q 756 151 713 100 q 826 283 803 203 q 843 369 838 324 q 849 468 849 415 q 749 758 849 664 q 460 853 647 853 l 188 853 l 188 507 q 182 492 188 499 q 167 486 176 486 l 104 486 l 104 446 l 167 446 q 188 425 188 446 l 188 21 q 182 6 188 13 q 167 0 176 0 l 0 0 q -15 6 -8 0 q -21 21 -21 13 q -15 35 -21 29 q 0 42 -8 42 l 146 42 l 146 404 l 83 404 q 69 410 75 404 q 63 425 63 417 l 63 507 q 69 522 63 515 q 83 528 75 528 l 146 528 l 146 874 q 152 888 146 882 q 167 894 158 894 l 460 894 q 778 789 664 894 q 863 653 836 733 q 890 468 890 572 q 865 271 890 356 q 788 124 840 186 q 736 77 764 97 q 676 42 708 57 l 953 42 q 967 35 961 42 q 974 21 974 29 q 967 6 974 13 q 953 0 961 0 z "},"":{"ha":844,"x_min":-21,"x_max":865,"o":"m 844 0 l 763 0 q 748 6 754 0 q 742 21 742 11 l 742 854 l 676 854 l 676 182 q 670 167 676 174 q 656 161 664 161 l 653 161 q 635 171 642 161 l 192 854 l 103 854 l 103 21 q 97 6 103 11 q 82 0 90 0 l 0 0 q -15 6 -8 0 q -21 21 -21 11 q -15 35 -21 29 q 0 42 -8 42 l 61 42 l 61 875 q 67 890 61 883 q 82 896 74 896 l 203 896 q 221 886 214 896 l 635 249 l 635 875 q 640 890 635 883 q 656 896 646 896 l 763 896 q 777 890 771 896 q 783 875 783 883 l 783 42 l 844 42 q 859 35 853 42 q 865 21 865 29 q 859 6 865 11 q 844 0 853 0 m 282 926 l 219 926 q 203 933 210 926 q 200 953 196 943 q 208 980 203 967 q 218 1006 213 993 q 244 1051 229 1031 q 286 1086 265 1075 q 344 1099 311 1099 q 397 1090 372 1099 q 442 1074 422 1083 q 462 1065 453 1069 q 482 1057 471 1061 q 513 1051 494 1051 q 526 1054 522 1051 q 532 1060 529 1057 q 547 1090 543 1076 q 568 1104 554 1104 l 629 1104 q 646 1097 639 1104 q 650 1081 651 1089 q 610 975 643 1022 l 608 974 q 588 956 599 963 q 564 942 576 949 q 499 929 536 929 q 456 938 478 929 q 411 956 432 946 q 390 963 400 958 q 369 969 381 967 q 339 976 351 976 q 314 968 322 976 q 303 943 304 958 q 282 926 299 926 m 247 968 l 265 968 q 274 985 269 978 q 286 999 279 992 q 339 1018 308 1018 q 383 1010 360 1018 q 405 1001 394 1006 q 426 993 415 997 l 428 993 q 449 985 439 989 q 468 976 458 981 q 485 972 478 974 q 499 971 492 971 q 546 979 529 971 q 576 1000 564 988 q 594 1031 588 1015 q 604 1063 600 1046 l 582 1063 q 565 1036 576 1050 q 513 1010 549 1010 q 467 1019 488 1010 q 425 1036 446 1025 q 385 1051 403 1046 q 344 1057 368 1057 q 306 1049 322 1057 q 278 1026 290 1040 q 256 989 267 1013 l 247 968 z "},"":{"ha":982,"x_min":-21,"x_max":1003,"o":"m 406 940 q 390 947 397 940 l 235 1118 q 231 1142 226 1129 q 250 1153 235 1153 l 379 1153 q 397 1143 392 1153 l 500 972 q 500 951 504 963 q 482 940 493 940 l 406 940 m 368 1111 l 297 1111 l 415 982 l 444 982 l 368 1111 m 982 0 l 625 0 q 604 18 607 0 q 619 40 601 35 l 661 57 q 782 150 733 93 q 854 286 832 211 q 879 449 879 363 q 854 610 879 532 q 782 746 832 685 q 660 840 731 806 q 492 875 586 875 q 322 840 396 875 q 201 746 250 806 q 128 610 154 690 q 103 449 103 532 q 128 286 103 363 q 158 213 140 247 q 201 150 176 179 q 322 57 249 93 q 364 40 340 49 q 378 18 381 36 q 357 0 375 0 l 0 0 q -15 6 -8 0 q -21 21 -21 13 q -15 35 -21 29 q 0 42 -8 42 l 263 42 q 169 124 211 74 q 88 274 115 189 q 61 449 61 354 q 88 622 61 542 q 169 772 114 707 q 230 832 196 806 q 304 878 264 858 q 492 917 386 917 q 679 878 594 917 q 814 772 761 836 q 894 622 867 708 q 921 449 921 542 q 894 274 921 354 q 861 194 881 232 q 814 124 842 156 q 719 42 774 75 l 982 42 q 997 35 990 42 q 1003 21 1003 29 q 997 6 1003 13 q 982 0 990 0 z "},"":{"ha":982,"x_min":-21,"x_max":1003,"o":"m 479 946 l 403 946 q 385 956 390 946 q 386 976 379 968 l 488 1147 q 506 1158 494 1158 l 636 1158 q 656 1146 649 1158 q 651 1122 660 1133 l 494 951 q 479 946 490 946 m 440 988 l 471 988 l 589 1117 l 518 1117 l 440 988 m 982 0 l 625 0 q 604 18 607 0 q 619 40 601 35 l 661 57 q 782 150 733 93 q 854 286 832 211 q 879 449 879 363 q 854 610 879 532 q 782 746 832 685 q 660 840 731 806 q 492 875 586 875 q 322 840 396 875 q 201 746 250 806 q 128 610 154 690 q 103 449 103 532 q 128 286 103 363 q 158 213 140 247 q 201 150 176 179 q 322 57 249 93 q 364 40 340 49 q 378 18 381 36 q 357 0 375 0 l 0 0 q -15 6 -8 0 q -21 21 -21 13 q -15 35 -21 29 q 0 42 -8 42 l 263 42 q 169 124 211 74 q 88 274 115 189 q 61 449 61 354 q 88 622 61 542 q 169 772 114 707 q 230 832 196 806 q 304 878 264 858 q 492 917 386 917 q 679 878 594 917 q 814 772 761 836 q 894 622 867 708 q 921 449 921 542 q 894 274 921 354 q 861 194 881 232 q 814 124 842 156 q 719 42 774 75 l 982 42 q 997 35 990 42 q 1003 21 1003 29 q 997 6 1003 13 q 982 0 990 0 z "},"":{"ha":982,"x_min":-21,"x_max":1003,"o":"m 679 932 l 579 932 q 563 940 567 932 l 496 1032 l 429 940 q 413 932 422 932 l 322 932 q 303 943 310 932 q 306 964 297 956 l 426 1135 q 444 1144 433 1144 l 556 1144 q 572 1135 565 1144 l 696 964 q 697 943 704 954 q 679 932 693 932 m 589 974 l 638 974 l 544 1103 l 454 1103 l 363 974 l 403 974 l 479 1079 q 496 1088 485 1088 q 514 1079 507 1088 l 589 974 m 982 0 l 625 0 q 604 18 607 0 q 619 40 601 35 l 661 57 q 782 150 733 93 q 854 286 832 211 q 879 449 879 363 q 854 610 879 532 q 782 746 832 685 q 660 840 731 806 q 492 875 586 875 q 322 840 396 875 q 201 746 250 806 q 128 610 154 690 q 103 449 103 532 q 128 286 103 363 q 158 213 140 247 q 201 150 176 179 q 322 57 249 93 q 364 40 340 49 q 378 18 381 36 q 357 0 375 0 l 0 0 q -15 6 -8 0 q -21 21 -21 13 q -15 35 -21 29 q 0 42 -8 42 l 263 42 q 169 124 211 74 q 88 274 115 189 q 61 449 61 354 q 88 622 61 542 q 169 772 114 707 q 230 832 196 806 q 304 878 264 858 q 492 917 386 917 q 679 878 594 917 q 814 772 761 836 q 894 622 867 708 q 921 449 921 542 q 894 274 921 354 q 861 194 881 232 q 814 124 842 156 q 719 42 774 75 l 982 42 q 997 35 990 42 q 1003 21 1003 29 q 997 6 1003 13 q 982 0 990 0 z "},"":{"ha":982,"x_min":-21,"x_max":1003,"o":"m 310 940 l 247 940 q 231 947 238 940 q 228 967 224 957 q 235 994 231 981 q 246 1019 240 1007 q 272 1065 257 1044 q 314 1100 293 1089 q 372 1113 339 1113 q 425 1104 400 1113 q 469 1088 450 1097 q 490 1079 481 1083 q 510 1071 499 1075 q 540 1065 522 1065 q 553 1068 550 1065 q 560 1074 557 1071 q 575 1104 571 1090 q 596 1118 582 1118 l 657 1118 q 674 1111 667 1118 q 678 1094 679 1103 q 638 989 671 1036 l 636 988 q 615 969 626 976 q 592 956 604 963 q 526 943 564 943 q 483 951 506 943 q 439 969 460 960 q 418 976 428 972 q 397 983 408 981 q 367 990 379 990 q 342 982 350 990 q 331 957 332 972 q 310 940 326 940 m 275 982 l 293 982 q 302 999 297 992 q 314 1013 307 1006 q 367 1032 336 1032 q 411 1024 388 1032 q 433 1015 422 1019 q 454 1007 443 1011 l 456 1007 q 476 999 467 1003 q 496 990 486 994 q 513 986 506 988 q 526 985 519 985 q 574 993 557 985 q 604 1014 592 1001 q 622 1044 615 1029 q 632 1076 628 1060 l 610 1076 q 593 1050 604 1064 q 540 1024 576 1024 q 494 1033 515 1024 q 453 1050 474 1039 q 413 1065 431 1060 q 372 1071 396 1071 q 333 1063 350 1071 q 306 1040 318 1054 q 283 1003 294 1026 l 275 982 m 982 0 l 625 0 q 604 18 607 0 q 619 40 601 35 l 661 57 q 782 150 733 93 q 854 286 832 211 q 879 449 879 363 q 854 610 879 532 q 782 746 832 685 q 660 840 731 806 q 492 875 586 875 q 322 840 396 875 q 201 746 250 806 q 128 610 154 690 q 103 449 103 532 q 128 286 103 363 q 158 213 140 247 q 201 150 176 179 q 322 57 249 93 q 364 40 340 49 q 378 18 381 36 q 357 0 375 0 l 0 0 q -15 6 -8 0 q -21 21 -21 13 q -15 35 -21 29 q 0 42 -8 42 l 263 42 q 169 124 211 74 q 88 274 115 189 q 61 449 61 354 q 88 622 61 542 q 169 772 114 707 q 230 832 196 806 q 304 878 264 858 q 492 917 386 917 q 679 878 594 917 q 814 772 761 836 q 894 622 867 708 q 921 449 921 542 q 894 274 921 354 q 861 194 881 232 q 814 124 842 156 q 719 42 774 75 l 982 42 q 997 35 990 42 q 1003 21 1003 29 q 997 6 1003 13 q 982 0 990 0 z "},"":{"ha":982,"x_min":-21,"x_max":1003,"o":"m 358 935 q 293 962 319 935 q 267 1026 267 989 q 293 1092 267 1065 q 358 1119 319 1119 q 424 1092 397 1119 q 450 1026 450 1065 q 424 962 450 989 q 358 935 397 935 m 358 1078 q 323 1063 338 1078 q 308 1026 308 1047 q 323 991 308 1006 q 358 976 338 976 q 394 991 379 976 q 408 1026 408 1006 q 394 1063 408 1047 q 358 1078 379 1078 m 622 935 q 557 962 583 935 q 531 1026 531 989 q 557 1092 531 1065 q 622 1119 583 1119 q 688 1092 661 1119 q 714 1026 714 1065 q 688 962 714 989 q 622 935 661 935 m 622 1078 q 587 1063 601 1078 q 572 1026 572 1047 q 587 991 572 1006 q 622 976 601 976 q 658 991 643 976 q 672 1026 672 1006 q 658 1063 672 1047 q 622 1078 643 1078 m 982 0 l 625 0 q 604 18 607 0 q 619 40 601 35 l 661 57 q 782 150 733 93 q 854 286 832 211 q 879 449 879 363 q 854 610 879 532 q 782 746 832 685 q 660 840 731 806 q 492 875 586 875 q 322 840 396 875 q 201 746 250 806 q 128 610 154 690 q 103 449 103 532 q 128 286 103 363 q 158 213 140 247 q 201 150 176 179 q 322 57 249 93 q 364 40 340 49 q 378 18 381 36 q 357 0 375 0 l 0 0 q -15 6 -8 0 q -21 21 -21 13 q -15 35 -21 29 q 0 42 -8 42 l 263 42 q 169 124 211 74 q 88 274 115 189 q 61 449 61 354 q 88 622 61 542 q 169 772 114 707 q 230 832 196 806 q 304 878 264 858 q 492 917 386 917 q 679 878 594 917 q 814 772 761 836 q 894 622 867 708 q 921 449 921 542 q 894 274 921 354 q 861 194 881 232 q 814 124 842 156 q 719 42 774 75 l 982 42 q 997 35 990 42 q 1003 21 1003 29 q 997 6 1003 13 q 982 0 990 0 z "},"":{"ha":761,"x_min":-21,"x_max":782,"o":"m 761 0 l 681 0 q 664 8 668 0 l 424 342 q 421 354 421 347 q 425 367 421 361 l 613 618 l 543 618 l 394 410 q 378 401 388 401 q 360 411 365 401 l 218 618 l 140 618 l 331 358 q 331 333 340 346 l 99 8 q 82 0 92 0 l 0 0 q -15 6 -8 0 q -21 21 -21 11 q -15 35 -21 29 q 0 42 -8 42 l 71 42 l 289 346 l 82 626 q 81 649 75 639 q 99 660 85 660 l 229 660 q 246 650 240 660 l 378 458 l 515 651 q 532 660 521 660 l 654 660 q 672 649 668 660 q 671 626 679 638 l 467 354 l 692 42 l 761 42 q 776 35 771 42 q 782 21 782 29 q 761 0 782 0 z "},"":{"ha":986,"x_min":-21,"x_max":1007,"o":"m 619 0 q 599 18 601 0 q 614 40 596 35 q 639 49 626 44 q 663 60 651 53 q 783 153 735 94 q 856 288 833 213 q 881 450 881 364 q 878 534 881 490 q 864 615 875 578 q 840 674 853 651 q 803 725 826 696 q 803 751 790 739 l 888 844 l 865 865 l 786 776 q 771 771 781 771 q 756 776 763 769 q 643 850 707 824 q 493 875 578 875 q 324 840 394 875 q 203 747 251 804 q 160 683 179 717 q 131 611 142 650 q 106 450 106 533 q 129 290 106 369 q 158 220 140 254 q 200 158 176 186 q 199 131 211 146 l 113 36 l 114 36 q 119 14 124 26 q 100 0 115 0 l 0 0 q -15 6 -8 0 q -21 21 -21 13 q -15 35 -21 29 q 0 42 -8 42 l 64 42 q 68 49 67 47 l 157 146 q 89 278 113 203 q 64 450 64 361 q 90 624 64 543 q 171 774 118 707 q 306 878 224 838 q 493 917 385 917 q 660 888 586 917 q 718 859 690 876 q 769 821 746 842 l 849 908 q 864 915 856 915 q 879 910 872 917 l 931 860 q 938 846 938 854 q 932 831 939 838 l 846 736 q 880 686 867 710 q 904 626 893 663 q 919 540 917 586 q 922 450 922 493 q 896 275 922 356 q 815 125 868 190 q 770 80 794 101 q 717 42 746 58 l 986 42 q 1001 35 994 42 q 1007 21 1007 29 q 1001 6 1007 13 q 986 0 994 0 l 619 0 z "},"":{"ha":850,"x_min":-21,"x_max":871,"o":"m 378 926 q 363 933 369 926 l 207 1104 q 203 1128 199 1115 q 222 1139 207 1139 l 351 1139 q 369 1129 364 1139 l 472 958 q 472 938 476 949 q 454 926 465 926 l 378 926 m 340 1097 l 269 1097 l 388 968 l 417 968 l 340 1097 m 850 0 l 571 0 q 550 17 553 0 q 564 40 547 36 q 667 99 625 60 q 747 329 747 174 l 747 854 l 675 854 l 675 329 q 613 140 675 204 q 432 75 550 75 q 242 140 310 75 q 175 329 175 204 l 175 854 l 103 854 l 103 329 q 188 96 103 167 q 293 40 231 60 q 307 17 310 36 q 286 0 304 0 l 0 0 q -15 6 -8 0 q -21 21 -21 11 q -15 35 -21 29 q 0 42 -8 42 l 192 42 q 161 64 175 53 q 61 329 61 147 l 61 875 q 67 890 61 883 q 82 896 72 896 l 196 896 q 210 890 204 896 q 217 875 217 883 l 217 329 q 271 169 217 224 q 432 117 326 117 q 583 169 531 117 q 633 329 633 221 l 633 875 q 640 890 633 883 q 654 896 646 896 l 768 896 q 783 890 776 896 q 789 875 789 883 l 789 329 q 696 68 789 157 q 679 54 688 61 q 663 42 671 47 l 850 42 q 865 35 858 42 q 871 21 871 29 q 865 6 871 11 q 850 0 858 0 z "},"":{"ha":850,"x_min":-21,"x_max":871,"o":"m 479 946 l 403 946 q 385 956 390 946 q 386 976 379 968 l 488 1147 q 506 1158 494 1158 l 636 1158 q 656 1146 649 1158 q 651 1122 660 1133 l 494 951 q 479 946 490 946 m 440 988 l 471 988 l 589 1117 l 518 1117 l 440 988 m 850 0 l 571 0 q 550 17 553 0 q 564 40 547 36 q 667 99 625 60 q 747 329 747 174 l 747 854 l 675 854 l 675 329 q 613 140 675 204 q 432 75 550 75 q 242 140 310 75 q 175 329 175 204 l 175 854 l 103 854 l 103 329 q 188 96 103 167 q 293 40 231 60 q 307 17 310 36 q 286 0 304 0 l 0 0 q -15 6 -8 0 q -21 21 -21 11 q -15 35 -21 29 q 0 42 -8 42 l 192 42 q 161 64 175 53 q 61 329 61 147 l 61 875 q 67 890 61 883 q 82 896 72 896 l 196 896 q 210 890 204 896 q 217 875 217 883 l 217 329 q 271 169 217 224 q 432 117 326 117 q 583 169 531 117 q 633 329 633 221 l 633 875 q 640 890 633 883 q 654 896 646 896 l 768 896 q 783 890 776 896 q 789 875 789 883 l 789 329 q 696 68 789 157 q 679 54 688 61 q 663 42 671 47 l 850 42 q 865 35 858 42 q 871 21 871 29 q 865 6 871 11 q 850 0 858 0 z "},"":{"ha":850,"x_min":-21,"x_max":871,"o":"m 606 932 l 506 932 q 489 940 493 932 l 422 1032 l 356 940 q 339 932 349 932 l 249 932 q 229 943 236 932 q 232 964 224 956 l 353 1135 q 371 1144 360 1144 l 482 1144 q 499 1135 492 1144 l 622 964 q 624 943 631 954 q 606 932 619 932 m 515 974 l 564 974 l 471 1103 l 381 1103 l 289 974 l 329 974 l 406 1079 q 422 1088 411 1088 q 440 1079 433 1088 l 515 974 m 850 0 l 571 0 q 550 17 553 0 q 564 40 547 36 q 667 99 625 60 q 747 329 747 174 l 747 854 l 675 854 l 675 329 q 613 140 675 204 q 432 75 550 75 q 242 140 310 75 q 175 329 175 204 l 175 854 l 103 854 l 103 329 q 188 96 103 167 q 293 40 231 60 q 307 17 310 36 q 286 0 304 0 l 0 0 q -15 6 -8 0 q -21 21 -21 11 q -15 35 -21 29 q 0 42 -8 42 l 192 42 q 161 64 175 53 q 61 329 61 147 l 61 875 q 67 890 61 883 q 82 896 72 896 l 196 896 q 210 890 204 896 q 217 875 217 883 l 217 329 q 271 169 217 224 q 432 117 326 117 q 583 169 531 117 q 633 329 633 221 l 633 875 q 640 890 633 883 q 654 896 646 896 l 768 896 q 783 890 776 896 q 789 875 789 883 l 789 329 q 696 68 789 157 q 679 54 688 61 q 663 42 671 47 l 850 42 q 865 35 858 42 q 871 21 871 29 q 865 6 871 11 q 850 0 858 0 z "},"":{"ha":850,"x_min":-21,"x_max":871,"o":"m 293 882 q 228 909 254 882 q 201 974 201 936 q 228 1040 201 1013 q 293 1067 254 1067 q 358 1040 332 1067 q 385 974 385 1013 q 358 909 385 936 q 293 882 332 882 m 293 1025 q 258 1010 272 1025 q 243 974 243 994 q 258 938 243 953 q 293 924 272 924 q 328 938 314 924 q 343 974 343 953 q 328 1010 343 994 q 293 1025 314 1025 m 557 882 q 492 909 518 882 q 465 974 465 936 q 492 1040 465 1013 q 557 1067 518 1067 q 622 1040 596 1067 q 649 974 649 1013 q 622 909 649 936 q 557 882 596 882 m 557 1025 q 522 1010 536 1025 q 507 974 507 994 q 522 938 507 953 q 557 924 536 924 q 592 938 578 924 q 607 974 607 953 q 592 1010 607 994 q 557 1025 578 1025 m 850 0 l 571 0 q 550 17 553 0 q 564 40 547 36 q 667 99 625 60 q 747 329 747 174 l 747 854 l 675 854 l 675 329 q 613 140 675 204 q 432 75 550 75 q 242 140 310 75 q 175 329 175 204 l 175 854 l 103 854 l 103 329 q 188 96 103 167 q 293 40 231 60 q 307 17 310 36 q 286 0 304 0 l 0 0 q -15 6 -8 0 q -21 21 -21 11 q -15 35 -21 29 q 0 42 -8 42 l 192 42 q 161 64 175 53 q 61 329 61 147 l 61 875 q 67 890 61 883 q 82 896 72 896 l 196 896 q 210 890 204 896 q 217 875 217 883 l 217 329 q 271 169 217 224 q 432 117 326 117 q 583 169 531 117 q 633 329 633 221 l 633 875 q 640 890 633 883 q 654 896 646 896 l 768 896 q 783 890 776 896 q 789 875 789 883 l 789 329 q 696 68 789 157 q 679 54 688 61 q 663 42 671 47 l 850 42 q 865 35 858 42 q 871 21 871 29 q 865 6 871 11 q 850 0 858 0 z "},"":{"ha":933,"x_min":-21,"x_max":954,"o":"m 507 932 l 431 932 q 413 942 418 932 q 414 963 407 954 l 515 1133 q 533 1144 522 1144 l 664 1144 q 683 1132 676 1144 q 679 1108 688 1119 l 522 938 q 507 932 518 932 m 468 974 l 499 974 l 617 1103 l 546 1103 l 468 974 m 933 0 l 526 0 q 511 6 517 0 q 506 21 506 13 l 506 371 q 508 382 506 379 l 814 854 l 735 854 l 490 458 q 474 449 486 449 q 456 458 461 449 l 206 854 l 121 854 l 429 382 q 433 371 433 378 l 433 21 q 427 6 433 13 q 413 0 421 0 l 0 0 q -15 6 -8 0 q -21 21 -21 13 q -15 36 -21 31 q 0 42 -8 42 l 392 42 l 392 364 l 64 864 q 64 886 57 875 q 82 896 68 896 l 217 896 q 235 886 229 896 l 474 508 l 706 886 q 724 896 711 896 l 853 896 q 871 886 864 896 q 869 864 876 876 l 547 364 l 547 42 l 933 42 q 954 21 954 42 q 949 6 954 13 q 933 0 943 0 z "},"":{"ha":775,"x_min":-21,"x_max":796,"o":"m 775 0 l 197 0 q 183 6 189 0 q 176 21 176 13 l 176 233 q 183 248 176 242 q 197 254 189 254 l 457 254 l 458 254 q 563 268 518 253 q 638 313 608 283 q 699 485 699 374 q 638 656 699 594 q 457 717 579 717 l 197 717 q 183 723 189 717 q 176 738 176 729 l 176 853 l 104 853 l 104 21 q 99 6 104 13 q 83 0 93 0 l 0 0 q -15 6 -8 0 q -21 21 -21 13 q -15 35 -21 29 q 0 42 -8 42 l 63 42 l 63 874 q 69 888 63 882 q 83 894 75 894 l 197 894 q 212 888 206 894 q 218 874 218 882 l 218 758 l 457 758 q 668 685 594 758 q 740 485 740 610 q 668 283 740 358 q 457 213 593 211 l 218 213 l 218 42 l 775 42 q 790 35 783 42 q 796 21 796 29 q 790 6 796 13 q 775 0 783 0 z "},"":{"ha":689,"x_min":-21,"x_max":710,"o":"m 496 0 q 476 14 481 0 q 485 38 472 29 q 499 50 492 44 q 514 63 507 56 q 567 143 549 97 q 585 247 585 188 q 575 318 585 288 q 564 349 571 335 q 549 376 557 364 q 542 385 546 381 q 535 393 539 389 l 460 393 q 501 338 486 374 q 519 235 519 300 q 464 93 519 147 q 319 39 410 39 q 309 40 314 39 q 300 40 304 40 l 300 21 q 294 6 300 13 q 279 0 288 0 q 264 6 269 0 q 258 21 258 13 l 258 64 q 265 81 258 74 q 283 85 274 88 q 300 82 294 82 q 310 81 306 82 q 319 81 314 81 q 435 124 393 81 q 478 235 478 165 q 464 319 478 288 q 426 365 451 350 q 367 388 406 381 q 325 392 347 390 q 279 393 303 393 q 264 399 269 393 q 258 414 258 406 q 264 428 258 422 q 279 435 269 435 l 543 435 q 558 429 550 435 q 582 401 571 415 q 615 329 604 371 q 624 290 622 310 q 626 247 626 269 q 604 128 626 181 q 581 82 594 103 q 551 42 568 61 l 689 42 q 703 35 697 42 q 710 21 710 29 q 703 6 710 13 q 689 0 697 0 l 496 0 m 279 0 l 185 0 q 170 6 176 0 q 164 21 164 13 l 164 601 q 176 690 164 654 q 211 750 189 728 q 264 781 233 772 q 328 789 293 789 q 389 776 360 789 q 436 744 413 765 q 469 694 457 724 q 481 633 481 665 q 464 556 481 586 q 432 515 451 532 l 497 515 q 521 544 513 529 q 547 649 547 585 q 528 731 547 696 q 475 789 506 768 q 441 810 460 801 q 403 825 422 818 q 321 838 361 838 q 231 822 272 838 q 163 778 193 807 q 119 710 136 750 q 104 619 104 668 l 104 21 q 99 6 104 13 q 83 0 93 0 l 0 0 q -15 6 -8 0 q -21 21 -21 13 q -15 35 -21 29 q 0 42 -8 42 l 63 42 l 63 619 q 67 674 63 647 q 81 724 72 700 q 133 807 99 771 q 215 860 167 840 q 321 879 265 879 q 415 865 369 879 q 460 848 439 858 q 500 822 481 838 q 564 751 539 794 q 589 649 589 707 q 557 522 589 578 q 517 478 542 497 q 504 474 513 474 l 300 474 l 297 474 l 279 474 q 264 480 269 474 q 258 494 258 486 q 264 510 258 506 q 281 515 271 517 l 297 515 l 300 515 q 343 519 322 515 q 394 539 369 524 q 426 575 414 551 q 439 633 439 597 q 431 679 439 658 q 407 714 424 697 q 371 739 393 731 q 328 747 351 747 q 276 740 296 747 q 240 719 256 735 q 215 678 225 704 q 208 644 211 663 q 206 601 206 625 l 206 42 l 279 42 q 294 35 288 42 q 300 21 300 29 q 294 6 300 13 q 279 0 288 0 z "},"":{"ha":751,"x_min":-21,"x_max":772,"o":"m 399 724 l 322 724 q 307 729 313 724 l 151 900 q 147 924 143 911 q 167 936 154 936 l 296 936 q 314 925 307 936 l 417 754 q 417 733 424 744 q 399 724 411 724 m 332 765 l 361 765 l 285 894 l 214 894 l 332 765 m 751 0 l 669 0 q 655 6 661 0 q 649 21 649 13 l 649 72 l 638 71 q 613 74 622 69 q 599 82 604 78 q 583 112 585 94 q 581 142 581 129 l 581 451 l 581 486 q 577 527 581 501 q 550 576 574 553 q 364 638 490 635 q 171 571 232 640 q 146 522 153 550 q 136 474 139 493 l 193 474 q 251 568 206 539 q 298 588 275 583 q 339 590 321 592 l 351 590 q 419 585 383 590 q 482 557 454 581 q 519 486 513 531 q 506 410 524 444 q 455 378 493 386 q 354 365 417 371 q 285 358 318 363 q 229 346 253 354 q 140 292 174 326 q 103 183 107 257 q 113 120 100 147 q 143 75 126 93 q 175 49 160 57 q 190 40 190 40 q 201 17 204 33 q 181 0 197 0 l 0 0 q -15 6 -8 0 q -21 21 -21 13 q -15 36 -21 31 q 0 42 -8 42 l 118 42 q 114 47 115 44 q 61 185 56 108 q 110 319 65 268 q 153 356 128 340 q 214 385 178 371 q 278 399 242 394 q 350 407 314 404 q 394 412 374 410 q 433 417 415 414 q 463 425 453 421 q 468 429 467 428 q 478 478 479 450 q 454 525 476 506 q 406 546 435 543 q 350 549 378 549 l 338 549 q 303 545 321 549 q 272 531 286 542 q 246 501 257 521 q 232 451 235 482 q 226 438 232 443 q 211 432 219 432 l 114 432 q 99 438 107 432 q 93 453 93 446 q 94 470 93 454 q 99 508 94 486 q 114 554 104 529 q 140 599 124 579 q 365 679 214 683 q 579 606 513 675 q 617 539 611 574 q 622 486 622 504 l 622 451 l 622 142 q 623 126 622 136 q 626 114 624 117 q 633 113 628 113 l 668 117 q 685 111 678 117 q 690 96 690 106 l 690 42 l 751 42 q 766 36 760 42 q 772 21 772 31 q 766 6 772 13 q 751 0 760 0 z "},"":{"ha":751,"x_min":-21,"x_max":772,"o":"m 386 707 l 310 707 q 292 717 297 707 q 292 738 288 728 l 394 908 q 413 919 401 919 l 543 919 q 563 907 556 919 q 558 883 567 894 l 401 713 q 386 707 397 707 m 347 749 l 378 749 l 496 878 l 425 878 l 347 749 m 751 0 l 669 0 q 655 6 661 0 q 649 21 649 13 l 649 72 l 638 71 q 613 74 622 69 q 599 82 604 78 q 583 112 585 94 q 581 142 581 129 l 581 451 l 581 486 q 577 527 581 501 q 550 576 574 553 q 364 638 490 635 q 171 571 232 640 q 146 522 153 550 q 136 474 139 493 l 193 474 q 251 568 206 539 q 298 588 275 583 q 339 590 321 592 l 351 590 q 419 585 383 590 q 482 557 454 581 q 519 486 513 531 q 506 410 524 444 q 455 378 493 386 q 354 365 417 371 q 285 358 318 363 q 229 346 253 354 q 140 292 174 326 q 103 183 107 257 q 113 120 100 147 q 143 75 126 93 q 175 49 160 57 q 190 40 190 40 q 201 17 204 33 q 181 0 197 0 l 0 0 q -15 6 -8 0 q -21 21 -21 13 q -15 36 -21 31 q 0 42 -8 42 l 118 42 q 114 47 115 44 q 61 185 56 108 q 110 319 65 268 q 153 356 128 340 q 214 385 178 371 q 278 399 242 394 q 350 407 314 404 q 394 412 374 410 q 433 417 415 414 q 463 425 453 421 q 468 429 467 428 q 478 478 479 450 q 454 525 476 506 q 406 546 435 543 q 350 549 378 549 l 338 549 q 303 545 321 549 q 272 531 286 542 q 246 501 257 521 q 232 451 235 482 q 226 438 232 443 q 211 432 219 432 l 114 432 q 99 438 107 432 q 93 453 93 446 q 94 470 93 454 q 99 508 94 486 q 114 554 104 529 q 140 599 124 579 q 365 679 214 683 q 579 606 513 675 q 617 539 611 574 q 622 486 622 504 l 622 451 l 622 142 q 623 126 622 136 q 626 114 624 117 q 633 113 628 113 l 668 117 q 685 111 678 117 q 690 96 690 106 l 690 42 l 751 42 q 766 36 760 42 q 772 21 772 31 q 766 6 772 13 q 751 0 760 0 z "},"":{"ha":751,"x_min":-21,"x_max":772,"o":"m 547 710 l 447 710 q 431 718 435 710 l 364 810 l 297 718 q 281 710 290 710 l 190 710 q 171 721 178 710 q 174 742 165 733 l 294 913 q 313 922 301 922 l 424 922 q 440 913 433 922 l 564 742 q 565 721 572 732 q 547 710 561 710 m 457 751 l 506 751 l 413 881 l 322 881 l 231 751 l 271 751 l 347 857 q 364 865 353 865 q 382 857 375 865 l 457 751 m 751 0 l 669 0 q 655 6 661 0 q 649 21 649 13 l 649 72 l 638 71 q 613 74 622 69 q 599 82 604 78 q 583 112 585 94 q 581 142 581 129 l 581 451 l 581 486 q 577 527 581 501 q 550 576 574 553 q 364 638 490 635 q 171 571 232 640 q 146 522 153 550 q 136 474 139 493 l 193 474 q 251 568 206 539 q 298 588 275 583 q 339 590 321 592 l 351 590 q 419 585 383 590 q 482 557 454 581 q 519 486 513 531 q 506 410 524 444 q 455 378 493 386 q 354 365 417 371 q 285 358 318 363 q 229 346 253 354 q 140 292 174 326 q 103 183 107 257 q 113 120 100 147 q 143 75 126 93 q 175 49 160 57 q 190 40 190 40 q 201 17 204 33 q 181 0 197 0 l 0 0 q -15 6 -8 0 q -21 21 -21 13 q -15 36 -21 31 q 0 42 -8 42 l 118 42 q 114 47 115 44 q 61 185 56 108 q 110 319 65 268 q 153 356 128 340 q 214 385 178 371 q 278 399 242 394 q 350 407 314 404 q 394 412 374 410 q 433 417 415 414 q 463 425 453 421 q 468 429 467 428 q 478 478 479 450 q 454 525 476 506 q 406 546 435 543 q 350 549 378 549 l 338 549 q 303 545 321 549 q 272 531 286 542 q 246 501 257 521 q 232 451 235 482 q 226 438 232 443 q 211 432 219 432 l 114 432 q 99 438 107 432 q 93 453 93 446 q 94 470 93 454 q 99 508 94 486 q 114 554 104 529 q 140 599 124 579 q 365 679 214 683 q 579 606 513 675 q 617 539 611 574 q 622 486 622 504 l 622 451 l 622 142 q 623 126 622 136 q 626 114 624 117 q 633 113 628 113 l 668 117 q 685 111 678 117 q 690 96 690 106 l 690 42 l 751 42 q 766 36 760 42 q 772 21 772 31 q 766 6 772 13 q 751 0 760 0 z "},"":{"ha":751,"x_min":-21,"x_max":772,"o":"m 199 714 l 136 714 q 119 722 125 714 q 115 740 113 729 q 124 767 119 754 q 135 793 129 781 q 161 839 146 818 q 203 874 179 863 q 261 886 228 886 q 314 878 289 886 q 358 861 339 871 q 378 853 369 857 q 397 844 388 849 q 429 839 413 839 q 442 842 438 839 q 449 847 446 844 q 464 876 460 864 q 483 892 468 892 l 546 892 q 561 885 554 892 q 567 868 567 878 q 525 763 558 808 q 524 761 525 761 q 479 729 506 742 q 414 717 454 717 q 371 725 396 717 q 349 733 360 729 q 328 743 339 738 q 307 751 317 747 q 286 757 297 754 q 256 764 268 764 q 231 756 239 764 q 224 747 226 751 q 218 729 222 743 q 199 714 214 714 m 164 756 l 182 756 q 201 786 189 774 q 256 806 224 806 q 300 797 275 806 q 322 790 311 793 q 343 781 332 786 l 344 781 q 385 765 367 771 q 414 758 403 758 q 463 767 443 758 q 493 788 482 776 q 521 850 513 818 l 497 850 q 482 824 490 833 q 429 797 464 797 q 382 807 403 797 q 342 824 361 814 q 301 839 319 833 q 261 844 285 844 q 222 836 239 844 q 194 814 204 826 q 172 776 183 800 l 164 756 m 751 0 l 669 0 q 655 6 661 0 q 649 21 649 13 l 649 72 l 638 71 q 613 74 622 69 q 599 82 604 78 q 583 112 585 94 q 581 142 581 129 l 581 451 l 581 486 q 577 527 581 501 q 550 576 574 553 q 364 638 490 635 q 171 571 232 640 q 146 522 153 550 q 136 474 139 493 l 193 474 q 251 568 206 539 q 298 588 275 583 q 339 590 321 592 l 351 590 q 419 585 383 590 q 482 557 454 581 q 519 486 513 531 q 506 410 524 444 q 455 378 493 386 q 354 365 417 371 q 285 358 318 363 q 229 346 253 354 q 140 292 174 326 q 103 183 107 257 q 113 120 100 147 q 143 75 126 93 q 175 49 160 57 q 190 40 190 40 q 201 17 204 33 q 181 0 197 0 l 0 0 q -15 6 -8 0 q -21 21 -21 13 q -15 36 -21 31 q 0 42 -8 42 l 118 42 q 114 47 115 44 q 61 185 56 108 q 110 319 65 268 q 153 356 128 340 q 214 385 178 371 q 278 399 242 394 q 350 407 314 404 q 394 412 374 410 q 433 417 415 414 q 463 425 453 421 q 468 429 467 428 q 478 478 479 450 q 454 525 476 506 q 406 546 435 543 q 350 549 378 549 l 338 549 q 303 545 321 549 q 272 531 286 542 q 246 501 257 521 q 232 451 235 482 q 226 438 232 443 q 211 432 219 432 l 114 432 q 99 438 107 432 q 93 453 93 446 q 94 470 93 454 q 99 508 94 486 q 114 554 104 529 q 140 599 124 579 q 365 679 214 683 q 579 606 513 675 q 617 539 611 574 q 622 486 622 504 l 622 451 l 622 142 q 623 126 622 136 q 626 114 624 117 q 633 113 628 113 l 668 117 q 685 111 678 117 q 690 96 690 106 l 690 42 l 751 42 q 766 36 760 42 q 772 21 772 31 q 766 6 772 13 q 751 0 760 0 z "},"":{"ha":751,"x_min":-21,"x_max":772,"o":"m 219 701 q 154 728 181 701 q 128 793 128 756 q 154 859 128 832 q 219 886 181 886 q 285 859 258 886 q 311 793 311 832 q 285 728 311 756 q 219 701 258 701 m 219 844 q 184 829 199 844 q 169 793 169 814 q 184 758 169 772 q 219 743 199 743 q 255 758 240 743 q 269 793 269 772 q 255 829 269 814 q 219 844 240 844 m 483 701 q 418 728 444 701 q 392 793 392 756 q 418 859 392 832 q 483 886 444 886 q 549 859 522 886 q 575 793 575 832 q 549 728 575 756 q 483 701 522 701 m 483 844 q 448 829 463 844 q 433 793 433 814 q 448 758 433 772 q 483 743 463 743 q 519 758 504 743 q 533 793 533 772 q 519 829 533 814 q 483 844 504 844 m 751 0 l 669 0 q 655 6 661 0 q 649 21 649 13 l 649 72 l 638 71 q 613 74 622 69 q 599 82 604 78 q 583 112 585 94 q 581 142 581 129 l 581 451 l 581 486 q 577 527 581 501 q 550 576 574 553 q 364 638 490 635 q 171 571 232 640 q 146 522 153 550 q 136 474 139 493 l 193 474 q 251 568 206 539 q 298 588 275 583 q 339 590 321 592 l 351 590 q 419 585 383 590 q 482 557 454 581 q 519 486 513 531 q 506 410 524 444 q 455 378 493 386 q 354 365 417 371 q 285 358 318 363 q 229 346 253 354 q 140 292 174 326 q 103 183 107 257 q 113 120 100 147 q 143 75 126 93 q 175 49 160 57 q 190 40 190 40 q 201 17 204 33 q 181 0 197 0 l 0 0 q -15 6 -8 0 q -21 21 -21 13 q -15 36 -21 31 q 0 42 -8 42 l 118 42 q 114 47 115 44 q 61 185 56 108 q 110 319 65 268 q 153 356 128 340 q 214 385 178 371 q 278 399 242 394 q 350 407 314 404 q 394 412 374 410 q 433 417 415 414 q 463 425 453 421 q 468 429 467 428 q 478 478 479 450 q 454 525 476 506 q 406 546 435 543 q 350 549 378 549 l 338 549 q 303 545 321 549 q 272 531 286 542 q 246 501 257 521 q 232 451 235 482 q 226 438 232 443 q 211 432 219 432 l 114 432 q 99 438 107 432 q 93 453 93 446 q 94 470 93 454 q 99 508 94 486 q 114 554 104 529 q 140 599 124 579 q 365 679 214 683 q 579 606 513 675 q 617 539 611 574 q 622 486 622 504 l 622 451 l 622 142 q 623 126 622 136 q 626 114 624 117 q 633 113 628 113 l 668 117 q 685 111 678 117 q 690 96 690 106 l 690 42 l 751 42 q 766 36 760 42 q 772 21 772 31 q 766 6 772 13 q 751 0 760 0 z "},"":{"ha":751,"x_min":-21,"x_max":772,"o":"m 375 719 q 315 732 342 719 q 288 747 300 739 q 265 767 276 756 q 233 815 246 789 q 221 876 221 844 q 233 936 221 907 q 265 985 246 963 q 315 1019 285 1007 q 375 1032 342 1032 q 436 1019 407 1032 q 485 986 464 1007 q 518 936 506 963 q 531 876 531 907 q 518 815 531 844 q 485 767 506 788 q 436 732 465 746 q 375 719 407 719 m 375 990 q 332 981 351 990 q 296 957 311 972 q 271 919 281 940 q 263 876 263 899 q 271 832 263 853 q 296 796 282 810 q 332 771 310 779 q 375 761 356 761 q 397 764 386 761 q 419 771 408 767 q 456 796 438 778 q 481 832 469 810 q 489 876 489 853 q 481 919 489 899 q 456 956 469 942 q 419 981 439 972 q 375 990 400 990 m 375 808 q 328 828 347 808 q 308 876 308 846 q 328 924 308 906 q 375 943 347 943 q 424 924 401 943 q 443 876 443 904 q 424 828 443 847 q 375 808 401 808 m 375 901 q 357 894 364 901 q 350 876 350 888 q 357 857 350 864 q 375 850 364 850 q 393 857 386 850 q 401 876 401 865 q 393 894 401 886 q 375 901 386 901 m 751 0 l 669 0 q 655 6 661 0 q 649 21 649 13 l 649 72 l 638 71 q 613 74 622 69 q 599 82 604 78 q 583 112 585 94 q 581 142 581 129 l 581 451 l 581 486 q 577 527 581 501 q 550 576 574 553 q 364 638 490 635 q 171 571 232 640 q 146 522 153 550 q 136 474 139 493 l 193 474 q 251 568 206 539 q 298 588 275 583 q 339 590 321 592 l 351 590 q 419 585 383 590 q 482 557 454 581 q 519 486 513 531 q 506 410 524 444 q 455 378 493 386 q 354 365 417 371 q 285 358 318 363 q 229 346 253 354 q 140 292 174 326 q 103 183 107 257 q 113 120 100 147 q 143 75 126 93 q 175 49 160 57 q 190 40 190 40 q 201 17 204 33 q 181 0 197 0 l 0 0 q -15 6 -8 0 q -21 21 -21 13 q -15 36 -21 31 q 0 42 -8 42 l 118 42 q 114 47 115 44 q 61 185 56 108 q 110 319 65 268 q 153 356 128 340 q 214 385 178 371 q 278 399 242 394 q 350 407 314 404 q 394 412 374 410 q 433 417 415 414 q 463 425 453 421 q 468 429 467 428 q 478 478 479 450 q 454 525 476 506 q 406 546 435 543 q 350 549 378 549 l 338 549 q 303 545 321 549 q 272 531 286 542 q 246 501 257 521 q 232 451 235 482 q 226 438 232 443 q 211 432 219 432 l 114 432 q 99 438 107 432 q 93 453 93 446 q 94 470 93 454 q 99 508 94 486 q 114 554 104 529 q 140 599 124 579 q 365 679 214 683 q 579 606 513 675 q 617 539 611 574 q 622 486 622 504 l 622 451 l 622 142 q 623 126 622 136 q 626 114 624 117 q 633 113 628 113 l 668 117 q 685 111 678 117 q 690 96 690 106 l 690 42 l 751 42 q 766 36 760 42 q 772 21 772 31 q 766 6 772 13 q 751 0 760 0 z "},"":{"ha":1000,"x_min":-21,"x_max":1021,"o":"m 1000 42 q 1015 36 1008 42 q 1021 21 1021 31 q 1015 6 1021 13 q 1000 0 1008 0 l 753 0 l 740 0 q 719 18 722 0 q 735 42 717 36 l 738 42 q 806 78 776 54 q 882 197 863 121 l 824 197 q 765 110 807 140 q 690 79 735 88 q 669 76 679 76 q 647 76 658 76 q 624 77 636 76 q 601 79 613 78 q 551 94 576 83 q 483 144 511 113 q 444 217 458 174 q 435 301 432 254 q 456 321 435 321 l 579 321 l 621 321 l 897 321 q 888 414 897 369 q 870 471 881 443 q 844 522 860 499 q 764 603 815 571 q 638 633 715 633 q 560 622 600 633 q 531 611 543 618 l 514 603 q 467 624 494 614 q 419 633 444 631 q 364 638 393 636 q 171 571 233 642 q 146 522 153 550 q 136 474 139 493 l 193 474 q 251 568 204 539 q 297 588 274 583 q 338 590 321 592 l 350 590 q 385 590 367 590 q 421 585 403 589 q 464 569 444 581 q 474 563 469 567 q 482 557 478 560 q 519 486 513 531 q 506 410 524 447 q 460 380 494 388 q 369 367 425 372 q 361 366 365 367 q 353 365 357 365 q 340 364 346 364 q 328 363 335 364 q 274 356 300 360 q 228 346 247 353 q 140 292 172 326 q 101 183 107 257 q 113 120 99 147 q 143 76 126 93 q 175 49 160 58 q 190 40 190 40 q 201 17 204 33 q 181 0 197 0 l 0 0 q -15 6 -10 0 q -21 21 -21 13 q 0 42 -21 42 l 118 42 l 113 47 q 60 186 56 107 q 110 319 67 272 q 214 385 143 358 q 269 398 238 393 q 332 406 300 403 q 341 406 336 406 q 350 407 346 406 q 363 408 357 407 q 375 410 368 408 q 405 413 390 411 q 432 417 419 414 q 463 425 454 421 q 468 429 468 428 q 478 478 479 450 q 454 525 476 506 q 435 538 446 533 q 390 547 417 544 q 369 549 379 549 q 350 549 360 549 l 338 549 q 303 545 321 549 q 271 531 286 542 q 245 501 256 521 q 232 451 235 482 q 211 432 229 432 l 114 432 q 99 438 107 432 q 93 453 93 443 q 94 470 93 454 q 99 508 94 486 q 113 554 103 529 q 139 599 122 579 q 365 679 215 683 q 514 650 454 676 q 638 675 569 675 q 786 638 728 675 q 881 544 844 603 q 909 486 897 517 q 928 422 921 456 q 938 360 935 390 q 939 299 940 329 q 933 285 939 290 q 918 279 926 279 l 621 279 l 579 279 l 476 279 q 485 229 476 251 q 497 199 489 213 q 515 172 504 185 q 569 132 538 146 q 581 128 572 131 q 601 123 590 125 q 624 118 613 121 l 647 118 q 742 143 706 118 q 788 222 775 168 q 808 239 792 239 l 908 239 q 925 231 918 239 q 929 214 932 224 q 832 44 906 100 q 829 42 829 42 l 1000 42 l 1000 42 z "}}}
